<svg width="1267.2" height="722.7" xmlns="http://www.w3.org/2000/svg" xmlns:xlink="http://www.w3.org/1999/xlink"><line x1="93.5" y1="7.0" x2="93.5" y2="31.0" style="stroke:black; stroke-width:1px;" />
<line x1="93.5" y1="38.0" x2="44.0" y2="62.0" style="stroke:black; stroke-width:1px;" />
<line x1="44.0" y1="69.0" x2="22.25" y2="93.0" style="stroke:black; stroke-width:1px;" />
<line x1="22.25" y1="100.0" x2="22.25" y2="124.0" style="stroke:black; stroke-width:1px;" />
<line x1="44.0" y1="69.0" x2="65.75" y2="93.0" style="stroke:black; stroke-width:1px;" />
<line x1="93.5" y1="38.0" x2="143.0" y2="62.0" style="stroke:black; stroke-width:1px;" />
<line x1="143.0" y1="69.0" x2="92.75" y2="93.0" style="stroke:black; stroke-width:1px;" />
<line x1="143.0" y1="69.0" x2="107.75" y2="93.0" style="stroke:black; stroke-width:1px;" />
<line x1="143.0" y1="69.0" x2="122.75" y2="93.0" style="stroke:black; stroke-width:1px;" />
<line x1="143.0" y1="69.0" x2="153.75" y2="93.0" style="stroke:black; stroke-width:1px;" />
<line x1="153.75" y1="100.0" x2="153.75" y2="124.0" style="stroke:black; stroke-width:1px;" />
<line x1="153.75" y1="131.0" x2="126.75" y2="155.0" style="stroke:black; stroke-width:1px;" />
<line x1="126.75" y1="162.0" x2="126.75" y2="186.0" style="stroke:black; stroke-width:1px;" />
<line x1="126.75" y1="193.0" x2="35.25" y2="217.0" style="stroke:black; stroke-width:1px;" />
<line x1="126.75" y1="193.0" x2="80.75" y2="217.0" style="stroke:black; stroke-width:1px;" />
<line x1="80.75" y1="224.0" x2="80.75" y2="248.0" style="stroke:black; stroke-width:1px;" />
<line x1="126.75" y1="193.0" x2="120.25" y2="217.0" style="stroke:black; stroke-width:1px;" />
<line x1="120.25" y1="224.0" x2="120.25" y2="248.0" style="stroke:black; stroke-width:1px;" />
<line x1="126.75" y1="193.0" x2="142.25" y2="217.0" style="stroke:black; stroke-width:1px;" />
<line x1="126.75" y1="193.0" x2="158.75" y2="217.0" style="stroke:black; stroke-width:1px;" />
<line x1="126.75" y1="193.0" x2="175.25" y2="217.0" style="stroke:black; stroke-width:1px;" />
<line x1="126.75" y1="193.0" x2="192.75" y2="217.0" style="stroke:black; stroke-width:1px;" />
<line x1="126.75" y1="193.0" x2="218.25" y2="217.0" style="stroke:black; stroke-width:1px;" />
<line x1="218.25" y1="224.0" x2="181.75" y2="248.0" style="stroke:black; stroke-width:1px;" />
<line x1="218.25" y1="224.0" x2="218.25" y2="248.0" style="stroke:black; stroke-width:1px;" />
<line x1="218.25" y1="255.0" x2="112.25" y2="279.0" style="stroke:black; stroke-width:1px;" />
<line x1="112.25" y1="286.0" x2="112.25" y2="310.0" style="stroke:black; stroke-width:1px;" />
<line x1="112.25" y1="317.0" x2="112.25" y2="341.0" style="stroke:black; stroke-width:1px;" />
<line x1="218.25" y1="255.0" x2="138.75" y2="279.0" style="stroke:black; stroke-width:1px;" />
<line x1="218.25" y1="255.0" x2="165.25" y2="279.0" style="stroke:black; stroke-width:1px;" />
<line x1="165.25" y1="286.0" x2="165.25" y2="310.0" style="stroke:black; stroke-width:1px;" />
<line x1="165.25" y1="317.0" x2="165.25" y2="341.0" style="stroke:black; stroke-width:1px;" />
<line x1="218.25" y1="255.0" x2="191.75" y2="279.0" style="stroke:black; stroke-width:1px;" />
<line x1="218.25" y1="255.0" x2="218.25" y2="279.0" style="stroke:black; stroke-width:1px;" />
<line x1="218.25" y1="286.0" x2="218.25" y2="310.0" style="stroke:black; stroke-width:1px;" />
<line x1="218.25" y1="317.0" x2="218.25" y2="341.0" style="stroke:black; stroke-width:1px;" />
<line x1="218.25" y1="255.0" x2="244.75" y2="279.0" style="stroke:black; stroke-width:1px;" />
<line x1="218.25" y1="255.0" x2="271.25" y2="279.0" style="stroke:black; stroke-width:1px;" />
<line x1="271.25" y1="286.0" x2="271.25" y2="310.0" style="stroke:black; stroke-width:1px;" />
<line x1="271.25" y1="317.0" x2="271.25" y2="341.0" style="stroke:black; stroke-width:1px;" />
<line x1="218.25" y1="255.0" x2="297.75" y2="279.0" style="stroke:black; stroke-width:1px;" />
<line x1="218.25" y1="255.0" x2="324.25" y2="279.0" style="stroke:black; stroke-width:1px;" />
<line x1="324.25" y1="286.0" x2="324.25" y2="310.0" style="stroke:black; stroke-width:1px;" />
<line x1="324.25" y1="317.0" x2="324.25" y2="341.0" style="stroke:black; stroke-width:1px;" />
<line x1="218.25" y1="224.0" x2="254.75" y2="248.0" style="stroke:black; stroke-width:1px;" />
<line x1="153.75" y1="131.0" x2="180.75" y2="155.0" style="stroke:black; stroke-width:1px;" />
<line x1="143.0" y1="69.0" x2="193.25" y2="93.0" style="stroke:black; stroke-width:1px;" />
<rect x="248.25" y="310.0" width="46.0" height="14.0" style="fill:orange; stroke:rgb(0,0,0);" rx="1"/>
<text x="250" y="319" style="font-family:sans-serif;font-size:10px;">
valores
</text>
<rect x="249.25" y="248.0" width="11.0" height="14.0" style="fill:orange; stroke:rgb(0,0,0);" rx="1"/>
<text x="251" y="257" style="font-family:sans-serif;font-size:10px;">
}
</text>
<rect x="176.75" y="155.0" width="8.0" height="14.0" style="fill:orange; stroke:rgb(0,0,0);" rx="1"/>
<text x="178" y="164" style="font-family:sans-serif;font-size:10px;">
;
</text>
<rect x="71.75" y="248.0" width="18.0" height="14.0" style="fill:orange; stroke:rgb(0,0,0);" rx="1"/>
<text x="73" y="257" style="font-family:sans-serif;font-size:10px;">
int
</text>
<rect x="89.25" y="310.0" width="46.0" height="14.0" style="fill:orange; stroke:rgb(0,0,0);" rx="1"/>
<text x="91" y="319" style="font-family:sans-serif;font-size:10px;">
valores
</text>
<rect x="259.25" y="279.0" width="24.0" height="14.0" style="fill:orange; stroke:rgb(0,0,0);" rx="1"/>
<text x="261" y="288" style="font-family:sans-serif;font-size:10px;">
exp
</text>
<rect x="171.25" y="217.0" width="8.0" height="14.0" style="fill:orange; stroke:rgb(0,0,0);" rx="1"/>
<text x="173" y="226" style="font-family:sans-serif;font-size:10px;">
]
</text>
<rect x="180.75" y="93.0" width="25.0" height="14.0" style="fill:orange; stroke:rgb(0,0,0);" rx="1"/>
<text x="182" y="102" style="font-family:sans-serif;font-size:10px;">
end
</text>
<rect x="195.25" y="310.0" width="46.0" height="14.0" style="fill:orange; stroke:rgb(0,0,0);" rx="1"/>
<text x="197" y="319" style="font-family:sans-serif;font-size:10px;">
valores
</text>
<rect x="103.75" y="93.0" width="8.0" height="14.0" style="fill:orange; stroke:rgb(0,0,0);" rx="1"/>
<text x="105" y="102" style="font-family:sans-serif;font-size:10px;">
)
</text>
<rect x="83.75" y="155.0" width="86.0" height="14.0" style="fill:orange; stroke:rgb(0,0,0);" rx="1"/>
<text x="85" y="164" style="font-family:sans-serif;font-size:10px;">
comandounico
</text>
<rect x="159.75" y="341.0" width="11.0" height="14.0" style="fill:orange; stroke:rgb(0,0,0);" rx="1"/>
<text x="161" y="350" style="font-family:sans-serif;font-size:10px;">
2
</text>
<rect x="76.5" y="31.0" width="34.0" height="14.0" style="fill:orange; stroke:rgb(0,0,0);" rx="1"/>
<text x="78" y="40" style="font-family:sans-serif;font-size:10px;">
bloco
</text>
<rect x="293.75" y="279.0" width="8.0" height="14.0" style="fill:orange; stroke:rgb(0,0,0);" rx="1"/>
<text x="295" y="288" style="font-family:sans-serif;font-size:10px;">
,
</text>
<rect x="134.75" y="279.0" width="8.0" height="14.0" style="fill:orange; stroke:rgb(0,0,0);" rx="1"/>
<text x="136" y="288" style="font-family:sans-serif;font-size:10px;">
,
</text>
<rect x="186.25" y="217.0" width="13.0" height="14.0" style="fill:orange; stroke:rgb(0,0,0);" rx="1"/>
<text x="188" y="226" style="font-family:sans-serif;font-size:10px;">
=
</text>
<rect x="118.75" y="93.0" width="8.0" height="14.0" style="fill:orange; stroke:rgb(0,0,0);" rx="1"/>
<text x="120" y="102" style="font-family:sans-serif;font-size:10px;">
:
</text>
<rect x="153.25" y="217.0" width="11.0" height="14.0" style="fill:orange; stroke:rgb(0,0,0);" rx="1"/>
<text x="155" y="226" style="font-family:sans-serif;font-size:10px;">
5
</text>
<rect x="49.75" y="93.0" width="32.0" height="14.0" style="fill:orange; stroke:rgb(0,0,0);" rx="1"/>
<text x="51" y="102" style="font-family:sans-serif;font-size:10px;">
main
</text>
<rect x="133.75" y="93.0" width="40.0" height="14.0" style="fill:orange; stroke:rgb(0,0,0);" rx="1"/>
<text x="135" y="102" style="font-family:sans-serif;font-size:10px;">
trecho
</text>
<rect x="88.75" y="93.0" width="8.0" height="14.0" style="fill:orange; stroke:rgb(0,0,0);" rx="1"/>
<text x="90" y="102" style="font-family:sans-serif;font-size:10px;">
(
</text>
<rect x="77.0" y="0.0" width="33.0" height="14.0" style="fill:orange; stroke:rgb(0,0,0);" rx="1"/>
<text x="79" y="9" style="font-family:sans-serif;font-size:10px;">
inicio
</text>
<rect x="101.75" y="248.0" width="37.0" height="14.0" style="fill:orange; stroke:rgb(0,0,0);" rx="1"/>
<text x="103" y="257" style="font-family:sans-serif;font-size:10px;">
pares
</text>
<rect x="99.0" y="62.0" width="88.0" height="14.0" style="fill:orange; stroke:rgb(0,0,0);" rx="1"/>
<text x="101" y="71" style="font-family:sans-serif;font-size:10px;">
corpodafuncao
</text>
<rect x="142.25" y="310.0" width="46.0" height="14.0" style="fill:orange; stroke:rgb(0,0,0);" rx="1"/>
<text x="144" y="319" style="font-family:sans-serif;font-size:10px;">
valores
</text>
<rect x="206.25" y="279.0" width="24.0" height="14.0" style="fill:orange; stroke:rgb(0,0,0);" rx="1"/>
<text x="208" y="288" style="font-family:sans-serif;font-size:10px;">
exp
</text>
<rect x="109.25" y="217.0" width="22.0" height="14.0" style="fill:orange; stroke:rgb(0,0,0);" rx="1"/>
<text x="111" y="226" style="font-family:sans-serif;font-size:10px;">
var
</text>
<rect x="240.75" y="279.0" width="8.0" height="14.0" style="fill:orange; stroke:rgb(0,0,0);" rx="1"/>
<text x="242" y="288" style="font-family:sans-serif;font-size:10px;">
,
</text>
<rect x="125.75" y="124.0" width="56.0" height="14.0" style="fill:orange; stroke:rgb(0,0,0);" rx="1"/>
<text x="127" y="133" style="font-family:sans-serif;font-size:10px;">
comando
</text>
<rect x="212.75" y="341.0" width="11.0" height="14.0" style="fill:orange; stroke:rgb(0,0,0);" rx="1"/>
<text x="214" y="350" style="font-family:sans-serif;font-size:10px;">
4
</text>
<rect x="315.25" y="341.0" width="18.0" height="14.0" style="fill:orange; stroke:rgb(0,0,0);" rx="1"/>
<text x="317" y="350" style="font-family:sans-serif;font-size:10px;">
10
</text>
<rect x="59.25" y="217.0" width="43.0" height="14.0" style="fill:orange; stroke:rgb(0,0,0);" rx="1"/>
<text x="61" y="226" style="font-family:sans-serif;font-size:10px;">
tipovar
</text>
<rect x="194.25" y="248.0" width="48.0" height="14.0" style="fill:orange; stroke:rgb(0,0,0);" rx="1"/>
<text x="196" y="257" style="font-family:sans-serif;font-size:10px;">
listaexp
</text>
<rect x="138.25" y="217.0" width="8.0" height="14.0" style="fill:orange; stroke:rgb(0,0,0);" rx="1"/>
<text x="140" y="226" style="font-family:sans-serif;font-size:10px;">
[
</text>
<rect x="153.25" y="279.0" width="24.0" height="14.0" style="fill:orange; stroke:rgb(0,0,0);" rx="1"/>
<text x="155" y="288" style="font-family:sans-serif;font-size:10px;">
exp
</text>
<rect x="0.0" y="62.0" width="88.0" height="14.0" style="fill:orange; stroke:rgb(0,0,0);" rx="1"/>
<text x="2" y="71" style="font-family:sans-serif;font-size:10px;">
nomedafuncao
</text>
<rect x="68.75" y="186.0" width="116.0" height="14.0" style="fill:orange; stroke:rgb(0,0,0);" rx="1"/>
<text x="70" y="195" style="font-family:sans-serif;font-size:10px;">
comandoexpressao
</text>
<rect x="8.75" y="124.0" width="27.0" height="14.0" style="fill:orange; stroke:rgb(0,0,0);" rx="1"/>
<text x="10" y="133" style="font-family:sans-serif;font-size:10px;">
void
</text>
<rect x="301.25" y="310.0" width="46.0" height="14.0" style="fill:orange; stroke:rgb(0,0,0);" rx="1"/>
<text x="303" y="319" style="font-family:sans-serif;font-size:10px;">
valores
</text>
<rect x="100.25" y="279.0" width="24.0" height="14.0" style="fill:orange; stroke:rgb(0,0,0);" rx="1"/>
<text x="102" y="288" style="font-family:sans-serif;font-size:10px;">
exp
</text>
<rect x="265.75" y="341.0" width="11.0" height="14.0" style="fill:orange; stroke:rgb(0,0,0);" rx="1"/>
<text x="267" y="350" style="font-family:sans-serif;font-size:10px;">
8
</text>
<rect x="206.25" y="217.0" width="24.0" height="14.0" style="fill:orange; stroke:rgb(0,0,0);" rx="1"/>
<text x="208" y="226" style="font-family:sans-serif;font-size:10px;">
exp
</text>
<rect x="106.75" y="341.0" width="11.0" height="14.0" style="fill:orange; stroke:rgb(0,0,0);" rx="1"/>
<text x="108" y="350" style="font-family:sans-serif;font-size:10px;">
0
</text>
<rect x="312.25" y="279.0" width="24.0" height="14.0" style="fill:orange; stroke:rgb(0,0,0);" rx="1"/>
<text x="314" y="288" style="font-family:sans-serif;font-size:10px;">
exp
</text>
<rect x="18.25" y="217.0" width="34.0" height="14.0" style="fill:orange; stroke:rgb(0,0,0);" rx="1"/>
<text x="20" y="226" style="font-family:sans-serif;font-size:10px;">
array
</text>
<rect x="176.25" y="248.0" width="11.0" height="14.0" style="fill:orange; stroke:rgb(0,0,0);" rx="1"/>
<text x="178" y="257" style="font-family:sans-serif;font-size:10px;">
{
</text>
<rect x="187.75" y="279.0" width="8.0" height="14.0" style="fill:orange; stroke:rgb(0,0,0);" rx="1"/>
<text x="189" y="288" style="font-family:sans-serif;font-size:10px;">
,
</text>
<rect x="1.75" y="93.0" width="41.0" height="14.0" style="fill:orange; stroke:rgb(0,0,0);" rx="1"/>
<text x="3" y="102" style="font-family:sans-serif;font-size:10px;">
tiporet
</text>
</svg>