<svg width="1124.2" height="694.1" xmlns="http://www.w3.org/2000/svg" xmlns:xlink="http://www.w3.org/1999/xlink"><line x1="200.125" y1="7.0" x2="200.125" y2="31.0" style="stroke:black; stroke-width:1px;" />
<line x1="200.125" y1="38.0" x2="85.5" y2="62.0" style="stroke:black; stroke-width:1px;" />
<line x1="85.5" y1="69.0" x2="85.5" y2="93.0" style="stroke:black; stroke-width:1px;" />
<line x1="85.5" y1="100.0" x2="17.0" y2="124.0" style="stroke:black; stroke-width:1px;" />
<line x1="85.5" y1="100.0" x2="63.5" y2="124.0" style="stroke:black; stroke-width:1px;" />
<line x1="85.5" y1="100.0" x2="113.5" y2="124.0" style="stroke:black; stroke-width:1px;" />
<line x1="113.5" y1="131.0" x2="113.5" y2="155.0" style="stroke:black; stroke-width:1px;" />
<line x1="113.5" y1="162.0" x2="113.5" y2="186.0" style="stroke:black; stroke-width:1px;" />
<line x1="85.5" y1="100.0" x2="154.0" y2="124.0" style="stroke:black; stroke-width:1px;" />
<line x1="200.125" y1="38.0" x2="314.75" y2="62.0" style="stroke:black; stroke-width:1px;" />
<line x1="314.75" y1="69.0" x2="219.5" y2="93.0" style="stroke:black; stroke-width:1px;" />
<line x1="314.75" y1="69.0" x2="254.0" y2="93.0" style="stroke:black; stroke-width:1px;" />
<line x1="254.0" y1="100.0" x2="195.5" y2="124.0" style="stroke:black; stroke-width:1px;" />
<line x1="195.5" y1="131.0" x2="195.5" y2="155.0" style="stroke:black; stroke-width:1px;" />
<line x1="254.0" y1="100.0" x2="229.5" y2="124.0" style="stroke:black; stroke-width:1px;" />
<line x1="254.0" y1="100.0" x2="246.0" y2="124.0" style="stroke:black; stroke-width:1px;" />
<line x1="254.0" y1="100.0" x2="278.5" y2="124.0" style="stroke:black; stroke-width:1px;" />
<line x1="278.5" y1="131.0" x2="278.5" y2="155.0" style="stroke:black; stroke-width:1px;" />
<line x1="254.0" y1="100.0" x2="312.5" y2="124.0" style="stroke:black; stroke-width:1px;" />
<line x1="314.75" y1="69.0" x2="300.5" y2="93.0" style="stroke:black; stroke-width:1px;" />
<line x1="314.75" y1="69.0" x2="327.5" y2="93.0" style="stroke:black; stroke-width:1px;" />
<line x1="314.75" y1="69.0" x2="370.5" y2="93.0" style="stroke:black; stroke-width:1px;" />
<line x1="370.5" y1="100.0" x2="370.5" y2="124.0" style="stroke:black; stroke-width:1px;" />
<line x1="370.5" y1="131.0" x2="327.75" y2="155.0" style="stroke:black; stroke-width:1px;" />
<line x1="370.5" y1="131.0" x2="378.25" y2="155.0" style="stroke:black; stroke-width:1px;" />
<line x1="378.25" y1="162.0" x2="378.25" y2="186.0" style="stroke:black; stroke-width:1px;" />
<line x1="378.25" y1="193.0" x2="333.25" y2="217.0" style="stroke:black; stroke-width:1px;" />
<line x1="333.25" y1="224.0" x2="333.25" y2="248.0" style="stroke:black; stroke-width:1px;" />
<line x1="333.25" y1="255.0" x2="333.25" y2="279.0" style="stroke:black; stroke-width:1px;" />
<line x1="333.25" y1="286.0" x2="333.25" y2="310.0" style="stroke:black; stroke-width:1px;" />
<line x1="378.25" y1="193.0" x2="378.25" y2="217.0" style="stroke:black; stroke-width:1px;" />
<line x1="378.25" y1="224.0" x2="378.25" y2="248.0" style="stroke:black; stroke-width:1px;" />
<line x1="378.25" y1="193.0" x2="423.25" y2="217.0" style="stroke:black; stroke-width:1px;" />
<line x1="423.25" y1="224.0" x2="423.25" y2="248.0" style="stroke:black; stroke-width:1px;" />
<line x1="423.25" y1="255.0" x2="423.25" y2="279.0" style="stroke:black; stroke-width:1px;" />
<line x1="423.25" y1="286.0" x2="423.25" y2="310.0" style="stroke:black; stroke-width:1px;" />
<line x1="370.5" y1="131.0" x2="413.25" y2="155.0" style="stroke:black; stroke-width:1px;" />
<line x1="314.75" y1="69.0" x2="410.0" y2="93.0" style="stroke:black; stroke-width:1px;" />
<rect x="183.125" y="31.0" width="34.0" height="14.0" style="fill:orange; stroke:rgb(0,0,0);" rx="1"/>
<text x="185" y="40" style="font-family:sans-serif;font-size:10px;">
bloco
</text>
<rect x="0.0" y="124.0" width="34.0" height="14.0" style="fill:orange; stroke:rgb(0,0,0);" rx="1"/>
<text x="2" y="133" style="font-family:sans-serif;font-size:10px;">
inline
</text>
<rect x="92.0" y="155.0" width="43.0" height="14.0" style="fill:orange; stroke:rgb(0,0,0);" rx="1"/>
<text x="94" y="164" style="font-family:sans-serif;font-size:10px;">
tipovar
</text>
<rect x="325.0" y="124.0" width="91.0" height="14.0" style="fill:orange; stroke:rgb(0,0,0);" rx="1"/>
<text x="327" y="133" style="font-family:sans-serif;font-size:10px;">
ultimocomando
</text>
<rect x="321.25" y="217.0" width="24.0" height="14.0" style="fill:orange; stroke:rgb(0,0,0);" rx="1"/>
<text x="323" y="226" style="font-family:sans-serif;font-size:10px;">
exp
</text>
<rect x="93.0" y="124.0" width="41.0" height="14.0" style="fill:orange; stroke:rgb(0,0,0);" rx="1"/>
<text x="95" y="133" style="font-family:sans-serif;font-size:10px;">
tiporet
</text>
<rect x="270.75" y="62.0" width="88.0" height="14.0" style="fill:orange; stroke:rgb(0,0,0);" rx="1"/>
<text x="272" y="71" style="font-family:sans-serif;font-size:10px;">
corpodafuncao
</text>
<rect x="307.0" y="124.0" width="11.0" height="14.0" style="fill:orange; stroke:rgb(0,0,0);" rx="1"/>
<text x="309" y="133" style="font-family:sans-serif;font-size:10px;">
b
</text>
<rect x="360.75" y="217.0" width="35.0" height="14.0" style="fill:orange; stroke:rgb(0,0,0);" rx="1"/>
<text x="362" y="226" style="font-family:sans-serif;font-size:10px;">
opbin
</text>
<rect x="41.5" y="62.0" width="88.0" height="14.0" style="fill:orange; stroke:rgb(0,0,0);" rx="1"/>
<text x="43" y="71" style="font-family:sans-serif;font-size:10px;">
nomedafuncao
</text>
<rect x="301.75" y="248.0" width="63.0" height="14.0" style="fill:orange; stroke:rgb(0,0,0);" rx="1"/>
<text x="303" y="257" style="font-family:sans-serif;font-size:10px;">
expprefixo
</text>
<rect x="104.5" y="186.0" width="18.0" height="14.0" style="fill:orange; stroke:rgb(0,0,0);" rx="1"/>
<text x="106" y="195" style="font-family:sans-serif;font-size:10px;">
int
</text>
<rect x="174.0" y="124.0" width="43.0" height="14.0" style="fill:orange; stroke:rgb(0,0,0);" rx="1"/>
<text x="176" y="133" style="font-family:sans-serif;font-size:10px;">
tipovar
</text>
<rect x="186.5" y="155.0" width="18.0" height="14.0" style="fill:orange; stroke:rgb(0,0,0);" rx="1"/>
<text x="188" y="164" style="font-family:sans-serif;font-size:10px;">
int
</text>
<rect x="397.5" y="93.0" width="25.0" height="14.0" style="fill:orange; stroke:rgb(0,0,0);" rx="1"/>
<text x="399" y="102" style="font-family:sans-serif;font-size:10px;">
end
</text>
<rect x="366.25" y="186.0" width="24.0" height="14.0" style="fill:orange; stroke:rgb(0,0,0);" rx="1"/>
<text x="368" y="195" style="font-family:sans-serif;font-size:10px;">
exp
</text>
<rect x="350.5" y="93.0" width="40.0" height="14.0" style="fill:orange; stroke:rgb(0,0,0);" rx="1"/>
<text x="352" y="102" style="font-family:sans-serif;font-size:10px;">
trecho
</text>
<rect x="242.0" y="124.0" width="8.0" height="14.0" style="fill:orange; stroke:rgb(0,0,0);" rx="1"/>
<text x="244" y="133" style="font-family:sans-serif;font-size:10px;">
,
</text>
<rect x="323.5" y="93.0" width="8.0" height="14.0" style="fill:orange; stroke:rgb(0,0,0);" rx="1"/>
<text x="325" y="102" style="font-family:sans-serif;font-size:10px;">
:
</text>
<rect x="183.625" y="0.0" width="33.0" height="14.0" style="fill:orange; stroke:rgb(0,0,0);" rx="1"/>
<text x="185" y="9" style="font-family:sans-serif;font-size:10px;">
inicio
</text>
<rect x="30.0" y="93.0" width="111.0" height="14.0" style="fill:orange; stroke:rgb(0,0,0);" rx="1"/>
<text x="32" y="102" style="font-family:sans-serif;font-size:10px;">
erro_inline_fastcall
</text>
<rect x="308.25" y="155.0" width="39.0" height="14.0" style="fill:orange; stroke:rgb(0,0,0);" rx="1"/>
<text x="310" y="164" style="font-family:sans-serif;font-size:10px;">
return
</text>
<rect x="354.25" y="155.0" width="48.0" height="14.0" style="fill:orange; stroke:rgb(0,0,0);" rx="1"/>
<text x="356" y="164" style="font-family:sans-serif;font-size:10px;">
listaexp
</text>
<rect x="417.75" y="310.0" width="11.0" height="14.0" style="fill:orange; stroke:rgb(0,0,0);" rx="1"/>
<text x="419" y="319" style="font-family:sans-serif;font-size:10px;">
b
</text>
<rect x="296.5" y="93.0" width="8.0" height="14.0" style="fill:orange; stroke:rgb(0,0,0);" rx="1"/>
<text x="298" y="102" style="font-family:sans-serif;font-size:10px;">
)
</text>
<rect x="409.25" y="155.0" width="8.0" height="14.0" style="fill:orange; stroke:rgb(0,0,0);" rx="1"/>
<text x="411" y="164" style="font-family:sans-serif;font-size:10px;">
;
</text>
<rect x="257.0" y="124.0" width="43.0" height="14.0" style="fill:orange; stroke:rgb(0,0,0);" rx="1"/>
<text x="259" y="133" style="font-family:sans-serif;font-size:10px;">
tipovar
</text>
<rect x="41.0" y="124.0" width="45.0" height="14.0" style="fill:orange; stroke:rgb(0,0,0);" rx="1"/>
<text x="43" y="133" style="font-family:sans-serif;font-size:10px;">
fastcall
</text>
<rect x="269.5" y="155.0" width="18.0" height="14.0" style="fill:orange; stroke:rgb(0,0,0);" rx="1"/>
<text x="271" y="164" style="font-family:sans-serif;font-size:10px;">
int
</text>
<rect x="230.5" y="93.0" width="47.0" height="14.0" style="fill:orange; stroke:rgb(0,0,0);" rx="1"/>
<text x="232" y="102" style="font-family:sans-serif;font-size:10px;">
listapar
</text>
<rect x="322.25" y="279.0" width="22.0" height="14.0" style="fill:orange; stroke:rgb(0,0,0);" rx="1"/>
<text x="324" y="288" style="font-family:sans-serif;font-size:10px;">
var
</text>
<rect x="411.25" y="217.0" width="24.0" height="14.0" style="fill:orange; stroke:rgb(0,0,0);" rx="1"/>
<text x="413" y="226" style="font-family:sans-serif;font-size:10px;">
exp
</text>
<rect x="412.25" y="279.0" width="22.0" height="14.0" style="fill:orange; stroke:rgb(0,0,0);" rx="1"/>
<text x="414" y="288" style="font-family:sans-serif;font-size:10px;">
var
</text>
<rect x="215.5" y="93.0" width="8.0" height="14.0" style="fill:orange; stroke:rgb(0,0,0);" rx="1"/>
<text x="217" y="102" style="font-family:sans-serif;font-size:10px;">
(
</text>
<rect x="391.75" y="248.0" width="63.0" height="14.0" style="fill:orange; stroke:rgb(0,0,0);" rx="1"/>
<text x="393" y="257" style="font-family:sans-serif;font-size:10px;">
expprefixo
</text>
<rect x="327.75" y="310.0" width="11.0" height="14.0" style="fill:orange; stroke:rgb(0,0,0);" rx="1"/>
<text x="329" y="319" style="font-family:sans-serif;font-size:10px;">
a
</text>
<rect x="224.0" y="124.0" width="11.0" height="14.0" style="fill:orange; stroke:rgb(0,0,0);" rx="1"/>
<text x="226" y="133" style="font-family:sans-serif;font-size:10px;">
a
</text>
<rect x="371.75" y="248.0" width="13.0" height="14.0" style="fill:orange; stroke:rgb(0,0,0);" rx="1"/>
<text x="373" y="257" style="font-family:sans-serif;font-size:10px;">
+
</text>
<rect x="141.0" y="124.0" width="26.0" height="14.0" style="fill:orange; stroke:rgb(0,0,0);" rx="1"/>
<text x="143" y="133" style="font-family:sans-serif;font-size:10px;">
calc
</text>
</svg>