<svg width="1091.2" height="687.5" xmlns="http://www.w3.org/2000/svg" xmlns:xlink="http://www.w3.org/1999/xlink"><line x1="93.5" y1="7.0" x2="93.5" y2="31.0" style="stroke:black; stroke-width:1px;" />
<line x1="93.5" y1="38.0" x2="44.0" y2="62.0" style="stroke:black; stroke-width:1px;" />
<line x1="44.0" y1="69.0" x2="22.25" y2="93.0" style="stroke:black; stroke-width:1px;" />
<line x1="22.25" y1="100.0" x2="22.25" y2="124.0" style="stroke:black; stroke-width:1px;" />
<line x1="44.0" y1="69.0" x2="65.75" y2="93.0" style="stroke:black; stroke-width:1px;" />
<line x1="93.5" y1="38.0" x2="143.0" y2="62.0" style="stroke:black; stroke-width:1px;" />
<line x1="143.0" y1="69.0" x2="92.75" y2="93.0" style="stroke:black; stroke-width:1px;" />
<line x1="143.0" y1="69.0" x2="107.75" y2="93.0" style="stroke:black; stroke-width:1px;" />
<line x1="143.0" y1="69.0" x2="122.75" y2="93.0" style="stroke:black; stroke-width:1px;" />
<line x1="143.0" y1="69.0" x2="153.75" y2="93.0" style="stroke:black; stroke-width:1px;" />
<line x1="153.75" y1="100.0" x2="90.5" y2="124.0" style="stroke:black; stroke-width:1px;" />
<line x1="90.5" y1="131.0" x2="63.5" y2="155.0" style="stroke:black; stroke-width:1px;" />
<line x1="63.5" y1="162.0" x2="63.5" y2="186.0" style="stroke:black; stroke-width:1px;" />
<line x1="63.5" y1="193.0" x2="22.25" y2="217.0" style="stroke:black; stroke-width:1px;" />
<line x1="63.5" y1="193.0" x2="54.75" y2="217.0" style="stroke:black; stroke-width:1px;" />
<line x1="54.75" y1="224.0" x2="54.75" y2="248.0" style="stroke:black; stroke-width:1px;" />
<line x1="63.5" y1="193.0" x2="79.25" y2="217.0" style="stroke:black; stroke-width:1px;" />
<line x1="63.5" y1="193.0" x2="104.75" y2="217.0" style="stroke:black; stroke-width:1px;" />
<line x1="104.75" y1="224.0" x2="104.75" y2="248.0" style="stroke:black; stroke-width:1px;" />
<line x1="104.75" y1="255.0" x2="104.75" y2="279.0" style="stroke:black; stroke-width:1px;" />
<line x1="90.5" y1="131.0" x2="117.5" y2="155.0" style="stroke:black; stroke-width:1px;" />
<line x1="153.75" y1="100.0" x2="217.0" y2="124.0" style="stroke:black; stroke-width:1px;" />
<line x1="217.0" y1="131.0" x2="190.0" y2="155.0" style="stroke:black; stroke-width:1px;" />
<line x1="190.0" y1="162.0" x2="190.0" y2="186.0" style="stroke:black; stroke-width:1px;" />
<line x1="190.0" y1="193.0" x2="145.25" y2="217.0" style="stroke:black; stroke-width:1px;" />
<line x1="145.25" y1="224.0" x2="145.25" y2="248.0" style="stroke:black; stroke-width:1px;" />
<line x1="190.0" y1="193.0" x2="184.75" y2="217.0" style="stroke:black; stroke-width:1px;" />
<line x1="184.75" y1="224.0" x2="184.75" y2="248.0" style="stroke:black; stroke-width:1px;" />
<line x1="190.0" y1="193.0" x2="209.25" y2="217.0" style="stroke:black; stroke-width:1px;" />
<line x1="190.0" y1="193.0" x2="234.75" y2="217.0" style="stroke:black; stroke-width:1px;" />
<line x1="234.75" y1="224.0" x2="211.75" y2="248.0" style="stroke:black; stroke-width:1px;" />
<line x1="234.75" y1="224.0" x2="234.75" y2="248.0" style="stroke:black; stroke-width:1px;" />
<line x1="234.75" y1="255.0" x2="198.25" y2="279.0" style="stroke:black; stroke-width:1px;" />
<line x1="198.25" y1="286.0" x2="186.75" y2="310.0" style="stroke:black; stroke-width:1px;" />
<line x1="186.75" y1="317.0" x2="146.0" y2="341.0" style="stroke:black; stroke-width:1px;" />
<line x1="146.0" y1="348.0" x2="146.0" y2="372.0" style="stroke:black; stroke-width:1px;" />
<line x1="146.0" y1="379.0" x2="146.0" y2="403.0" style="stroke:black; stroke-width:1px;" />
<line x1="146.0" y1="410.0" x2="146.0" y2="434.0" style="stroke:black; stroke-width:1px;" />
<line x1="186.75" y1="317.0" x2="191.0" y2="341.0" style="stroke:black; stroke-width:1px;" />
<line x1="191.0" y1="348.0" x2="191.0" y2="372.0" style="stroke:black; stroke-width:1px;" />
<line x1="186.75" y1="317.0" x2="227.5" y2="341.0" style="stroke:black; stroke-width:1px;" />
<line x1="227.5" y1="348.0" x2="227.5" y2="372.0" style="stroke:black; stroke-width:1px;" />
<line x1="227.5" y1="379.0" x2="227.5" y2="403.0" style="stroke:black; stroke-width:1px;" />
<line x1="198.25" y1="286.0" x2="209.75" y2="310.0" style="stroke:black; stroke-width:1px;" />
<line x1="234.75" y1="255.0" x2="234.75" y2="279.0" style="stroke:black; stroke-width:1px;" />
<line x1="234.75" y1="286.0" x2="234.75" y2="310.0" style="stroke:black; stroke-width:1px;" />
<line x1="234.75" y1="255.0" x2="271.25" y2="279.0" style="stroke:black; stroke-width:1px;" />
<line x1="271.25" y1="286.0" x2="271.25" y2="310.0" style="stroke:black; stroke-width:1px;" />
<line x1="271.25" y1="317.0" x2="271.25" y2="341.0" style="stroke:black; stroke-width:1px;" />
<line x1="234.75" y1="224.0" x2="257.75" y2="248.0" style="stroke:black; stroke-width:1px;" />
<line x1="217.0" y1="131.0" x2="244.0" y2="155.0" style="stroke:black; stroke-width:1px;" />
<line x1="143.0" y1="69.0" x2="193.25" y2="93.0" style="stroke:black; stroke-width:1px;" />
<rect x="136.25" y="248.0" width="18.0" height="14.0" style="fill:orange; stroke:rgb(0,0,0);" rx="1"/>
<text x="138" y="257" style="font-family:sans-serif;font-size:10px;">
int
</text>
<rect x="133.75" y="93.0" width="40.0" height="14.0" style="fill:orange; stroke:rgb(0,0,0);" rx="1"/>
<text x="135" y="102" style="font-family:sans-serif;font-size:10px;">
trecho
</text>
<rect x="202.75" y="217.0" width="13.0" height="14.0" style="fill:orange; stroke:rgb(0,0,0);" rx="1"/>
<text x="204" y="226" style="font-family:sans-serif;font-size:10px;">
=
</text>
<rect x="248.25" y="310.0" width="46.0" height="14.0" style="fill:orange; stroke:rgb(0,0,0);" rx="1"/>
<text x="250" y="319" style="font-family:sans-serif;font-size:10px;">
valores
</text>
<rect x="259.25" y="279.0" width="24.0" height="14.0" style="fill:orange; stroke:rgb(0,0,0);" rx="1"/>
<text x="261" y="288" style="font-family:sans-serif;font-size:10px;">
exp
</text>
<rect x="240.0" y="155.0" width="8.0" height="14.0" style="fill:orange; stroke:rgb(0,0,0);" rx="1"/>
<text x="242" y="164" style="font-family:sans-serif;font-size:10px;">
;
</text>
<rect x="123.75" y="217.0" width="43.0" height="14.0" style="fill:orange; stroke:rgb(0,0,0);" rx="1"/>
<text x="125" y="226" style="font-family:sans-serif;font-size:10px;">
tipovar
</text>
<rect x="77.0" y="0.0" width="33.0" height="14.0" style="fill:orange; stroke:rgb(0,0,0);" rx="1"/>
<text x="79" y="9" style="font-family:sans-serif;font-size:10px;">
inicio
</text>
<rect x="88.75" y="93.0" width="8.0" height="14.0" style="fill:orange; stroke:rgb(0,0,0);" rx="1"/>
<text x="90" y="102" style="font-family:sans-serif;font-size:10px;">
(
</text>
<rect x="222.75" y="248.0" width="24.0" height="14.0" style="fill:orange; stroke:rgb(0,0,0);" rx="1"/>
<text x="224" y="257" style="font-family:sans-serif;font-size:10px;">
exp
</text>
<rect x="5.5" y="186.0" width="116.0" height="14.0" style="fill:orange; stroke:rgb(0,0,0);" rx="1"/>
<text x="7" y="195" style="font-family:sans-serif;font-size:10px;">
comandoexpressao
</text>
<rect x="179.75" y="248.0" width="10.0" height="14.0" style="fill:orange; stroke:rgb(0,0,0);" rx="1"/>
<text x="181" y="257" style="font-family:sans-serif;font-size:10px;">
y
</text>
<rect x="49.75" y="93.0" width="32.0" height="14.0" style="fill:orange; stroke:rgb(0,0,0);" rx="1"/>
<text x="51" y="102" style="font-family:sans-serif;font-size:10px;">
main
</text>
<rect x="147.0" y="155.0" width="86.0" height="14.0" style="fill:orange; stroke:rgb(0,0,0);" rx="1"/>
<text x="149" y="164" style="font-family:sans-serif;font-size:10px;">
comandounico
</text>
<rect x="99.25" y="279.0" width="11.0" height="14.0" style="fill:orange; stroke:rgb(0,0,0);" rx="1"/>
<text x="101" y="288" style="font-family:sans-serif;font-size:10px;">
4
</text>
<rect x="204.5" y="372.0" width="46.0" height="14.0" style="fill:orange; stroke:rgb(0,0,0);" rx="1"/>
<text x="206" y="381" style="font-family:sans-serif;font-size:10px;">
valores
</text>
<rect x="8.75" y="124.0" width="27.0" height="14.0" style="fill:orange; stroke:rgb(0,0,0);" rx="1"/>
<text x="10" y="133" style="font-family:sans-serif;font-size:10px;">
void
</text>
<rect x="222.0" y="403.0" width="11.0" height="14.0" style="fill:orange; stroke:rgb(0,0,0);" rx="1"/>
<text x="224" y="412" style="font-family:sans-serif;font-size:10px;">
3
</text>
<rect x="76.5" y="31.0" width="34.0" height="14.0" style="fill:orange; stroke:rgb(0,0,0);" rx="1"/>
<text x="78" y="40" style="font-family:sans-serif;font-size:10px;">
bloco
</text>
<rect x="180.75" y="93.0" width="25.0" height="14.0" style="fill:orange; stroke:rgb(0,0,0);" rx="1"/>
<text x="182" y="102" style="font-family:sans-serif;font-size:10px;">
end
</text>
<rect x="7.75" y="217.0" width="29.0" height="14.0" style="fill:orange; stroke:rgb(0,0,0);" rx="1"/>
<text x="9" y="226" style="font-family:sans-serif;font-size:10px;">
auto
</text>
<rect x="222.75" y="217.0" width="24.0" height="14.0" style="fill:orange; stroke:rgb(0,0,0);" rx="1"/>
<text x="224" y="226" style="font-family:sans-serif;font-size:10px;">
exp
</text>
<rect x="173.5" y="341.0" width="35.0" height="14.0" style="fill:orange; stroke:rgb(0,0,0);" rx="1"/>
<text x="175" y="350" style="font-family:sans-serif;font-size:10px;">
opbin
</text>
<rect x="205.75" y="310.0" width="8.0" height="14.0" style="fill:orange; stroke:rgb(0,0,0);" rx="1"/>
<text x="207" y="319" style="font-family:sans-serif;font-size:10px;">
)
</text>
<rect x="0.0" y="62.0" width="88.0" height="14.0" style="fill:orange; stroke:rgb(0,0,0);" rx="1"/>
<text x="2" y="71" style="font-family:sans-serif;font-size:10px;">
nomedafuncao
</text>
<rect x="81.75" y="248.0" width="46.0" height="14.0" style="fill:orange; stroke:rgb(0,0,0);" rx="1"/>
<text x="83" y="257" style="font-family:sans-serif;font-size:10px;">
valores
</text>
<rect x="135.0" y="403.0" width="22.0" height="14.0" style="fill:orange; stroke:rgb(0,0,0);" rx="1"/>
<text x="137" y="412" style="font-family:sans-serif;font-size:10px;">
var
</text>
<rect x="62.5" y="124.0" width="56.0" height="14.0" style="fill:orange; stroke:rgb(0,0,0);" rx="1"/>
<text x="64" y="133" style="font-family:sans-serif;font-size:10px;">
comando
</text>
<rect x="103.75" y="93.0" width="8.0" height="14.0" style="fill:orange; stroke:rgb(0,0,0);" rx="1"/>
<text x="105" y="102" style="font-family:sans-serif;font-size:10px;">
)
</text>
<rect x="92.75" y="217.0" width="24.0" height="14.0" style="fill:orange; stroke:rgb(0,0,0);" rx="1"/>
<text x="94" y="226" style="font-family:sans-serif;font-size:10px;">
exp
</text>
<rect x="265.75" y="341.0" width="11.0" height="14.0" style="fill:orange; stroke:rgb(0,0,0);" rx="1"/>
<text x="267" y="350" style="font-family:sans-serif;font-size:10px;">
4
</text>
<rect x="20.5" y="155.0" width="86.0" height="14.0" style="fill:orange; stroke:rgb(0,0,0);" rx="1"/>
<text x="22" y="164" style="font-family:sans-serif;font-size:10px;">
comandounico
</text>
<rect x="217.25" y="279.0" width="35.0" height="14.0" style="fill:orange; stroke:rgb(0,0,0);" rx="1"/>
<text x="219" y="288" style="font-family:sans-serif;font-size:10px;">
opbin
</text>
<rect x="118.75" y="93.0" width="8.0" height="14.0" style="fill:orange; stroke:rgb(0,0,0);" rx="1"/>
<text x="120" y="102" style="font-family:sans-serif;font-size:10px;">
:
</text>
<rect x="134.0" y="341.0" width="24.0" height="14.0" style="fill:orange; stroke:rgb(0,0,0);" rx="1"/>
<text x="136" y="350" style="font-family:sans-serif;font-size:10px;">
exp
</text>
<rect x="173.75" y="217.0" width="22.0" height="14.0" style="fill:orange; stroke:rgb(0,0,0);" rx="1"/>
<text x="175" y="226" style="font-family:sans-serif;font-size:10px;">
var
</text>
<rect x="229.75" y="310.0" width="10.0" height="14.0" style="fill:orange; stroke:rgb(0,0,0);" rx="1"/>
<text x="231" y="319" style="font-family:sans-serif;font-size:10px;">
*
</text>
<rect x="49.75" y="248.0" width="10.0" height="14.0" style="fill:orange; stroke:rgb(0,0,0);" rx="1"/>
<text x="51" y="257" style="font-family:sans-serif;font-size:10px;">
x
</text>
<rect x="1.75" y="93.0" width="41.0" height="14.0" style="fill:orange; stroke:rgb(0,0,0);" rx="1"/>
<text x="3" y="102" style="font-family:sans-serif;font-size:10px;">
tiporet
</text>
<rect x="43.75" y="217.0" width="22.0" height="14.0" style="fill:orange; stroke:rgb(0,0,0);" rx="1"/>
<text x="45" y="226" style="font-family:sans-serif;font-size:10px;">
var
</text>
<rect x="141.0" y="434.0" width="10.0" height="14.0" style="fill:orange; stroke:rgb(0,0,0);" rx="1"/>
<text x="143" y="443" style="font-family:sans-serif;font-size:10px;">
x
</text>
<rect x="114.5" y="372.0" width="63.0" height="14.0" style="fill:orange; stroke:rgb(0,0,0);" rx="1"/>
<text x="116" y="381" style="font-family:sans-serif;font-size:10px;">
expprefixo
</text>
<rect x="132.0" y="186.0" width="116.0" height="14.0" style="fill:orange; stroke:rgb(0,0,0);" rx="1"/>
<text x="134" y="195" style="font-family:sans-serif;font-size:10px;">
comandoexpressao
</text>
<rect x="186.25" y="279.0" width="24.0" height="14.0" style="fill:orange; stroke:rgb(0,0,0);" rx="1"/>
<text x="188" y="288" style="font-family:sans-serif;font-size:10px;">
exp
</text>
<rect x="253.75" y="248.0" width="8.0" height="14.0" style="fill:orange; stroke:rgb(0,0,0);" rx="1"/>
<text x="255" y="257" style="font-family:sans-serif;font-size:10px;">
)
</text>
<rect x="72.75" y="217.0" width="13.0" height="14.0" style="fill:orange; stroke:rgb(0,0,0);" rx="1"/>
<text x="74" y="226" style="font-family:sans-serif;font-size:10px;">
=
</text>
<rect x="215.5" y="341.0" width="24.0" height="14.0" style="fill:orange; stroke:rgb(0,0,0);" rx="1"/>
<text x="217" y="350" style="font-family:sans-serif;font-size:10px;">
exp
</text>
<rect x="99.0" y="62.0" width="88.0" height="14.0" style="fill:orange; stroke:rgb(0,0,0);" rx="1"/>
<text x="101" y="71" style="font-family:sans-serif;font-size:10px;">
corpodafuncao
</text>
<rect x="113.5" y="155.0" width="8.0" height="14.0" style="fill:orange; stroke:rgb(0,0,0);" rx="1"/>
<text x="115" y="164" style="font-family:sans-serif;font-size:10px;">
;
</text>
<rect x="189.0" y="124.0" width="56.0" height="14.0" style="fill:orange; stroke:rgb(0,0,0);" rx="1"/>
<text x="191" y="133" style="font-family:sans-serif;font-size:10px;">
comando
</text>
<rect x="207.75" y="248.0" width="8.0" height="14.0" style="fill:orange; stroke:rgb(0,0,0);" rx="1"/>
<text x="209" y="257" style="font-family:sans-serif;font-size:10px;">
(
</text>
<rect x="184.5" y="372.0" width="13.0" height="14.0" style="fill:orange; stroke:rgb(0,0,0);" rx="1"/>
<text x="186" y="381" style="font-family:sans-serif;font-size:10px;">
+
</text>
<rect x="174.75" y="310.0" width="24.0" height="14.0" style="fill:orange; stroke:rgb(0,0,0);" rx="1"/>
<text x="176" y="319" style="font-family:sans-serif;font-size:10px;">
exp
</text>
</svg>