<svg width="1113.2" height="691.9000000000001" xmlns="http://www.w3.org/2000/svg" xmlns:xlink="http://www.w3.org/1999/xlink"><line x1="93.5" y1="7.0" x2="93.5" y2="31.0" style="stroke:black; stroke-width:1px;" />
<line x1="93.5" y1="38.0" x2="44.0" y2="62.0" style="stroke:black; stroke-width:1px;" />
<line x1="44.0" y1="69.0" x2="22.25" y2="93.0" style="stroke:black; stroke-width:1px;" />
<line x1="22.25" y1="100.0" x2="22.25" y2="124.0" style="stroke:black; stroke-width:1px;" />
<line x1="44.0" y1="69.0" x2="65.75" y2="93.0" style="stroke:black; stroke-width:1px;" />
<line x1="93.5" y1="38.0" x2="143.0" y2="62.0" style="stroke:black; stroke-width:1px;" />
<line x1="143.0" y1="69.0" x2="92.75" y2="93.0" style="stroke:black; stroke-width:1px;" />
<line x1="143.0" y1="69.0" x2="107.75" y2="93.0" style="stroke:black; stroke-width:1px;" />
<line x1="143.0" y1="69.0" x2="122.75" y2="93.0" style="stroke:black; stroke-width:1px;" />
<line x1="143.0" y1="69.0" x2="153.75" y2="93.0" style="stroke:black; stroke-width:1px;" />
<line x1="153.75" y1="100.0" x2="153.75" y2="124.0" style="stroke:black; stroke-width:1px;" />
<line x1="153.75" y1="131.0" x2="126.75" y2="155.0" style="stroke:black; stroke-width:1px;" />
<line x1="126.75" y1="162.0" x2="126.75" y2="186.0" style="stroke:black; stroke-width:1px;" />
<line x1="126.75" y1="193.0" x2="126.75" y2="217.0" style="stroke:black; stroke-width:1px;" />
<line x1="126.75" y1="224.0" x2="110.5" y2="248.0" style="stroke:black; stroke-width:1px;" />
<line x1="126.75" y1="224.0" x2="143.0" y2="248.0" style="stroke:black; stroke-width:1px;" />
<line x1="143.0" y1="255.0" x2="143.0" y2="279.0" style="stroke:black; stroke-width:1px;" />
<line x1="153.75" y1="131.0" x2="180.75" y2="155.0" style="stroke:black; stroke-width:1px;" />
<line x1="143.0" y1="69.0" x2="193.25" y2="93.0" style="stroke:black; stroke-width:1px;" />
<rect x="49.75" y="93.0" width="32.0" height="14.0" style="fill:orange; stroke:rgb(0,0,0);" rx="1"/>
<text x="51" y="102" style="font-family:sans-serif;font-size:10px;">
main
</text>
<rect x="125.75" y="124.0" width="56.0" height="14.0" style="fill:orange; stroke:rgb(0,0,0);" rx="1"/>
<text x="127" y="133" style="font-family:sans-serif;font-size:10px;">
comando
</text>
<rect x="66.75" y="217.0" width="120.0" height="14.0" style="fill:orange; stroke:rgb(0,0,0);" rx="1"/>
<text x="68" y="226" style="font-family:sans-serif;font-size:10px;">
erro_var_declaracao
</text>
<rect x="0.0" y="62.0" width="88.0" height="14.0" style="fill:orange; stroke:rgb(0,0,0);" rx="1"/>
<text x="2" y="71" style="font-family:sans-serif;font-size:10px;">
nomedafuncao
</text>
<rect x="76.5" y="31.0" width="34.0" height="14.0" style="fill:orange; stroke:rgb(0,0,0);" rx="1"/>
<text x="78" y="40" style="font-family:sans-serif;font-size:10px;">
bloco
</text>
<rect x="118.75" y="93.0" width="8.0" height="14.0" style="fill:orange; stroke:rgb(0,0,0);" rx="1"/>
<text x="120" y="102" style="font-family:sans-serif;font-size:10px;">
:
</text>
<rect x="125.5" y="279.0" width="35.0" height="14.0" style="fill:orange; stroke:rgb(0,0,0);" rx="1"/>
<text x="127" y="288" style="font-family:sans-serif;font-size:10px;">
idade
</text>
<rect x="77.0" y="0.0" width="33.0" height="14.0" style="fill:orange; stroke:rgb(0,0,0);" rx="1"/>
<text x="79" y="9" style="font-family:sans-serif;font-size:10px;">
inicio
</text>
<rect x="8.75" y="124.0" width="27.0" height="14.0" style="fill:orange; stroke:rgb(0,0,0);" rx="1"/>
<text x="10" y="133" style="font-family:sans-serif;font-size:10px;">
void
</text>
<rect x="133.75" y="93.0" width="40.0" height="14.0" style="fill:orange; stroke:rgb(0,0,0);" rx="1"/>
<text x="135" y="102" style="font-family:sans-serif;font-size:10px;">
trecho
</text>
<rect x="180.75" y="93.0" width="25.0" height="14.0" style="fill:orange; stroke:rgb(0,0,0);" rx="1"/>
<text x="182" y="102" style="font-family:sans-serif;font-size:10px;">
end
</text>
<rect x="132.0" y="248.0" width="22.0" height="14.0" style="fill:orange; stroke:rgb(0,0,0);" rx="1"/>
<text x="134" y="257" style="font-family:sans-serif;font-size:10px;">
var
</text>
<rect x="68.75" y="186.0" width="116.0" height="14.0" style="fill:orange; stroke:rgb(0,0,0);" rx="1"/>
<text x="70" y="195" style="font-family:sans-serif;font-size:10px;">
comandoexpressao
</text>
<rect x="103.75" y="93.0" width="8.0" height="14.0" style="fill:orange; stroke:rgb(0,0,0);" rx="1"/>
<text x="105" y="102" style="font-family:sans-serif;font-size:10px;">
)
</text>
<rect x="99.0" y="62.0" width="88.0" height="14.0" style="fill:orange; stroke:rgb(0,0,0);" rx="1"/>
<text x="101" y="71" style="font-family:sans-serif;font-size:10px;">
corpodafuncao
</text>
<rect x="176.75" y="155.0" width="8.0" height="14.0" style="fill:orange; stroke:rgb(0,0,0);" rx="1"/>
<text x="178" y="164" style="font-family:sans-serif;font-size:10px;">
;
</text>
<rect x="96.0" y="248.0" width="29.0" height="14.0" style="fill:orange; stroke:rgb(0,0,0);" rx="1"/>
<text x="98" y="257" style="font-family:sans-serif;font-size:10px;">
auto
</text>
<rect x="88.75" y="93.0" width="8.0" height="14.0" style="fill:orange; stroke:rgb(0,0,0);" rx="1"/>
<text x="90" y="102" style="font-family:sans-serif;font-size:10px;">
(
</text>
<rect x="83.75" y="155.0" width="86.0" height="14.0" style="fill:orange; stroke:rgb(0,0,0);" rx="1"/>
<text x="85" y="164" style="font-family:sans-serif;font-size:10px;">
comandounico
</text>
<rect x="1.75" y="93.0" width="41.0" height="14.0" style="fill:orange; stroke:rgb(0,0,0);" rx="1"/>
<text x="3" y="102" style="font-family:sans-serif;font-size:10px;">
tiporet
</text>
</svg>