<svg width="2011.9" height="701.8000000000001" xmlns="http://www.w3.org/2000/svg" xmlns:xlink="http://www.w3.org/1999/xlink"><line x1="573.5" y1="7.0" x2="333.25" y2="31.0" style="stroke:black; stroke-width:1px;" />
<line x1="333.25" y1="38.0" x2="18.5" y2="62.0" style="stroke:black; stroke-width:1px;" />
<line x1="333.25" y1="38.0" x2="67.0" y2="62.0" style="stroke:black; stroke-width:1px;" />
<line x1="333.25" y1="38.0" x2="102.5" y2="62.0" style="stroke:black; stroke-width:1px;" />
<line x1="333.25" y1="38.0" x2="136.5" y2="62.0" style="stroke:black; stroke-width:1px;" />
<line x1="136.5" y1="69.0" x2="136.5" y2="93.0" style="stroke:black; stroke-width:1px;" />
<line x1="333.25" y1="38.0" x2="183.0" y2="62.0" style="stroke:black; stroke-width:1px;" />
<line x1="333.25" y1="38.0" x2="212.0" y2="62.0" style="stroke:black; stroke-width:1px;" />
<line x1="333.25" y1="38.0" x2="244.5" y2="62.0" style="stroke:black; stroke-width:1px;" />
<line x1="244.5" y1="69.0" x2="244.5" y2="93.0" style="stroke:black; stroke-width:1px;" />
<line x1="333.25" y1="38.0" x2="290.5" y2="62.0" style="stroke:black; stroke-width:1px;" />
<line x1="333.25" y1="38.0" x2="319.0" y2="62.0" style="stroke:black; stroke-width:1px;" />
<line x1="333.25" y1="38.0" x2="351.5" y2="62.0" style="stroke:black; stroke-width:1px;" />
<line x1="351.5" y1="69.0" x2="351.5" y2="93.0" style="stroke:black; stroke-width:1px;" />
<line x1="333.25" y1="38.0" x2="396.0" y2="62.0" style="stroke:black; stroke-width:1px;" />
<line x1="333.25" y1="38.0" x2="423.0" y2="62.0" style="stroke:black; stroke-width:1px;" />
<line x1="333.25" y1="38.0" x2="451.0" y2="62.0" style="stroke:black; stroke-width:1px;" />
<line x1="333.25" y1="38.0" x2="496.5" y2="62.0" style="stroke:black; stroke-width:1px;" />
<line x1="496.5" y1="69.0" x2="496.5" y2="93.0" style="stroke:black; stroke-width:1px;" />
<line x1="333.25" y1="38.0" x2="548.0" y2="62.0" style="stroke:black; stroke-width:1px;" />
<line x1="333.25" y1="38.0" x2="582.0" y2="62.0" style="stroke:black; stroke-width:1px;" />
<line x1="333.25" y1="38.0" x2="598.5" y2="62.0" style="stroke:black; stroke-width:1px;" />
<line x1="333.25" y1="38.0" x2="615.0" y2="62.0" style="stroke:black; stroke-width:1px;" />
<line x1="333.25" y1="38.0" x2="631.5" y2="62.0" style="stroke:black; stroke-width:1px;" />
<line x1="333.25" y1="38.0" x2="648.0" y2="62.0" style="stroke:black; stroke-width:1px;" />
<line x1="573.5" y1="7.0" x2="813.75" y2="31.0" style="stroke:black; stroke-width:1px;" />
<line x1="813.75" y1="38.0" x2="703.0" y2="62.0" style="stroke:black; stroke-width:1px;" />
<line x1="703.0" y1="69.0" x2="681.25" y2="93.0" style="stroke:black; stroke-width:1px;" />
<line x1="681.25" y1="100.0" x2="681.25" y2="124.0" style="stroke:black; stroke-width:1px;" />
<line x1="703.0" y1="69.0" x2="724.75" y2="93.0" style="stroke:black; stroke-width:1px;" />
<line x1="813.75" y1="38.0" x2="924.5" y2="62.0" style="stroke:black; stroke-width:1px;" />
<line x1="924.5" y1="69.0" x2="874.25" y2="93.0" style="stroke:black; stroke-width:1px;" />
<line x1="924.5" y1="69.0" x2="889.25" y2="93.0" style="stroke:black; stroke-width:1px;" />
<line x1="924.5" y1="69.0" x2="904.25" y2="93.0" style="stroke:black; stroke-width:1px;" />
<line x1="924.5" y1="69.0" x2="935.25" y2="93.0" style="stroke:black; stroke-width:1px;" />
<line x1="935.25" y1="100.0" x2="729.75" y2="124.0" style="stroke:black; stroke-width:1px;" />
<line x1="729.75" y1="131.0" x2="702.75" y2="155.0" style="stroke:black; stroke-width:1px;" />
<line x1="702.75" y1="162.0" x2="702.75" y2="186.0" style="stroke:black; stroke-width:1px;" />
<line x1="702.75" y1="193.0" x2="640.25" y2="217.0" style="stroke:black; stroke-width:1px;" />
<line x1="640.25" y1="224.0" x2="640.25" y2="248.0" style="stroke:black; stroke-width:1px;" />
<line x1="702.75" y1="193.0" x2="693.25" y2="217.0" style="stroke:black; stroke-width:1px;" />
<line x1="693.25" y1="224.0" x2="693.25" y2="248.0" style="stroke:black; stroke-width:1px;" />
<line x1="702.75" y1="193.0" x2="728.75" y2="217.0" style="stroke:black; stroke-width:1px;" />
<line x1="702.75" y1="193.0" x2="765.25" y2="217.0" style="stroke:black; stroke-width:1px;" />
<line x1="765.25" y1="224.0" x2="728.75" y2="248.0" style="stroke:black; stroke-width:1px;" />
<line x1="765.25" y1="224.0" x2="765.25" y2="248.0" style="stroke:black; stroke-width:1px;" />
<line x1="765.25" y1="255.0" x2="689.25" y2="279.0" style="stroke:black; stroke-width:1px;" />
<line x1="689.25" y1="286.0" x2="689.25" y2="310.0" style="stroke:black; stroke-width:1px;" />
<line x1="689.25" y1="317.0" x2="689.25" y2="341.0" style="stroke:black; stroke-width:1px;" />
<line x1="765.25" y1="255.0" x2="715.75" y2="279.0" style="stroke:black; stroke-width:1px;" />
<line x1="765.25" y1="255.0" x2="742.25" y2="279.0" style="stroke:black; stroke-width:1px;" />
<line x1="742.25" y1="286.0" x2="742.25" y2="310.0" style="stroke:black; stroke-width:1px;" />
<line x1="742.25" y1="317.0" x2="742.25" y2="341.0" style="stroke:black; stroke-width:1px;" />
<line x1="765.25" y1="255.0" x2="768.75" y2="279.0" style="stroke:black; stroke-width:1px;" />
<line x1="765.25" y1="255.0" x2="795.25" y2="279.0" style="stroke:black; stroke-width:1px;" />
<line x1="795.25" y1="286.0" x2="795.25" y2="310.0" style="stroke:black; stroke-width:1px;" />
<line x1="795.25" y1="317.0" x2="795.25" y2="341.0" style="stroke:black; stroke-width:1px;" />
<line x1="765.25" y1="255.0" x2="818.25" y2="279.0" style="stroke:black; stroke-width:1px;" />
<line x1="765.25" y1="255.0" x2="841.25" y2="279.0" style="stroke:black; stroke-width:1px;" />
<line x1="841.25" y1="286.0" x2="832.25" y2="310.0" style="stroke:black; stroke-width:1px;" />
<line x1="841.25" y1="286.0" x2="850.25" y2="310.0" style="stroke:black; stroke-width:1px;" />
<line x1="765.25" y1="224.0" x2="801.75" y2="248.0" style="stroke:black; stroke-width:1px;" />
<line x1="729.75" y1="131.0" x2="756.75" y2="155.0" style="stroke:black; stroke-width:1px;" />
<line x1="935.25" y1="100.0" x2="926.75" y2="124.0" style="stroke:black; stroke-width:1px;" />
<line x1="926.75" y1="131.0" x2="899.75" y2="155.0" style="stroke:black; stroke-width:1px;" />
<line x1="899.75" y1="162.0" x2="899.75" y2="186.0" style="stroke:black; stroke-width:1px;" />
<line x1="899.75" y1="193.0" x2="837.25" y2="217.0" style="stroke:black; stroke-width:1px;" />
<line x1="837.25" y1="224.0" x2="837.25" y2="248.0" style="stroke:black; stroke-width:1px;" />
<line x1="899.75" y1="193.0" x2="890.25" y2="217.0" style="stroke:black; stroke-width:1px;" />
<line x1="890.25" y1="224.0" x2="890.25" y2="248.0" style="stroke:black; stroke-width:1px;" />
<line x1="899.75" y1="193.0" x2="925.75" y2="217.0" style="stroke:black; stroke-width:1px;" />
<line x1="899.75" y1="193.0" x2="962.25" y2="217.0" style="stroke:black; stroke-width:1px;" />
<line x1="962.25" y1="224.0" x2="925.75" y2="248.0" style="stroke:black; stroke-width:1px;" />
<line x1="962.25" y1="224.0" x2="962.25" y2="248.0" style="stroke:black; stroke-width:1px;" />
<line x1="962.25" y1="255.0" x2="886.25" y2="279.0" style="stroke:black; stroke-width:1px;" />
<line x1="886.25" y1="286.0" x2="886.25" y2="310.0" style="stroke:black; stroke-width:1px;" />
<line x1="886.25" y1="317.0" x2="886.25" y2="341.0" style="stroke:black; stroke-width:1px;" />
<line x1="962.25" y1="255.0" x2="912.75" y2="279.0" style="stroke:black; stroke-width:1px;" />
<line x1="962.25" y1="255.0" x2="939.25" y2="279.0" style="stroke:black; stroke-width:1px;" />
<line x1="939.25" y1="286.0" x2="939.25" y2="310.0" style="stroke:black; stroke-width:1px;" />
<line x1="939.25" y1="317.0" x2="939.25" y2="341.0" style="stroke:black; stroke-width:1px;" />
<line x1="962.25" y1="255.0" x2="965.75" y2="279.0" style="stroke:black; stroke-width:1px;" />
<line x1="962.25" y1="255.0" x2="992.25" y2="279.0" style="stroke:black; stroke-width:1px;" />
<line x1="992.25" y1="286.0" x2="992.25" y2="310.0" style="stroke:black; stroke-width:1px;" />
<line x1="992.25" y1="317.0" x2="992.25" y2="341.0" style="stroke:black; stroke-width:1px;" />
<line x1="962.25" y1="255.0" x2="1015.25" y2="279.0" style="stroke:black; stroke-width:1px;" />
<line x1="962.25" y1="255.0" x2="1038.25" y2="279.0" style="stroke:black; stroke-width:1px;" />
<line x1="1038.25" y1="286.0" x2="1029.25" y2="310.0" style="stroke:black; stroke-width:1px;" />
<line x1="1038.25" y1="286.0" x2="1047.25" y2="310.0" style="stroke:black; stroke-width:1px;" />
<line x1="962.25" y1="224.0" x2="998.75" y2="248.0" style="stroke:black; stroke-width:1px;" />
<line x1="926.75" y1="131.0" x2="953.75" y2="155.0" style="stroke:black; stroke-width:1px;" />
<line x1="935.25" y1="100.0" x2="1140.75" y2="124.0" style="stroke:black; stroke-width:1px;" />
<line x1="1140.75" y1="131.0" x2="1113.75" y2="155.0" style="stroke:black; stroke-width:1px;" />
<line x1="1113.75" y1="162.0" x2="1113.75" y2="186.0" style="stroke:black; stroke-width:1px;" />
<line x1="1113.75" y1="193.0" x2="1055.75" y2="217.0" style="stroke:black; stroke-width:1px;" />
<line x1="1055.75" y1="224.0" x2="1055.75" y2="248.0" style="stroke:black; stroke-width:1px;" />
<line x1="1113.75" y1="193.0" x2="1104.25" y2="217.0" style="stroke:black; stroke-width:1px;" />
<line x1="1104.25" y1="224.0" x2="1104.25" y2="248.0" style="stroke:black; stroke-width:1px;" />
<line x1="1113.75" y1="193.0" x2="1137.5" y2="217.0" style="stroke:black; stroke-width:1px;" />
<line x1="1113.75" y1="193.0" x2="1171.75" y2="217.0" style="stroke:black; stroke-width:1px;" />
<line x1="1171.75" y1="224.0" x2="1135.25" y2="248.0" style="stroke:black; stroke-width:1px;" />
<line x1="1171.75" y1="224.0" x2="1171.75" y2="248.0" style="stroke:black; stroke-width:1px;" />
<line x1="1171.75" y1="255.0" x2="1082.75" y2="279.0" style="stroke:black; stroke-width:1px;" />
<line x1="1082.75" y1="286.0" x2="1082.75" y2="310.0" style="stroke:black; stroke-width:1px;" />
<line x1="1082.75" y1="317.0" x2="1082.75" y2="341.0" style="stroke:black; stroke-width:1px;" />
<line x1="1171.75" y1="255.0" x2="1109.25" y2="279.0" style="stroke:black; stroke-width:1px;" />
<line x1="1171.75" y1="255.0" x2="1135.75" y2="279.0" style="stroke:black; stroke-width:1px;" />
<line x1="1135.75" y1="286.0" x2="1135.75" y2="310.0" style="stroke:black; stroke-width:1px;" />
<line x1="1135.75" y1="317.0" x2="1135.75" y2="341.0" style="stroke:black; stroke-width:1px;" />
<line x1="1171.75" y1="255.0" x2="1162.25" y2="279.0" style="stroke:black; stroke-width:1px;" />
<line x1="1171.75" y1="255.0" x2="1188.75" y2="279.0" style="stroke:black; stroke-width:1px;" />
<line x1="1188.75" y1="286.0" x2="1188.75" y2="310.0" style="stroke:black; stroke-width:1px;" />
<line x1="1188.75" y1="317.0" x2="1188.75" y2="341.0" style="stroke:black; stroke-width:1px;" />
<line x1="1171.75" y1="255.0" x2="1224.75" y2="279.0" style="stroke:black; stroke-width:1px;" />
<line x1="1171.75" y1="255.0" x2="1260.75" y2="279.0" style="stroke:black; stroke-width:1px;" />
<line x1="1260.75" y1="286.0" x2="1224.25" y2="310.0" style="stroke:black; stroke-width:1px;" />
<line x1="1260.75" y1="286.0" x2="1260.75" y2="310.0" style="stroke:black; stroke-width:1px;" />
<line x1="1260.75" y1="317.0" x2="1225.75" y2="341.0" style="stroke:black; stroke-width:1px;" />
<line x1="1225.75" y1="348.0" x2="1225.75" y2="372.0" style="stroke:black; stroke-width:1px;" />
<line x1="1225.75" y1="379.0" x2="1225.75" y2="403.0" style="stroke:black; stroke-width:1px;" />
<line x1="1225.75" y1="410.0" x2="1225.75" y2="434.0" style="stroke:black; stroke-width:1px;" />
<line x1="1260.75" y1="317.0" x2="1260.75" y2="341.0" style="stroke:black; stroke-width:1px;" />
<line x1="1260.75" y1="317.0" x2="1295.75" y2="341.0" style="stroke:black; stroke-width:1px;" />
<line x1="1295.75" y1="348.0" x2="1295.75" y2="372.0" style="stroke:black; stroke-width:1px;" />
<line x1="1295.75" y1="379.0" x2="1295.75" y2="403.0" style="stroke:black; stroke-width:1px;" />
<line x1="1295.75" y1="410.0" x2="1295.75" y2="434.0" style="stroke:black; stroke-width:1px;" />
<line x1="1260.75" y1="286.0" x2="1297.25" y2="310.0" style="stroke:black; stroke-width:1px;" />
<line x1="1171.75" y1="224.0" x2="1208.25" y2="248.0" style="stroke:black; stroke-width:1px;" />
<line x1="1140.75" y1="131.0" x2="1167.75" y2="155.0" style="stroke:black; stroke-width:1px;" />
<line x1="924.5" y1="69.0" x2="974.75" y2="93.0" style="stroke:black; stroke-width:1px;" />
<rect x="1163.75" y="155.0" width="8.0" height="14.0" style="fill:orange; stroke:rgb(0,0,0);" rx="1"/>
<text x="1165" y="164" style="font-family:sans-serif;font-size:10px;">
;
</text>
<rect x="677.25" y="279.0" width="24.0" height="14.0" style="fill:orange; stroke:rgb(0,0,0);" rx="1"/>
<text x="679" y="288" style="font-family:sans-serif;font-size:10px;">
exp
</text>
<rect x="1220.75" y="279.0" width="8.0" height="14.0" style="fill:orange; stroke:rgb(0,0,0);" rx="1"/>
<text x="1222" y="288" style="font-family:sans-serif;font-size:10px;">
,
</text>
<rect x="764.75" y="279.0" width="8.0" height="14.0" style="fill:orange; stroke:rgb(0,0,0);" rx="1"/>
<text x="766" y="288" style="font-family:sans-serif;font-size:10px;">
,
</text>
<rect x="900.25" y="93.0" width="8.0" height="14.0" style="fill:orange; stroke:rgb(0,0,0);" rx="1"/>
<text x="902" y="102" style="font-family:sans-serif;font-size:10px;">
:
</text>
<rect x="682.25" y="217.0" width="22.0" height="14.0" style="fill:orange; stroke:rgb(0,0,0);" rx="1"/>
<text x="684" y="226" style="font-family:sans-serif;font-size:10px;">
var
</text>
<rect x="1041.75" y="310.0" width="11.0" height="14.0" style="fill:orange; stroke:rgb(0,0,0);" rx="1"/>
<text x="1043" y="319" style="font-family:sans-serif;font-size:10px;">
}
</text>
<rect x="1213.75" y="341.0" width="24.0" height="14.0" style="fill:orange; stroke:rgb(0,0,0);" rx="1"/>
<text x="1215" y="350" style="font-family:sans-serif;font-size:10px;">
exp
</text>
<rect x="434.0" y="62.0" width="34.0" height="14.0" style="fill:orange; stroke:rgb(0,0,0);" rx="1"/>
<text x="436" y="71" style="font-family:sans-serif;font-size:10px;">
array
</text>
<rect x="670.25" y="248.0" width="46.0" height="14.0" style="fill:orange; stroke:rgb(0,0,0);" rx="1"/>
<text x="672" y="257" style="font-family:sans-serif;font-size:10px;">
amigo1
</text>
<rect x="557.0" y="0.0" width="33.0" height="14.0" style="fill:orange; stroke:rgb(0,0,0);" rx="1"/>
<text x="559" y="9" style="font-family:sans-serif;font-size:10px;">
inicio
</text>
<rect x="722.25" y="217.0" width="13.0" height="14.0" style="fill:orange; stroke:rgb(0,0,0);" rx="1"/>
<text x="724" y="226" style="font-family:sans-serif;font-size:10px;">
=
</text>
<rect x="644.75" y="186.0" width="116.0" height="14.0" style="fill:orange; stroke:rgb(0,0,0);" rx="1"/>
<text x="646" y="195" style="font-family:sans-serif;font-size:10px;">
comandoexpressao
</text>
<rect x="879.25" y="217.0" width="22.0" height="14.0" style="fill:orange; stroke:rgb(0,0,0);" rx="1"/>
<text x="881" y="226" style="font-family:sans-serif;font-size:10px;">
var
</text>
<rect x="1131.0" y="217.0" width="13.0" height="14.0" style="fill:orange; stroke:rgb(0,0,0);" rx="1"/>
<text x="1133" y="226" style="font-family:sans-serif;font-size:10px;">
=
</text>
<rect x="950.25" y="217.0" width="24.0" height="14.0" style="fill:orange; stroke:rgb(0,0,0);" rx="1"/>
<text x="952" y="226" style="font-family:sans-serif;font-size:10px;">
exp
</text>
<rect x="1264.25" y="372.0" width="63.0" height="14.0" style="fill:orange; stroke:rgb(0,0,0);" rx="1"/>
<text x="1266" y="381" style="font-family:sans-serif;font-size:10px;">
expprefixo
</text>
<rect x="330.5" y="93.0" width="42.0" height="14.0" style="fill:orange; stroke:rgb(0,0,0);" rx="1"/>
<text x="332" y="102" style="font-family:sans-serif;font-size:10px;">
double
</text>
<rect x="1283.75" y="341.0" width="24.0" height="14.0" style="fill:orange; stroke:rgb(0,0,0);" rx="1"/>
<text x="1285" y="350" style="font-family:sans-serif;font-size:10px;">
exp
</text>
<rect x="920.25" y="248.0" width="11.0" height="14.0" style="fill:orange; stroke:rgb(0,0,0);" rx="1"/>
<text x="922" y="257" style="font-family:sans-serif;font-size:10px;">
{
</text>
<rect x="208.0" y="62.0" width="8.0" height="14.0" style="fill:orange; stroke:rgb(0,0,0);" rx="1"/>
<text x="210" y="71" style="font-family:sans-serif;font-size:10px;">
,
</text>
<rect x="701.75" y="124.0" width="56.0" height="14.0" style="fill:orange; stroke:rgb(0,0,0);" rx="1"/>
<text x="703" y="133" style="font-family:sans-serif;font-size:10px;">
comando
</text>
<rect x="708.75" y="93.0" width="32.0" height="14.0" style="fill:orange; stroke:rgb(0,0,0);" rx="1"/>
<text x="710" y="102" style="font-family:sans-serif;font-size:10px;">
main
</text>
<rect x="915.25" y="93.0" width="40.0" height="14.0" style="fill:orange; stroke:rgb(0,0,0);" rx="1"/>
<text x="917" y="102" style="font-family:sans-serif;font-size:10px;">
trecho
</text>
<rect x="1158.25" y="279.0" width="8.0" height="14.0" style="fill:orange; stroke:rgb(0,0,0);" rx="1"/>
<text x="1160" y="288" style="font-family:sans-serif;font-size:10px;">
,
</text>
<rect x="814.25" y="279.0" width="8.0" height="14.0" style="fill:orange; stroke:rgb(0,0,0);" rx="1"/>
<text x="816" y="288" style="font-family:sans-serif;font-size:10px;">
,
</text>
<rect x="1026.25" y="279.0" width="24.0" height="14.0" style="fill:orange; stroke:rgb(0,0,0);" rx="1"/>
<text x="1028" y="288" style="font-family:sans-serif;font-size:10px;">
exp
</text>
<rect x="1059.25" y="341.0" width="47.0" height="14.0" style="fill:orange; stroke:rgb(0,0,0);" rx="1"/>
<text x="1061" y="350" style="font-family:sans-serif;font-size:10px;">
"Pedro"
</text>
<rect x="1123.75" y="279.0" width="24.0" height="14.0" style="fill:orange; stroke:rgb(0,0,0);" rx="1"/>
<text x="1125" y="288" style="font-family:sans-serif;font-size:10px;">
exp
</text>
<rect x="578.0" y="62.0" width="8.0" height="14.0" style="fill:orange; stroke:rgb(0,0,0);" rx="1"/>
<text x="580" y="71" style="font-family:sans-serif;font-size:10px;">
[
</text>
<rect x="844.75" y="310.0" width="11.0" height="14.0" style="fill:orange; stroke:rgb(0,0,0);" rx="1"/>
<text x="846" y="319" style="font-family:sans-serif;font-size:10px;">
}
</text>
<rect x="593.0" y="62.0" width="11.0" height="14.0" style="fill:orange; stroke:rgb(0,0,0);" rx="1"/>
<text x="595" y="71" style="font-family:sans-serif;font-size:10px;">
2
</text>
<rect x="711.75" y="279.0" width="8.0" height="14.0" style="fill:orange; stroke:rgb(0,0,0);" rx="1"/>
<text x="713" y="288" style="font-family:sans-serif;font-size:10px;">
,
</text>
<rect x="856.75" y="155.0" width="86.0" height="14.0" style="fill:orange; stroke:rgb(0,0,0);" rx="1"/>
<text x="858" y="164" style="font-family:sans-serif;font-size:10px;">
comandounico
</text>
<rect x="741.25" y="248.0" width="48.0" height="14.0" style="fill:orange; stroke:rgb(0,0,0);" rx="1"/>
<text x="743" y="257" style="font-family:sans-serif;font-size:10px;">
listaexp
</text>
<rect x="949.75" y="155.0" width="8.0" height="14.0" style="fill:orange; stroke:rgb(0,0,0);" rx="1"/>
<text x="951" y="164" style="font-family:sans-serif;font-size:10px;">
;
</text>
<rect x="1147.75" y="248.0" width="48.0" height="14.0" style="fill:orange; stroke:rgb(0,0,0);" rx="1"/>
<text x="1149" y="257" style="font-family:sans-serif;font-size:10px;">
listaexp
</text>
<rect x="1023.75" y="310.0" width="11.0" height="14.0" style="fill:orange; stroke:rgb(0,0,0);" rx="1"/>
<text x="1025" y="319" style="font-family:sans-serif;font-size:10px;">
{
</text>
<rect x="618.75" y="217.0" width="43.0" height="14.0" style="fill:orange; stroke:rgb(0,0,0);" rx="1"/>
<text x="620" y="226" style="font-family:sans-serif;font-size:10px;">
tipovar
</text>
<rect x="1165.75" y="310.0" width="46.0" height="14.0" style="fill:orange; stroke:rgb(0,0,0);" rx="1"/>
<text x="1167" y="319" style="font-family:sans-serif;font-size:10px;">
valores
</text>
<rect x="1218.75" y="310.0" width="11.0" height="14.0" style="fill:orange; stroke:rgb(0,0,0);" rx="1"/>
<text x="1220" y="319" style="font-family:sans-serif;font-size:10px;">
{
</text>
<rect x="115.0" y="62.0" width="43.0" height="14.0" style="fill:orange; stroke:rgb(0,0,0);" rx="1"/>
<text x="117" y="71" style="font-family:sans-serif;font-size:10px;">
tipovar
</text>
<rect x="730.25" y="279.0" width="24.0" height="14.0" style="fill:orange; stroke:rgb(0,0,0);" rx="1"/>
<text x="732" y="288" style="font-family:sans-serif;font-size:10px;">
exp
</text>
<rect x="908.75" y="279.0" width="8.0" height="14.0" style="fill:orange; stroke:rgb(0,0,0);" rx="1"/>
<text x="910" y="288" style="font-family:sans-serif;font-size:10px;">
,
</text>
<rect x="962.25" y="93.0" width="25.0" height="14.0" style="fill:orange; stroke:rgb(0,0,0);" rx="1"/>
<text x="964" y="102" style="font-family:sans-serif;font-size:10px;">
end
</text>
<rect x="938.25" y="248.0" width="48.0" height="14.0" style="fill:orange; stroke:rgb(0,0,0);" rx="1"/>
<text x="940" y="257" style="font-family:sans-serif;font-size:10px;">
listaexp
</text>
<rect x="660.75" y="93.0" width="41.0" height="14.0" style="fill:orange; stroke:rgb(0,0,0);" rx="1"/>
<text x="662" y="102" style="font-family:sans-serif;font-size:10px;">
tiporet
</text>
<rect x="969.25" y="310.0" width="46.0" height="14.0" style="fill:orange; stroke:rgb(0,0,0);" rx="1"/>
<text x="971" y="319" style="font-family:sans-serif;font-size:10px;">
valores
</text>
<rect x="1202.75" y="248.0" width="11.0" height="14.0" style="fill:orange; stroke:rgb(0,0,0);" rx="1"/>
<text x="1204" y="257" style="font-family:sans-serif;font-size:10px;">
}
</text>
<rect x="644.0" y="62.0" width="8.0" height="14.0" style="fill:orange; stroke:rgb(0,0,0);" rx="1"/>
<text x="646" y="71" style="font-family:sans-serif;font-size:10px;">
;
</text>
<rect x="1070.75" y="155.0" width="86.0" height="14.0" style="fill:orange; stroke:rgb(0,0,0);" rx="1"/>
<text x="1072" y="164" style="font-family:sans-serif;font-size:10px;">
comandounico
</text>
<rect x="1059.75" y="310.0" width="46.0" height="14.0" style="fill:orange; stroke:rgb(0,0,0);" rx="1"/>
<text x="1061" y="319" style="font-family:sans-serif;font-size:10px;">
valores
</text>
<rect x="815.75" y="217.0" width="43.0" height="14.0" style="fill:orange; stroke:rgb(0,0,0);" rx="1"/>
<text x="817" y="226" style="font-family:sans-serif;font-size:10px;">
tipovar
</text>
<rect x="611.0" y="62.0" width="8.0" height="14.0" style="fill:orange; stroke:rgb(0,0,0);" rx="1"/>
<text x="613" y="71" style="font-family:sans-serif;font-size:10px;">
]
</text>
<rect x="783.25" y="279.0" width="24.0" height="14.0" style="fill:orange; stroke:rgb(0,0,0);" rx="1"/>
<text x="785" y="288" style="font-family:sans-serif;font-size:10px;">
exp
</text>
<rect x="118.0" y="93.0" width="37.0" height="14.0" style="fill:orange; stroke:rgb(0,0,0);" rx="1"/>
<text x="120" y="102" style="font-family:sans-serif;font-size:10px;">
string
</text>
<rect x="1105.25" y="279.0" width="8.0" height="14.0" style="fill:orange; stroke:rgb(0,0,0);" rx="1"/>
<text x="1107" y="288" style="font-family:sans-serif;font-size:10px;">
,
</text>
<rect x="719.25" y="310.0" width="46.0" height="14.0" style="fill:orange; stroke:rgb(0,0,0);" rx="1"/>
<text x="721" y="319" style="font-family:sans-serif;font-size:10px;">
valores
</text>
<rect x="1032.75" y="248.0" width="46.0" height="14.0" style="fill:orange; stroke:rgb(0,0,0);" rx="1"/>
<text x="1034" y="257" style="font-family:sans-serif;font-size:10px;">
Pessoa
</text>
<rect x="223.0" y="62.0" width="43.0" height="14.0" style="fill:orange; stroke:rgb(0,0,0);" rx="1"/>
<text x="225" y="71" style="font-family:sans-serif;font-size:10px;">
tipovar
</text>
<rect x="863.25" y="341.0" width="46.0" height="14.0" style="fill:orange; stroke:rgb(0,0,0);" rx="1"/>
<text x="865" y="350" style="font-family:sans-serif;font-size:10px;">
"Giulio"
</text>
<rect x="927.25" y="279.0" width="24.0" height="14.0" style="fill:orange; stroke:rgb(0,0,0);" rx="1"/>
<text x="929" y="288" style="font-family:sans-serif;font-size:10px;">
exp
</text>
<rect x="419.0" y="62.0" width="8.0" height="14.0" style="fill:orange; stroke:rgb(0,0,0);" rx="1"/>
<text x="421" y="71" style="font-family:sans-serif;font-size:10px;">
,
</text>
<rect x="1129.75" y="248.0" width="11.0" height="14.0" style="fill:orange; stroke:rgb(0,0,0);" rx="1"/>
<text x="1131" y="257" style="font-family:sans-serif;font-size:10px;">
{
</text>
<rect x="659.75" y="155.0" width="86.0" height="14.0" style="fill:orange; stroke:rgb(0,0,0);" rx="1"/>
<text x="661" y="164" style="font-family:sans-serif;font-size:10px;">
comandounico
</text>
<rect x="723.25" y="248.0" width="11.0" height="14.0" style="fill:orange; stroke:rgb(0,0,0);" rx="1"/>
<text x="725" y="257" style="font-family:sans-serif;font-size:10px;">
{
</text>
<rect x="1176.75" y="279.0" width="24.0" height="14.0" style="fill:orange; stroke:rgb(0,0,0);" rx="1"/>
<text x="1178" y="288" style="font-family:sans-serif;font-size:10px;">
exp
</text>
<rect x="660.75" y="341.0" width="57.0" height="14.0" style="fill:orange; stroke:rgb(0,0,0);" rx="1"/>
<text x="662" y="350" style="font-family:sans-serif;font-size:10px;">
"Adriano"
</text>
<rect x="1214.75" y="403.0" width="22.0" height="14.0" style="fill:orange; stroke:rgb(0,0,0);" rx="1"/>
<text x="1216" y="412" style="font-family:sans-serif;font-size:10px;">
var
</text>
<rect x="885.25" y="93.0" width="8.0" height="14.0" style="fill:orange; stroke:rgb(0,0,0);" rx="1"/>
<text x="887" y="102" style="font-family:sans-serif;font-size:10px;">
)
</text>
<rect x="1112.75" y="124.0" width="56.0" height="14.0" style="fill:orange; stroke:rgb(0,0,0);" rx="1"/>
<text x="1114" y="133" style="font-family:sans-serif;font-size:10px;">
comando
</text>
<rect x="165.0" y="62.0" width="36.0" height="14.0" style="fill:orange; stroke:rgb(0,0,0);" rx="1"/>
<text x="167" y="71" style="font-family:sans-serif;font-size:10px;">
nome
</text>
<rect x="919.25" y="217.0" width="13.0" height="14.0" style="fill:orange; stroke:rgb(0,0,0);" rx="1"/>
<text x="921" y="226" style="font-family:sans-serif;font-size:10px;">
=
</text>
<rect x="863.25" y="310.0" width="46.0" height="14.0" style="fill:orange; stroke:rgb(0,0,0);" rx="1"/>
<text x="865" y="319" style="font-family:sans-serif;font-size:10px;">
valores
</text>
<rect x="0.0" y="62.0" width="37.0" height="14.0" style="fill:orange; stroke:rgb(0,0,0);" rx="1"/>
<text x="2" y="71" style="font-family:sans-serif;font-size:10px;">
struct
</text>
<rect x="867.25" y="248.0" width="46.0" height="14.0" style="fill:orange; stroke:rgb(0,0,0);" rx="1"/>
<text x="869" y="257" style="font-family:sans-serif;font-size:10px;">
amigo2
</text>
<rect x="235.5" y="93.0" width="18.0" height="14.0" style="fill:orange; stroke:rgb(0,0,0);" rx="1"/>
<text x="237" y="102" style="font-family:sans-serif;font-size:10px;">
int
</text>
<rect x="980.25" y="279.0" width="24.0" height="14.0" style="fill:orange; stroke:rgb(0,0,0);" rx="1"/>
<text x="982" y="288" style="font-family:sans-serif;font-size:10px;">
exp
</text>
<rect x="752.75" y="155.0" width="8.0" height="14.0" style="fill:orange; stroke:rgb(0,0,0);" rx="1"/>
<text x="754" y="164" style="font-family:sans-serif;font-size:10px;">
;
</text>
<rect x="1284.75" y="403.0" width="22.0" height="14.0" style="fill:orange; stroke:rgb(0,0,0);" rx="1"/>
<text x="1286" y="412" style="font-family:sans-serif;font-size:10px;">
var
</text>
<rect x="626.0" y="62.0" width="11.0" height="14.0" style="fill:orange; stroke:rgb(0,0,0);" rx="1"/>
<text x="628" y="71" style="font-family:sans-serif;font-size:10px;">
}
</text>
<rect x="898.75" y="124.0" width="56.0" height="14.0" style="fill:orange; stroke:rgb(0,0,0);" rx="1"/>
<text x="900" y="133" style="font-family:sans-serif;font-size:10px;">
comando
</text>
<rect x="617.25" y="248.0" width="46.0" height="14.0" style="fill:orange; stroke:rgb(0,0,0);" rx="1"/>
<text x="619" y="257" style="font-family:sans-serif;font-size:10px;">
Pessoa
</text>
<rect x="733.25" y="341.0" width="18.0" height="14.0" style="fill:orange; stroke:rgb(0,0,0);" rx="1"/>
<text x="735" y="350" style="font-family:sans-serif;font-size:10px;">
23
</text>
<rect x="796.75" y="31.0" width="34.0" height="14.0" style="fill:orange; stroke:rgb(0,0,0);" rx="1"/>
<text x="798" y="40" style="font-family:sans-serif;font-size:10px;">
bloco
</text>
<rect x="1194.25" y="372.0" width="63.0" height="14.0" style="fill:orange; stroke:rgb(0,0,0);" rx="1"/>
<text x="1196" y="381" style="font-family:sans-serif;font-size:10px;">
expprefixo
</text>
<rect x="667.75" y="124.0" width="27.0" height="14.0" style="fill:orange; stroke:rgb(0,0,0);" rx="1"/>
<text x="669" y="133" style="font-family:sans-serif;font-size:10px;">
void
</text>
<rect x="870.25" y="93.0" width="8.0" height="14.0" style="fill:orange; stroke:rgb(0,0,0);" rx="1"/>
<text x="872" y="102" style="font-family:sans-serif;font-size:10px;">
(
</text>
<rect x="880.5" y="62.0" width="88.0" height="14.0" style="fill:orange; stroke:rgb(0,0,0);" rx="1"/>
<text x="882" y="71" style="font-family:sans-serif;font-size:10px;">
corpodafuncao
</text>
<rect x="930.25" y="341.0" width="18.0" height="14.0" style="fill:orange; stroke:rgb(0,0,0);" rx="1"/>
<text x="932" y="350" style="font-family:sans-serif;font-size:10px;">
23
</text>
<rect x="315.0" y="62.0" width="8.0" height="14.0" style="fill:orange; stroke:rgb(0,0,0);" rx="1"/>
<text x="317" y="71" style="font-family:sans-serif;font-size:10px;">
,
</text>
<rect x="1159.75" y="217.0" width="24.0" height="14.0" style="fill:orange; stroke:rgb(0,0,0);" rx="1"/>
<text x="1161" y="226" style="font-family:sans-serif;font-size:10px;">
exp
</text>
<rect x="981.25" y="341.0" width="22.0" height="14.0" style="fill:orange; stroke:rgb(0,0,0);" rx="1"/>
<text x="983" y="350" style="font-family:sans-serif;font-size:10px;">
2.1
</text>
<rect x="1011.25" y="279.0" width="8.0" height="14.0" style="fill:orange; stroke:rgb(0,0,0);" rx="1"/>
<text x="1013" y="288" style="font-family:sans-serif;font-size:10px;">
,
</text>
<rect x="273.0" y="62.0" width="35.0" height="14.0" style="fill:orange; stroke:rgb(0,0,0);" rx="1"/>
<text x="275" y="71" style="font-family:sans-serif;font-size:10px;">
idade
</text>
<rect x="961.75" y="279.0" width="8.0" height="14.0" style="fill:orange; stroke:rgb(0,0,0);" rx="1"/>
<text x="963" y="288" style="font-family:sans-serif;font-size:10px;">
,
</text>
<rect x="330.0" y="62.0" width="43.0" height="14.0" style="fill:orange; stroke:rgb(0,0,0);" rx="1"/>
<text x="332" y="71" style="font-family:sans-serif;font-size:10px;">
tipovar
</text>
<rect x="1034.25" y="217.0" width="43.0" height="14.0" style="fill:orange; stroke:rgb(0,0,0);" rx="1"/>
<text x="1036" y="226" style="font-family:sans-serif;font-size:10px;">
tipovar
</text>
<rect x="1085.75" y="248.0" width="37.0" height="14.0" style="fill:orange; stroke:rgb(0,0,0);" rx="1"/>
<text x="1087" y="257" style="font-family:sans-serif;font-size:10px;">
pedro
</text>
<rect x="1093.25" y="217.0" width="22.0" height="14.0" style="fill:orange; stroke:rgb(0,0,0);" rx="1"/>
<text x="1095" y="226" style="font-family:sans-serif;font-size:10px;">
var
</text>
<rect x="44.0" y="62.0" width="46.0" height="14.0" style="fill:orange; stroke:rgb(0,0,0);" rx="1"/>
<text x="46" y="71" style="font-family:sans-serif;font-size:10px;">
Pessoa
</text>
<rect x="659.0" y="62.0" width="88.0" height="14.0" style="fill:orange; stroke:rgb(0,0,0);" rx="1"/>
<text x="661" y="71" style="font-family:sans-serif;font-size:10px;">
nomedafuncao
</text>
<rect x="316.25" y="31.0" width="34.0" height="14.0" style="fill:orange; stroke:rgb(0,0,0);" rx="1"/>
<text x="318" y="40" style="font-family:sans-serif;font-size:10px;">
bloco
</text>
<rect x="1070.75" y="279.0" width="24.0" height="14.0" style="fill:orange; stroke:rgb(0,0,0);" rx="1"/>
<text x="1072" y="288" style="font-family:sans-serif;font-size:10px;">
exp
</text>
<rect x="1202.75" y="434.0" width="46.0" height="14.0" style="fill:orange; stroke:rgb(0,0,0);" rx="1"/>
<text x="1204" y="443" style="font-family:sans-serif;font-size:10px;">
amigo1
</text>
<rect x="1126.75" y="341.0" width="18.0" height="14.0" style="fill:orange; stroke:rgb(0,0,0);" rx="1"/>
<text x="1128" y="350" style="font-family:sans-serif;font-size:10px;">
24
</text>
<rect x="473.5" y="93.0" width="46.0" height="14.0" style="fill:orange; stroke:rgb(0,0,0);" rx="1"/>
<text x="475" y="102" style="font-family:sans-serif;font-size:10px;">
Pessoa
</text>
<rect x="841.75" y="186.0" width="116.0" height="14.0" style="fill:orange; stroke:rgb(0,0,0);" rx="1"/>
<text x="843" y="195" style="font-family:sans-serif;font-size:10px;">
comandoexpressao
</text>
<rect x="829.25" y="279.0" width="24.0" height="14.0" style="fill:orange; stroke:rgb(0,0,0);" rx="1"/>
<text x="831" y="288" style="font-family:sans-serif;font-size:10px;">
exp
</text>
<rect x="814.25" y="248.0" width="46.0" height="14.0" style="fill:orange; stroke:rgb(0,0,0);" rx="1"/>
<text x="816" y="257" style="font-family:sans-serif;font-size:10px;">
Pessoa
</text>
<rect x="1291.75" y="310.0" width="11.0" height="14.0" style="fill:orange; stroke:rgb(0,0,0);" rx="1"/>
<text x="1293" y="319" style="font-family:sans-serif;font-size:10px;">
}
</text>
<rect x="1236.75" y="310.0" width="48.0" height="14.0" style="fill:orange; stroke:rgb(0,0,0);" rx="1"/>
<text x="1238" y="319" style="font-family:sans-serif;font-size:10px;">
listaexp
</text>
<rect x="784.25" y="341.0" width="22.0" height="14.0" style="fill:orange; stroke:rgb(0,0,0);" rx="1"/>
<text x="786" y="350" style="font-family:sans-serif;font-size:10px;">
2.1
</text>
<rect x="826.75" y="310.0" width="11.0" height="14.0" style="fill:orange; stroke:rgb(0,0,0);" rx="1"/>
<text x="828" y="319" style="font-family:sans-serif;font-size:10px;">
{
</text>
<rect x="753.25" y="217.0" width="24.0" height="14.0" style="fill:orange; stroke:rgb(0,0,0);" rx="1"/>
<text x="755" y="226" style="font-family:sans-serif;font-size:10px;">
exp
</text>
<rect x="97.0" y="62.0" width="11.0" height="14.0" style="fill:orange; stroke:rgb(0,0,0);" rx="1"/>
<text x="99" y="71" style="font-family:sans-serif;font-size:10px;">
{
</text>
<rect x="475.0" y="62.0" width="43.0" height="14.0" style="fill:orange; stroke:rgb(0,0,0);" rx="1"/>
<text x="477" y="71" style="font-family:sans-serif;font-size:10px;">
tipovar
</text>
<rect x="1112.75" y="310.0" width="46.0" height="14.0" style="fill:orange; stroke:rgb(0,0,0);" rx="1"/>
<text x="1114" y="319" style="font-family:sans-serif;font-size:10px;">
valores
</text>
<rect x="666.25" y="310.0" width="46.0" height="14.0" style="fill:orange; stroke:rgb(0,0,0);" rx="1"/>
<text x="668" y="319" style="font-family:sans-serif;font-size:10px;">
valores
</text>
<rect x="772.25" y="310.0" width="46.0" height="14.0" style="fill:orange; stroke:rgb(0,0,0);" rx="1"/>
<text x="774" y="319" style="font-family:sans-serif;font-size:10px;">
valores
</text>
<rect x="796.25" y="248.0" width="11.0" height="14.0" style="fill:orange; stroke:rgb(0,0,0);" rx="1"/>
<text x="798" y="257" style="font-family:sans-serif;font-size:10px;">
}
</text>
<rect x="1256.75" y="341.0" width="8.0" height="14.0" style="fill:orange; stroke:rgb(0,0,0);" rx="1"/>
<text x="1258" y="350" style="font-family:sans-serif;font-size:10px;">
,
</text>
<rect x="1177.75" y="341.0" width="22.0" height="14.0" style="fill:orange; stroke:rgb(0,0,0);" rx="1"/>
<text x="1179" y="350" style="font-family:sans-serif;font-size:10px;">
3.2
</text>
<rect x="1248.75" y="279.0" width="24.0" height="14.0" style="fill:orange; stroke:rgb(0,0,0);" rx="1"/>
<text x="1250" y="288" style="font-family:sans-serif;font-size:10px;">
exp
</text>
<rect x="380.0" y="62.0" width="32.0" height="14.0" style="fill:orange; stroke:rgb(0,0,0);" rx="1"/>
<text x="382" y="71" style="font-family:sans-serif;font-size:10px;">
peso
</text>
<rect x="874.25" y="279.0" width="24.0" height="14.0" style="fill:orange; stroke:rgb(0,0,0);" rx="1"/>
<text x="876" y="288" style="font-family:sans-serif;font-size:10px;">
exp
</text>
<rect x="916.25" y="310.0" width="46.0" height="14.0" style="fill:orange; stroke:rgb(0,0,0);" rx="1"/>
<text x="918" y="319" style="font-family:sans-serif;font-size:10px;">
valores
</text>
<rect x="1272.75" y="434.0" width="46.0" height="14.0" style="fill:orange; stroke:rgb(0,0,0);" rx="1"/>
<text x="1274" y="443" style="font-family:sans-serif;font-size:10px;">
amigo2
</text>
<rect x="993.25" y="248.0" width="11.0" height="14.0" style="fill:orange; stroke:rgb(0,0,0);" rx="1"/>
<text x="995" y="257" style="font-family:sans-serif;font-size:10px;">
}
</text>
<rect x="1055.75" y="186.0" width="116.0" height="14.0" style="fill:orange; stroke:rgb(0,0,0);" rx="1"/>
<text x="1057" y="195" style="font-family:sans-serif;font-size:10px;">
comandoexpressao
</text>
<rect x="525.0" y="62.0" width="46.0" height="14.0" style="fill:orange; stroke:rgb(0,0,0);" rx="1"/>
<text x="527" y="71" style="font-family:sans-serif;font-size:10px;">
amigos
</text>
</svg>