<svg width="1597.2" height="726.0000000000001" xmlns="http://www.w3.org/2000/svg" xmlns:xlink="http://www.w3.org/1999/xlink"><line x1="519.359375" y1="7.0" x2="191.21875" y2="31.0" style="stroke:black; stroke-width:1px;" />
<line x1="191.21875" y1="38.0" x2="53.25" y2="62.0" style="stroke:black; stroke-width:1px;" />
<line x1="53.25" y1="69.0" x2="21.5" y2="93.0" style="stroke:black; stroke-width:1px;" />
<line x1="21.5" y1="100.0" x2="21.5" y2="124.0" style="stroke:black; stroke-width:1px;" />
<line x1="21.5" y1="131.0" x2="21.5" y2="155.0" style="stroke:black; stroke-width:1px;" />
<line x1="53.25" y1="69.0" x2="85.0" y2="93.0" style="stroke:black; stroke-width:1px;" />
<line x1="191.21875" y1="38.0" x2="329.1875" y2="62.0" style="stroke:black; stroke-width:1px;" />
<line x1="329.1875" y1="69.0" x2="132.0" y2="93.0" style="stroke:black; stroke-width:1px;" />
<line x1="329.1875" y1="69.0" x2="166.5" y2="93.0" style="stroke:black; stroke-width:1px;" />
<line x1="166.5" y1="100.0" x2="80.0" y2="124.0" style="stroke:black; stroke-width:1px;" />
<line x1="166.5" y1="100.0" x2="125.5" y2="124.0" style="stroke:black; stroke-width:1px;" />
<line x1="125.5" y1="131.0" x2="125.5" y2="155.0" style="stroke:black; stroke-width:1px;" />
<line x1="166.5" y1="100.0" x2="181.5" y2="124.0" style="stroke:black; stroke-width:1px;" />
<line x1="166.5" y1="100.0" x2="220.0" y2="124.0" style="stroke:black; stroke-width:1px;" />
<line x1="166.5" y1="100.0" x2="236.5" y2="124.0" style="stroke:black; stroke-width:1px;" />
<line x1="166.5" y1="100.0" x2="253.0" y2="124.0" style="stroke:black; stroke-width:1px;" />
<line x1="329.1875" y1="69.0" x2="280.95833333333337" y2="93.0" style="stroke:black; stroke-width:1px;" />
<line x1="329.1875" y1="69.0" x2="375.9166666666667" y2="93.0" style="stroke:black; stroke-width:1px;" />
<line x1="329.1875" y1="69.0" x2="486.875" y2="93.0" style="stroke:black; stroke-width:1px;" />
<line x1="486.875" y1="100.0" x2="292.0" y2="124.0" style="stroke:black; stroke-width:1px;" />
<line x1="292.0" y1="131.0" x2="265.0" y2="155.0" style="stroke:black; stroke-width:1px;" />
<line x1="265.0" y1="162.0" x2="265.0" y2="186.0" style="stroke:black; stroke-width:1px;" />
<line x1="265.0" y1="193.0" x2="223.75" y2="217.0" style="stroke:black; stroke-width:1px;" />
<line x1="265.0" y1="193.0" x2="256.25" y2="217.0" style="stroke:black; stroke-width:1px;" />
<line x1="256.25" y1="224.0" x2="256.25" y2="248.0" style="stroke:black; stroke-width:1px;" />
<line x1="265.0" y1="193.0" x2="280.75" y2="217.0" style="stroke:black; stroke-width:1px;" />
<line x1="265.0" y1="193.0" x2="306.25" y2="217.0" style="stroke:black; stroke-width:1px;" />
<line x1="306.25" y1="224.0" x2="306.25" y2="248.0" style="stroke:black; stroke-width:1px;" />
<line x1="306.25" y1="255.0" x2="306.25" y2="279.0" style="stroke:black; stroke-width:1px;" />
<line x1="292.0" y1="131.0" x2="319.0" y2="155.0" style="stroke:black; stroke-width:1px;" />
<line x1="486.875" y1="100.0" x2="499.0" y2="124.0" style="stroke:black; stroke-width:1px;" />
<line x1="499.0" y1="131.0" x2="499.0" y2="155.0" style="stroke:black; stroke-width:1px;" />
<line x1="499.0" y1="162.0" x2="340.0" y2="186.0" style="stroke:black; stroke-width:1px;" />
<line x1="499.0" y1="162.0" x2="397.5" y2="186.0" style="stroke:black; stroke-width:1px;" />
<line x1="397.5" y1="193.0" x2="397.5" y2="217.0" style="stroke:black; stroke-width:1px;" />
<line x1="499.0" y1="162.0" x2="452.0" y2="186.0" style="stroke:black; stroke-width:1px;" />
<line x1="499.0" y1="162.0" x2="490.0" y2="186.0" style="stroke:black; stroke-width:1px;" />
<line x1="490.0" y1="193.0" x2="490.0" y2="217.0" style="stroke:black; stroke-width:1px;" />
<line x1="490.0" y1="224.0" x2="490.0" y2="248.0" style="stroke:black; stroke-width:1px;" />
<line x1="490.0" y1="255.0" x2="490.0" y2="279.0" style="stroke:black; stroke-width:1px;" />
<line x1="490.0" y1="286.0" x2="490.0" y2="310.0" style="stroke:black; stroke-width:1px;" />
<line x1="499.0" y1="162.0" x2="556.25" y2="186.0" style="stroke:black; stroke-width:1px;" />
<line x1="499.0" y1="162.0" x2="618.5" y2="186.0" style="stroke:black; stroke-width:1px;" />
<line x1="618.5" y1="193.0" x2="618.5" y2="217.0" style="stroke:black; stroke-width:1px;" />
<line x1="618.5" y1="224.0" x2="591.5" y2="248.0" style="stroke:black; stroke-width:1px;" />
<line x1="591.5" y1="255.0" x2="591.5" y2="279.0" style="stroke:black; stroke-width:1px;" />
<line x1="591.5" y1="286.0" x2="535.5" y2="310.0" style="stroke:black; stroke-width:1px;" />
<line x1="535.5" y1="317.0" x2="535.5" y2="341.0" style="stroke:black; stroke-width:1px;" />
<line x1="591.5" y1="286.0" x2="577.0" y2="310.0" style="stroke:black; stroke-width:1px;" />
<line x1="577.0" y1="317.0" x2="577.0" y2="341.0" style="stroke:black; stroke-width:1px;" />
<line x1="591.5" y1="286.0" x2="647.5" y2="310.0" style="stroke:black; stroke-width:1px;" />
<line x1="647.5" y1="317.0" x2="602.5" y2="341.0" style="stroke:black; stroke-width:1px;" />
<line x1="602.5" y1="348.0" x2="602.5" y2="372.0" style="stroke:black; stroke-width:1px;" />
<line x1="602.5" y1="379.0" x2="602.5" y2="403.0" style="stroke:black; stroke-width:1px;" />
<line x1="602.5" y1="410.0" x2="602.5" y2="434.0" style="stroke:black; stroke-width:1px;" />
<line x1="647.5" y1="317.0" x2="647.5" y2="341.0" style="stroke:black; stroke-width:1px;" />
<line x1="647.5" y1="348.0" x2="647.5" y2="372.0" style="stroke:black; stroke-width:1px;" />
<line x1="647.5" y1="317.0" x2="692.5" y2="341.0" style="stroke:black; stroke-width:1px;" />
<line x1="692.5" y1="348.0" x2="692.5" y2="372.0" style="stroke:black; stroke-width:1px;" />
<line x1="692.5" y1="379.0" x2="692.5" y2="403.0" style="stroke:black; stroke-width:1px;" />
<line x1="692.5" y1="410.0" x2="692.5" y2="434.0" style="stroke:black; stroke-width:1px;" />
<line x1="618.5" y1="224.0" x2="645.5" y2="248.0" style="stroke:black; stroke-width:1px;" />
<line x1="499.0" y1="162.0" x2="658.0" y2="186.0" style="stroke:black; stroke-width:1px;" />
<line x1="486.875" y1="100.0" x2="681.75" y2="124.0" style="stroke:black; stroke-width:1px;" />
<line x1="681.75" y1="131.0" x2="639.0" y2="155.0" style="stroke:black; stroke-width:1px;" />
<line x1="681.75" y1="131.0" x2="689.5" y2="155.0" style="stroke:black; stroke-width:1px;" />
<line x1="689.5" y1="162.0" x2="689.5" y2="186.0" style="stroke:black; stroke-width:1px;" />
<line x1="689.5" y1="193.0" x2="689.5" y2="217.0" style="stroke:black; stroke-width:1px;" />
<line x1="689.5" y1="224.0" x2="689.5" y2="248.0" style="stroke:black; stroke-width:1px;" />
<line x1="689.5" y1="255.0" x2="689.5" y2="279.0" style="stroke:black; stroke-width:1px;" />
<line x1="681.75" y1="131.0" x2="724.5" y2="155.0" style="stroke:black; stroke-width:1px;" />
<line x1="329.1875" y1="69.0" x2="526.375" y2="93.0" style="stroke:black; stroke-width:1px;" />
<line x1="519.359375" y1="7.0" x2="847.5" y2="31.0" style="stroke:black; stroke-width:1px;" />
<line x1="847.5" y1="38.0" x2="787.25" y2="62.0" style="stroke:black; stroke-width:1px;" />
<line x1="787.25" y1="69.0" x2="765.5" y2="93.0" style="stroke:black; stroke-width:1px;" />
<line x1="765.5" y1="100.0" x2="765.5" y2="124.0" style="stroke:black; stroke-width:1px;" />
<line x1="787.25" y1="69.0" x2="809.0" y2="93.0" style="stroke:black; stroke-width:1px;" />
<line x1="847.5" y1="38.0" x2="907.75" y2="62.0" style="stroke:black; stroke-width:1px;" />
<line x1="907.75" y1="69.0" x2="857.5" y2="93.0" style="stroke:black; stroke-width:1px;" />
<line x1="907.75" y1="69.0" x2="872.5" y2="93.0" style="stroke:black; stroke-width:1px;" />
<line x1="907.75" y1="69.0" x2="887.5" y2="93.0" style="stroke:black; stroke-width:1px;" />
<line x1="907.75" y1="69.0" x2="918.5" y2="93.0" style="stroke:black; stroke-width:1px;" />
<line x1="918.5" y1="100.0" x2="814.0" y2="124.0" style="stroke:black; stroke-width:1px;" />
<line x1="814.0" y1="131.0" x2="787.0" y2="155.0" style="stroke:black; stroke-width:1px;" />
<line x1="787.0" y1="162.0" x2="787.0" y2="186.0" style="stroke:black; stroke-width:1px;" />
<line x1="787.0" y1="193.0" x2="742.5" y2="217.0" style="stroke:black; stroke-width:1px;" />
<line x1="787.0" y1="193.0" x2="775.0" y2="217.0" style="stroke:black; stroke-width:1px;" />
<line x1="775.0" y1="224.0" x2="775.0" y2="248.0" style="stroke:black; stroke-width:1px;" />
<line x1="787.0" y1="193.0" x2="802.75" y2="217.0" style="stroke:black; stroke-width:1px;" />
<line x1="787.0" y1="193.0" x2="831.5" y2="217.0" style="stroke:black; stroke-width:1px;" />
<line x1="831.5" y1="224.0" x2="831.5" y2="248.0" style="stroke:black; stroke-width:1px;" />
<line x1="831.5" y1="255.0" x2="831.5" y2="279.0" style="stroke:black; stroke-width:1px;" />
<line x1="831.5" y1="286.0" x2="773.0" y2="310.0" style="stroke:black; stroke-width:1px;" />
<line x1="831.5" y1="286.0" x2="820.0" y2="310.0" style="stroke:black; stroke-width:1px;" />
<line x1="831.5" y1="286.0" x2="855.0" y2="310.0" style="stroke:black; stroke-width:1px;" />
<line x1="855.0" y1="317.0" x2="855.0" y2="341.0" style="stroke:black; stroke-width:1px;" />
<line x1="855.0" y1="348.0" x2="818.5" y2="372.0" style="stroke:black; stroke-width:1px;" />
<line x1="855.0" y1="348.0" x2="855.0" y2="372.0" style="stroke:black; stroke-width:1px;" />
<line x1="855.0" y1="379.0" x2="749.0" y2="403.0" style="stroke:black; stroke-width:1px;" />
<line x1="749.0" y1="410.0" x2="749.0" y2="434.0" style="stroke:black; stroke-width:1px;" />
<line x1="749.0" y1="441.0" x2="749.0" y2="465.0" style="stroke:black; stroke-width:1px;" />
<line x1="855.0" y1="379.0" x2="775.5" y2="403.0" style="stroke:black; stroke-width:1px;" />
<line x1="855.0" y1="379.0" x2="802.0" y2="403.0" style="stroke:black; stroke-width:1px;" />
<line x1="802.0" y1="410.0" x2="802.0" y2="434.0" style="stroke:black; stroke-width:1px;" />
<line x1="802.0" y1="441.0" x2="802.0" y2="465.0" style="stroke:black; stroke-width:1px;" />
<line x1="855.0" y1="379.0" x2="828.5" y2="403.0" style="stroke:black; stroke-width:1px;" />
<line x1="855.0" y1="379.0" x2="855.0" y2="403.0" style="stroke:black; stroke-width:1px;" />
<line x1="855.0" y1="410.0" x2="855.0" y2="434.0" style="stroke:black; stroke-width:1px;" />
<line x1="855.0" y1="441.0" x2="855.0" y2="465.0" style="stroke:black; stroke-width:1px;" />
<line x1="855.0" y1="379.0" x2="881.5" y2="403.0" style="stroke:black; stroke-width:1px;" />
<line x1="855.0" y1="379.0" x2="908.0" y2="403.0" style="stroke:black; stroke-width:1px;" />
<line x1="908.0" y1="410.0" x2="908.0" y2="434.0" style="stroke:black; stroke-width:1px;" />
<line x1="908.0" y1="441.0" x2="908.0" y2="465.0" style="stroke:black; stroke-width:1px;" />
<line x1="855.0" y1="379.0" x2="934.5" y2="403.0" style="stroke:black; stroke-width:1px;" />
<line x1="855.0" y1="379.0" x2="961.0" y2="403.0" style="stroke:black; stroke-width:1px;" />
<line x1="961.0" y1="410.0" x2="961.0" y2="434.0" style="stroke:black; stroke-width:1px;" />
<line x1="961.0" y1="441.0" x2="961.0" y2="465.0" style="stroke:black; stroke-width:1px;" />
<line x1="855.0" y1="348.0" x2="891.5" y2="372.0" style="stroke:black; stroke-width:1px;" />
<line x1="831.5" y1="286.0" x2="890.0" y2="310.0" style="stroke:black; stroke-width:1px;" />
<line x1="814.0" y1="131.0" x2="841.0" y2="155.0" style="stroke:black; stroke-width:1px;" />
<line x1="918.5" y1="100.0" x2="1023.0" y2="124.0" style="stroke:black; stroke-width:1px;" />
<line x1="1023.0" y1="131.0" x2="996.0" y2="155.0" style="stroke:black; stroke-width:1px;" />
<line x1="996.0" y1="162.0" x2="996.0" y2="186.0" style="stroke:black; stroke-width:1px;" />
<line x1="996.0" y1="193.0" x2="996.0" y2="217.0" style="stroke:black; stroke-width:1px;" />
<line x1="996.0" y1="224.0" x2="996.0" y2="248.0" style="stroke:black; stroke-width:1px;" />
<line x1="996.0" y1="255.0" x2="996.0" y2="279.0" style="stroke:black; stroke-width:1px;" />
<line x1="996.0" y1="286.0" x2="948.0" y2="310.0" style="stroke:black; stroke-width:1px;" />
<line x1="996.0" y1="286.0" x2="974.0" y2="310.0" style="stroke:black; stroke-width:1px;" />
<line x1="996.0" y1="286.0" x2="1009.0" y2="310.0" style="stroke:black; stroke-width:1px;" />
<line x1="1009.0" y1="317.0" x2="1009.0" y2="341.0" style="stroke:black; stroke-width:1px;" />
<line x1="1009.0" y1="348.0" x2="1009.0" y2="372.0" style="stroke:black; stroke-width:1px;" />
<line x1="1009.0" y1="379.0" x2="1009.0" y2="403.0" style="stroke:black; stroke-width:1px;" />
<line x1="1009.0" y1="410.0" x2="1009.0" y2="434.0" style="stroke:black; stroke-width:1px;" />
<line x1="996.0" y1="286.0" x2="1044.0" y2="310.0" style="stroke:black; stroke-width:1px;" />
<line x1="1023.0" y1="131.0" x2="1050.0" y2="155.0" style="stroke:black; stroke-width:1px;" />
<line x1="907.75" y1="69.0" x2="958.0" y2="93.0" style="stroke:black; stroke-width:1px;" />
<rect x="104.0" y="124.0" width="43.0" height="14.0" style="fill:orange; stroke:rgb(0,0,0);" rx="1"/>
<text x="106" y="133" style="font-family:sans-serif;font-size:10px;">
tipovar
</text>
<rect x="357.0" y="186.0" width="81.0" height="14.0" style="fill:orange; stroke:rgb(0,0,0);" rx="1"/>
<text x="359" y="195" style="font-family:sans-serif;font-size:10px;">
listadenomes
</text>
<rect x="737.0" y="403.0" width="24.0" height="14.0" style="fill:orange; stroke:rgb(0,0,0);" rx="1"/>
<text x="739" y="412" style="font-family:sans-serif;font-size:10px;">
exp
</text>
<rect x="896.0" y="403.0" width="24.0" height="14.0" style="fill:orange; stroke:rgb(0,0,0);" rx="1"/>
<text x="898" y="412" style="font-family:sans-serif;font-size:10px;">
exp
</text>
<rect x="12.5" y="155.0" width="18.0" height="14.0" style="fill:orange; stroke:rgb(0,0,0);" rx="1"/>
<text x="14" y="164" style="font-family:sans-serif;font-size:10px;">
int
</text>
<rect x="521.0" y="341.0" width="29.0" height="14.0" style="fill:orange; stroke:rgb(0,0,0);" rx="1"/>
<text x="523" y="350" style="font-family:sans-serif;font-size:10px;">
total
</text>
<rect x="771.5" y="403.0" width="8.0" height="14.0" style="fill:orange; stroke:rgb(0,0,0);" rx="1"/>
<text x="773" y="412" style="font-family:sans-serif;font-size:10px;">
,
</text>
<rect x="283.25" y="248.0" width="46.0" height="14.0" style="fill:orange; stroke:rgb(0,0,0);" rx="1"/>
<text x="285" y="257" style="font-family:sans-serif;font-size:10px;">
valores
</text>
<rect x="0.0" y="124.0" width="43.0" height="14.0" style="fill:orange; stroke:rgb(0,0,0);" rx="1"/>
<text x="2" y="133" style="font-family:sans-serif;font-size:10px;">
tipovar
</text>
<rect x="598.5" y="186.0" width="40.0" height="14.0" style="fill:orange; stroke:rgb(0,0,0);" rx="1"/>
<text x="600" y="195" style="font-family:sans-serif;font-size:10px;">
trecho
</text>
<rect x="330.0" y="186.0" width="20.0" height="14.0" style="fill:orange; stroke:rgb(0,0,0);" rx="1"/>
<text x="332" y="195" style="font-family:sans-serif;font-size:10px;">
for
</text>
<rect x="371.9166666666667" y="93.0" width="8.0" height="14.0" style="fill:orange; stroke:rgb(0,0,0);" rx="1"/>
<text x="373" y="102" style="font-family:sans-serif;font-size:10px;">
:
</text>
<rect x="466.0" y="186.0" width="48.0" height="14.0" style="fill:orange; stroke:rgb(0,0,0);" rx="1"/>
<text x="468" y="195" style="font-family:sans-serif;font-size:10px;">
listaexp
</text>
<rect x="1040.0" y="310.0" width="8.0" height="14.0" style="fill:orange; stroke:rgb(0,0,0);" rx="1"/>
<text x="1042" y="319" style="font-family:sans-serif;font-size:10px;">
)
</text>
<rect x="619.5" y="155.0" width="39.0" height="14.0" style="fill:orange; stroke:rgb(0,0,0);" rx="1"/>
<text x="621" y="164" style="font-family:sans-serif;font-size:10px;">
return
</text>
<rect x="274.25" y="217.0" width="13.0" height="14.0" style="fill:orange; stroke:rgb(0,0,0);" rx="1"/>
<text x="276" y="226" style="font-family:sans-serif;font-size:10px;">
=
</text>
<rect x="548.5" y="248.0" width="86.0" height="14.0" style="fill:orange; stroke:rgb(0,0,0);" rx="1"/>
<text x="550" y="257" style="font-family:sans-serif;font-size:10px;">
comandounico
</text>
<rect x="143.0" y="93.0" width="47.0" height="14.0" style="fill:orange; stroke:rgb(0,0,0);" rx="1"/>
<text x="145" y="102" style="font-family:sans-serif;font-size:10px;">
listapar
</text>
<rect x="885.0" y="434.0" width="46.0" height="14.0" style="fill:orange; stroke:rgb(0,0,0);" rx="1"/>
<text x="887" y="443" style="font-family:sans-serif;font-size:10px;">
valores
</text>
<rect x="285.1875" y="62.0" width="88.0" height="14.0" style="fill:orange; stroke:rgb(0,0,0);" rx="1"/>
<text x="287" y="71" style="font-family:sans-serif;font-size:10px;">
corpodafuncao
</text>
<rect x="524.5" y="310.0" width="22.0" height="14.0" style="fill:orange; stroke:rgb(0,0,0);" rx="1"/>
<text x="526" y="319" style="font-family:sans-serif;font-size:10px;">
var
</text>
<rect x="680.5" y="341.0" width="24.0" height="14.0" style="fill:orange; stroke:rgb(0,0,0);" rx="1"/>
<text x="682" y="350" style="font-family:sans-serif;font-size:10px;">
exp
</text>
<rect x="478.0" y="217.0" width="24.0" height="14.0" style="fill:orange; stroke:rgb(0,0,0);" rx="1"/>
<text x="480" y="226" style="font-family:sans-serif;font-size:10px;">
exp
</text>
<rect x="720.5" y="155.0" width="8.0" height="14.0" style="fill:orange; stroke:rgb(0,0,0);" rx="1"/>
<text x="722" y="164" style="font-family:sans-serif;font-size:10px;">
;
</text>
<rect x="886.0" y="310.0" width="8.0" height="14.0" style="fill:orange; stroke:rgb(0,0,0);" rx="1"/>
<text x="888" y="319" style="font-family:sans-serif;font-size:10px;">
)
</text>
<rect x="635.5" y="310.0" width="24.0" height="14.0" style="fill:orange; stroke:rgb(0,0,0);" rx="1"/>
<text x="637" y="319" style="font-family:sans-serif;font-size:10px;">
exp
</text>
<rect x="863.75" y="62.0" width="88.0" height="14.0" style="fill:orange; stroke:rgb(0,0,0);" rx="1"/>
<text x="865" y="71" style="font-family:sans-serif;font-size:10px;">
corpodafuncao
</text>
<rect x="456.0" y="155.0" width="86.0" height="14.0" style="fill:orange; stroke:rgb(0,0,0);" rx="1"/>
<text x="458" y="164" style="font-family:sans-serif;font-size:10px;">
comandobloco
</text>
<rect x="294.25" y="217.0" width="24.0" height="14.0" style="fill:orange; stroke:rgb(0,0,0);" rx="1"/>
<text x="296" y="226" style="font-family:sans-serif;font-size:10px;">
exp
</text>
<rect x="793.0" y="93.0" width="32.0" height="14.0" style="fill:orange; stroke:rgb(0,0,0);" rx="1"/>
<text x="795" y="102" style="font-family:sans-serif;font-size:10px;">
main
</text>
<rect x="796.25" y="217.0" width="13.0" height="14.0" style="fill:orange; stroke:rgb(0,0,0);" rx="1"/>
<text x="798" y="226" style="font-family:sans-serif;font-size:10px;">
=
</text>
<rect x="276.95833333333337" y="93.0" width="8.0" height="14.0" style="fill:orange; stroke:rgb(0,0,0);" rx="1"/>
<text x="278" y="102" style="font-family:sans-serif;font-size:10px;">
)
</text>
<rect x="675.0" y="279.0" width="29.0" height="14.0" style="fill:orange; stroke:rgb(0,0,0);" rx="1"/>
<text x="677" y="288" style="font-family:sans-serif;font-size:10px;">
total
</text>
<rect x="942.0" y="279.0" width="108.0" height="14.0" style="fill:orange; stroke:rgb(0,0,0);" rx="1"/>
<text x="944" y="288" style="font-family:sans-serif;font-size:10px;">
chamadadefuncao
</text>
<rect x="796.5" y="465.0" width="11.0" height="14.0" style="fill:orange; stroke:rgb(0,0,0);" rx="1"/>
<text x="798" y="474" style="font-family:sans-serif;font-size:10px;">
3
</text>
<rect x="744.0" y="155.0" width="86.0" height="14.0" style="fill:orange; stroke:rgb(0,0,0);" rx="1"/>
<text x="746" y="164" style="font-family:sans-serif;font-size:10px;">
comandounico
</text>
<rect x="207.0" y="186.0" width="116.0" height="14.0" style="fill:orange; stroke:rgb(0,0,0);" rx="1"/>
<text x="209" y="195" style="font-family:sans-serif;font-size:10px;">
comandoexpressao
</text>
<rect x="830.5" y="31.0" width="34.0" height="14.0" style="fill:orange; stroke:rgb(0,0,0);" rx="1"/>
<text x="832" y="40" style="font-family:sans-serif;font-size:10px;">
bloco
</text>
<rect x="779.0" y="434.0" width="46.0" height="14.0" style="fill:orange; stroke:rgb(0,0,0);" rx="1"/>
<text x="781" y="443" style="font-family:sans-serif;font-size:10px;">
valores
</text>
<rect x="898.5" y="93.0" width="40.0" height="14.0" style="fill:orange; stroke:rgb(0,0,0);" rx="1"/>
<text x="900" y="102" style="font-family:sans-serif;font-size:10px;">
trecho
</text>
<rect x="222.0" y="155.0" width="86.0" height="14.0" style="fill:orange; stroke:rgb(0,0,0);" rx="1"/>
<text x="224" y="164" style="font-family:sans-serif;font-size:10px;">
comandounico
</text>
<rect x="930.5" y="403.0" width="8.0" height="14.0" style="fill:orange; stroke:rgb(0,0,0);" rx="1"/>
<text x="932" y="412" style="font-family:sans-serif;font-size:10px;">
,
</text>
<rect x="245.25" y="217.0" width="22.0" height="14.0" style="fill:orange; stroke:rgb(0,0,0);" rx="1"/>
<text x="247" y="226" style="font-family:sans-serif;font-size:10px;">
var
</text>
<rect x="502.859375" y="0.0" width="33.0" height="14.0" style="fill:orange; stroke:rgb(0,0,0);" rx="1"/>
<text x="504" y="9" style="font-family:sans-serif;font-size:10px;">
inicio
</text>
<rect x="249.0" y="124.0" width="8.0" height="14.0" style="fill:orange; stroke:rgb(0,0,0);" rx="1"/>
<text x="251" y="133" style="font-family:sans-serif;font-size:10px;">
]
</text>
<rect x="588.0" y="434.0" width="29.0" height="14.0" style="fill:orange; stroke:rgb(0,0,0);" rx="1"/>
<text x="590" y="443" style="font-family:sans-serif;font-size:10px;">
total
</text>
<rect x="641.5" y="248.0" width="8.0" height="14.0" style="fill:orange; stroke:rgb(0,0,0);" rx="1"/>
<text x="643" y="257" style="font-family:sans-serif;font-size:10px;">
;
</text>
<rect x="209.25" y="217.0" width="29.0" height="14.0" style="fill:orange; stroke:rgb(0,0,0);" rx="1"/>
<text x="211" y="226" style="font-family:sans-serif;font-size:10px;">
auto
</text>
<rect x="819.5" y="217.0" width="24.0" height="14.0" style="fill:orange; stroke:rgb(0,0,0);" rx="1"/>
<text x="821" y="226" style="font-family:sans-serif;font-size:10px;">
exp
</text>
<rect x="553.5" y="310.0" width="47.0" height="14.0" style="fill:orange; stroke:rgb(0,0,0);" rx="1"/>
<text x="555" y="319" style="font-family:sans-serif;font-size:10px;">
listaatri
</text>
<rect x="570.5" y="341.0" width="13.0" height="14.0" style="fill:orange; stroke:rgb(0,0,0);" rx="1"/>
<text x="572" y="350" style="font-family:sans-serif;font-size:10px;">
=
</text>
<rect x="949.0" y="403.0" width="24.0" height="14.0" style="fill:orange; stroke:rgb(0,0,0);" rx="1"/>
<text x="951" y="412" style="font-family:sans-serif;font-size:10px;">
exp
</text>
<rect x="955.5" y="465.0" width="11.0" height="14.0" style="fill:orange; stroke:rgb(0,0,0);" rx="1"/>
<text x="957" y="474" style="font-family:sans-serif;font-size:10px;">
2
</text>
<rect x="883.5" y="93.0" width="8.0" height="14.0" style="fill:orange; stroke:rgb(0,0,0);" rx="1"/>
<text x="885" y="102" style="font-family:sans-serif;font-size:10px;">
:
</text>
<rect x="837.0" y="155.0" width="8.0" height="14.0" style="fill:orange; stroke:rgb(0,0,0);" rx="1"/>
<text x="839" y="164" style="font-family:sans-serif;font-size:10px;">
;
</text>
<rect x="63.0" y="124.0" width="34.0" height="14.0" style="fill:orange; stroke:rgb(0,0,0);" rx="1"/>
<text x="65" y="133" style="font-family:sans-serif;font-size:10px;">
array
</text>
<rect x="458.5" y="248.0" width="63.0" height="14.0" style="fill:orange; stroke:rgb(0,0,0);" rx="1"/>
<text x="460" y="257" style="font-family:sans-serif;font-size:10px;">
expprefixo
</text>
<rect x="641.0" y="372.0" width="13.0" height="14.0" style="fill:orange; stroke:rgb(0,0,0);" rx="1"/>
<text x="643" y="381" style="font-family:sans-serif;font-size:10px;">
+
</text>
<rect x="678.5" y="248.0" width="22.0" height="14.0" style="fill:orange; stroke:rgb(0,0,0);" rx="1"/>
<text x="680" y="257" style="font-family:sans-serif;font-size:10px;">
var
</text>
<rect x="445.0" y="186.0" width="14.0" height="14.0" style="fill:orange; stroke:rgb(0,0,0);" rx="1"/>
<text x="447" y="195" style="font-family:sans-serif;font-size:10px;">
in
</text>
<rect x="737.0" y="310.0" width="72.0" height="14.0" style="fill:orange; stroke:rgb(0,0,0);" rx="1"/>
<text x="739" y="319" style="font-family:sans-serif;font-size:10px;">
soma_array
</text>
<rect x="995.0" y="124.0" width="56.0" height="14.0" style="fill:orange; stroke:rgb(0,0,0);" rx="1"/>
<text x="997" y="133" style="font-family:sans-serif;font-size:10px;">
comando
</text>
<rect x="938.0" y="434.0" width="46.0" height="14.0" style="fill:orange; stroke:rgb(0,0,0);" rx="1"/>
<text x="940" y="443" style="font-family:sans-serif;font-size:10px;">
valores
</text>
<rect x="964.5" y="248.0" width="63.0" height="14.0" style="fill:orange; stroke:rgb(0,0,0);" rx="1"/>
<text x="966" y="257" style="font-family:sans-serif;font-size:10px;">
expprefixo
</text>
<rect x="636.25" y="124.0" width="91.0" height="14.0" style="fill:orange; stroke:rgb(0,0,0);" rx="1"/>
<text x="638" y="133" style="font-family:sans-serif;font-size:10px;">
ultimocomando
</text>
<rect x="533.5" y="279.0" width="116.0" height="14.0" style="fill:orange; stroke:rgb(0,0,0);" rx="1"/>
<text x="535" y="288" style="font-family:sans-serif;font-size:10px;">
comandoexpressao
</text>
<rect x="868.5" y="93.0" width="8.0" height="14.0" style="fill:orange; stroke:rgb(0,0,0);" rx="1"/>
<text x="870" y="102" style="font-family:sans-serif;font-size:10px;">
)
</text>
<rect x="831.0" y="372.0" width="48.0" height="14.0" style="fill:orange; stroke:rgb(0,0,0);" rx="1"/>
<text x="833" y="381" style="font-family:sans-serif;font-size:10px;">
listaexp
</text>
<rect x="513.875" y="93.0" width="25.0" height="14.0" style="fill:orange; stroke:rgb(0,0,0);" rx="1"/>
<text x="515" y="102" style="font-family:sans-serif;font-size:10px;">
end
</text>
<rect x="953.0" y="155.0" width="86.0" height="14.0" style="fill:orange; stroke:rgb(0,0,0);" rx="1"/>
<text x="955" y="164" style="font-family:sans-serif;font-size:10px;">
comandounico
</text>
<rect x="970.0" y="310.0" width="8.0" height="14.0" style="fill:orange; stroke:rgb(0,0,0);" rx="1"/>
<text x="972" y="319" style="font-family:sans-serif;font-size:10px;">
(
</text>
<rect x="9.25" y="62.0" width="88.0" height="14.0" style="fill:orange; stroke:rgb(0,0,0);" rx="1"/>
<text x="11" y="71" style="font-family:sans-serif;font-size:10px;">
nomedafuncao
</text>
<rect x="786.0" y="124.0" width="56.0" height="14.0" style="fill:orange; stroke:rgb(0,0,0);" rx="1"/>
<text x="788" y="133" style="font-family:sans-serif;font-size:10px;">
comando
</text>
<rect x="392.0" y="217.0" width="11.0" height="14.0" style="fill:orange; stroke:rgb(0,0,0);" rx="1"/>
<text x="394" y="226" style="font-family:sans-serif;font-size:10px;">
e
</text>
<rect x="677.5" y="186.0" width="24.0" height="14.0" style="fill:orange; stroke:rgb(0,0,0);" rx="1"/>
<text x="679" y="195" style="font-family:sans-serif;font-size:10px;">
exp
</text>
<rect x="945.5" y="93.0" width="25.0" height="14.0" style="fill:orange; stroke:rgb(0,0,0);" rx="1"/>
<text x="947" y="102" style="font-family:sans-serif;font-size:10px;">
end
</text>
<rect x="462.5" y="310.0" width="55.0" height="14.0" style="fill:orange; stroke:rgb(0,0,0);" rx="1"/>
<text x="464" y="319" style="font-family:sans-serif;font-size:10px;">
numeros
</text>
<rect x="757.0" y="248.0" width="36.0" height="14.0" style="fill:orange; stroke:rgb(0,0,0);" rx="1"/>
<text x="759" y="257" style="font-family:sans-serif;font-size:10px;">
soma
</text>
<rect x="49.0" y="93.0" width="72.0" height="14.0" style="fill:orange; stroke:rgb(0,0,0);" rx="1"/>
<text x="51" y="102" style="font-family:sans-serif;font-size:10px;">
soma_array
</text>
<rect x="128.0" y="93.0" width="8.0" height="14.0" style="fill:orange; stroke:rgb(0,0,0);" rx="1"/>
<text x="130" y="102" style="font-family:sans-serif;font-size:10px;">
(
</text>
<rect x="466.875" y="93.0" width="40.0" height="14.0" style="fill:orange; stroke:rgb(0,0,0);" rx="1"/>
<text x="468" y="102" style="font-family:sans-serif;font-size:10px;">
trecho
</text>
<rect x="241.75" y="248.0" width="29.0" height="14.0" style="fill:orange; stroke:rgb(0,0,0);" rx="1"/>
<text x="243" y="257" style="font-family:sans-serif;font-size:10px;">
total
</text>
<rect x="590.5" y="341.0" width="24.0" height="14.0" style="fill:orange; stroke:rgb(0,0,0);" rx="1"/>
<text x="592" y="350" style="font-family:sans-serif;font-size:10px;">
exp
</text>
<rect x="1046.0" y="155.0" width="8.0" height="14.0" style="fill:orange; stroke:rgb(0,0,0);" rx="1"/>
<text x="1048" y="164" style="font-family:sans-serif;font-size:10px;">
;
</text>
<rect x="681.5" y="403.0" width="22.0" height="14.0" style="fill:orange; stroke:rgb(0,0,0);" rx="1"/>
<text x="683" y="412" style="font-family:sans-serif;font-size:10px;">
var
</text>
<rect x="849.5" y="465.0" width="11.0" height="14.0" style="fill:orange; stroke:rgb(0,0,0);" rx="1"/>
<text x="851" y="474" style="font-family:sans-serif;font-size:10px;">
2
</text>
<rect x="645.5" y="186.0" width="25.0" height="14.0" style="fill:orange; stroke:rgb(0,0,0);" rx="1"/>
<text x="647" y="195" style="font-family:sans-serif;font-size:10px;">
end
</text>
<rect x="877.5" y="403.0" width="8.0" height="14.0" style="fill:orange; stroke:rgb(0,0,0);" rx="1"/>
<text x="879" y="412" style="font-family:sans-serif;font-size:10px;">
,
</text>
<rect x="154.0" y="124.0" width="55.0" height="14.0" style="fill:orange; stroke:rgb(0,0,0);" rx="1"/>
<text x="156" y="133" style="font-family:sans-serif;font-size:10px;">
numeros
</text>
<rect x="231.0" y="124.0" width="11.0" height="14.0" style="fill:orange; stroke:rgb(0,0,0);" rx="1"/>
<text x="233" y="133" style="font-family:sans-serif;font-size:10px;">
5
</text>
<rect x="174.21875" y="31.0" width="34.0" height="14.0" style="fill:orange; stroke:rgb(0,0,0);" rx="1"/>
<text x="176" y="40" style="font-family:sans-serif;font-size:10px;">
bloco
</text>
<rect x="300.75" y="279.0" width="11.0" height="14.0" style="fill:orange; stroke:rgb(0,0,0);" rx="1"/>
<text x="302" y="288" style="font-family:sans-serif;font-size:10px;">
0
</text>
<rect x="977.5" y="372.0" width="63.0" height="14.0" style="fill:orange; stroke:rgb(0,0,0);" rx="1"/>
<text x="979" y="381" style="font-family:sans-serif;font-size:10px;">
expprefixo
</text>
<rect x="479.0" y="279.0" width="22.0" height="14.0" style="fill:orange; stroke:rgb(0,0,0);" rx="1"/>
<text x="481" y="288" style="font-family:sans-serif;font-size:10px;">
var
</text>
<rect x="729.0" y="186.0" width="116.0" height="14.0" style="fill:orange; stroke:rgb(0,0,0);" rx="1"/>
<text x="731" y="195" style="font-family:sans-serif;font-size:10px;">
comandoexpressao
</text>
<rect x="790.0" y="403.0" width="24.0" height="14.0" style="fill:orange; stroke:rgb(0,0,0);" rx="1"/>
<text x="792" y="412" style="font-family:sans-serif;font-size:10px;">
exp
</text>
<rect x="571.0" y="372.0" width="63.0" height="14.0" style="fill:orange; stroke:rgb(0,0,0);" rx="1"/>
<text x="573" y="381" style="font-family:sans-serif;font-size:10px;">
expprefixo
</text>
<rect x="813.0" y="372.0" width="11.0" height="14.0" style="fill:orange; stroke:rgb(0,0,0);" rx="1"/>
<text x="815" y="381" style="font-family:sans-serif;font-size:10px;">
{
</text>
<rect x="547.25" y="186.0" width="18.0" height="14.0" style="fill:orange; stroke:rgb(0,0,0);" rx="1"/>
<text x="549" y="195" style="font-family:sans-serif;font-size:10px;">
do
</text>
<rect x="991.0" y="434.0" width="36.0" height="14.0" style="fill:orange; stroke:rgb(0,0,0);" rx="1"/>
<text x="993" y="443" style="font-family:sans-serif;font-size:10px;">
soma
</text>
<rect x="116.5" y="155.0" width="18.0" height="14.0" style="fill:orange; stroke:rgb(0,0,0);" rx="1"/>
<text x="118" y="164" style="font-family:sans-serif;font-size:10px;">
int
</text>
<rect x="886.0" y="372.0" width="11.0" height="14.0" style="fill:orange; stroke:rgb(0,0,0);" rx="1"/>
<text x="888" y="381" style="font-family:sans-serif;font-size:10px;">
}
</text>
<rect x="831.0" y="310.0" width="48.0" height="14.0" style="fill:orange; stroke:rgb(0,0,0);" rx="1"/>
<text x="833" y="319" style="font-family:sans-serif;font-size:10px;">
listaexp
</text>
<rect x="902.5" y="465.0" width="11.0" height="14.0" style="fill:orange; stroke:rgb(0,0,0);" rx="1"/>
<text x="904" y="474" style="font-family:sans-serif;font-size:10px;">
1
</text>
<rect x="984.0" y="217.0" width="24.0" height="14.0" style="fill:orange; stroke:rgb(0,0,0);" rx="1"/>
<text x="986" y="226" style="font-family:sans-serif;font-size:10px;">
exp
</text>
<rect x="764.0" y="217.0" width="22.0" height="14.0" style="fill:orange; stroke:rgb(0,0,0);" rx="1"/>
<text x="766" y="226" style="font-family:sans-serif;font-size:10px;">
var
</text>
<rect x="997.0" y="341.0" width="24.0" height="14.0" style="fill:orange; stroke:rgb(0,0,0);" rx="1"/>
<text x="999" y="350" style="font-family:sans-serif;font-size:10px;">
exp
</text>
<rect x="972.0" y="186.0" width="48.0" height="14.0" style="fill:orange; stroke:rgb(0,0,0);" rx="1"/>
<text x="974" y="195" style="font-family:sans-serif;font-size:10px;">
listaexp
</text>
<rect x="832.0" y="434.0" width="46.0" height="14.0" style="fill:orange; stroke:rgb(0,0,0);" rx="1"/>
<text x="834" y="443" style="font-family:sans-serif;font-size:10px;">
valores
</text>
<rect x="665.5" y="155.0" width="48.0" height="14.0" style="fill:orange; stroke:rgb(0,0,0);" rx="1"/>
<text x="667" y="164" style="font-family:sans-serif;font-size:10px;">
listaexp
</text>
<rect x="743.25" y="62.0" width="88.0" height="14.0" style="fill:orange; stroke:rgb(0,0,0);" rx="1"/>
<text x="745" y="71" style="font-family:sans-serif;font-size:10px;">
nomedafuncao
</text>
<rect x="816.0" y="310.0" width="8.0" height="14.0" style="fill:orange; stroke:rgb(0,0,0);" rx="1"/>
<text x="818" y="319" style="font-family:sans-serif;font-size:10px;">
(
</text>
<rect x="216.0" y="124.0" width="8.0" height="14.0" style="fill:orange; stroke:rgb(0,0,0);" rx="1"/>
<text x="218" y="133" style="font-family:sans-serif;font-size:10px;">
[
</text>
<rect x="658.0" y="217.0" width="63.0" height="14.0" style="fill:orange; stroke:rgb(0,0,0);" rx="1"/>
<text x="660" y="226" style="font-family:sans-serif;font-size:10px;">
expprefixo
</text>
<rect x="933.0" y="310.0" width="30.0" height="14.0" style="fill:orange; stroke:rgb(0,0,0);" rx="1"/>
<text x="935" y="319" style="font-family:sans-serif;font-size:10px;">
print
</text>
<rect x="315.0" y="155.0" width="8.0" height="14.0" style="fill:orange; stroke:rgb(0,0,0);" rx="1"/>
<text x="317" y="164" style="font-family:sans-serif;font-size:10px;">
;
</text>
<rect x="687.0" y="434.0" width="11.0" height="14.0" style="fill:orange; stroke:rgb(0,0,0);" rx="1"/>
<text x="689" y="443" style="font-family:sans-serif;font-size:10px;">
e
</text>
<rect x="264.0" y="124.0" width="56.0" height="14.0" style="fill:orange; stroke:rgb(0,0,0);" rx="1"/>
<text x="266" y="133" style="font-family:sans-serif;font-size:10px;">
comando
</text>
<rect x="998.0" y="403.0" width="22.0" height="14.0" style="fill:orange; stroke:rgb(0,0,0);" rx="1"/>
<text x="1000" y="412" style="font-family:sans-serif;font-size:10px;">
var
</text>
<rect x="1.0" y="93.0" width="41.0" height="14.0" style="fill:orange; stroke:rgb(0,0,0);" rx="1"/>
<text x="3" y="102" style="font-family:sans-serif;font-size:10px;">
tiporet
</text>
<rect x="591.5" y="403.0" width="22.0" height="14.0" style="fill:orange; stroke:rgb(0,0,0);" rx="1"/>
<text x="593" y="412" style="font-family:sans-serif;font-size:10px;">
var
</text>
<rect x="630.0" y="341.0" width="35.0" height="14.0" style="fill:orange; stroke:rgb(0,0,0);" rx="1"/>
<text x="632" y="350" style="font-family:sans-serif;font-size:10px;">
opbin
</text>
<rect x="800.0" y="248.0" width="63.0" height="14.0" style="fill:orange; stroke:rgb(0,0,0);" rx="1"/>
<text x="802" y="257" style="font-family:sans-serif;font-size:10px;">
expprefixo
</text>
<rect x="824.5" y="403.0" width="8.0" height="14.0" style="fill:orange; stroke:rgb(0,0,0);" rx="1"/>
<text x="826" y="412" style="font-family:sans-serif;font-size:10px;">
,
</text>
<rect x="728.0" y="217.0" width="29.0" height="14.0" style="fill:orange; stroke:rgb(0,0,0);" rx="1"/>
<text x="730" y="226" style="font-family:sans-serif;font-size:10px;">
auto
</text>
<rect x="752.0" y="124.0" width="27.0" height="14.0" style="fill:orange; stroke:rgb(0,0,0);" rx="1"/>
<text x="754" y="133" style="font-family:sans-serif;font-size:10px;">
void
</text>
<rect x="843.0" y="341.0" width="24.0" height="14.0" style="fill:orange; stroke:rgb(0,0,0);" rx="1"/>
<text x="845" y="350" style="font-family:sans-serif;font-size:10px;">
exp
</text>
<rect x="743.5" y="465.0" width="11.0" height="14.0" style="fill:orange; stroke:rgb(0,0,0);" rx="1"/>
<text x="745" y="474" style="font-family:sans-serif;font-size:10px;">
3
</text>
<rect x="853.5" y="93.0" width="8.0" height="14.0" style="fill:orange; stroke:rgb(0,0,0);" rx="1"/>
<text x="855" y="102" style="font-family:sans-serif;font-size:10px;">
(
</text>
<rect x="661.0" y="372.0" width="63.0" height="14.0" style="fill:orange; stroke:rgb(0,0,0);" rx="1"/>
<text x="663" y="381" style="font-family:sans-serif;font-size:10px;">
expprefixo
</text>
<rect x="471.0" y="124.0" width="56.0" height="14.0" style="fill:orange; stroke:rgb(0,0,0);" rx="1"/>
<text x="473" y="133" style="font-family:sans-serif;font-size:10px;">
comando
</text>
<rect x="726.0" y="434.0" width="46.0" height="14.0" style="fill:orange; stroke:rgb(0,0,0);" rx="1"/>
<text x="728" y="443" style="font-family:sans-serif;font-size:10px;">
valores
</text>
<rect x="777.5" y="279.0" width="108.0" height="14.0" style="fill:orange; stroke:rgb(0,0,0);" rx="1"/>
<text x="779" y="288" style="font-family:sans-serif;font-size:10px;">
chamadadefuncao
</text>
<rect x="843.0" y="403.0" width="24.0" height="14.0" style="fill:orange; stroke:rgb(0,0,0);" rx="1"/>
<text x="845" y="412" style="font-family:sans-serif;font-size:10px;">
exp
</text>
<rect x="985.0" y="310.0" width="48.0" height="14.0" style="fill:orange; stroke:rgb(0,0,0);" rx="1"/>
<text x="987" y="319" style="font-family:sans-serif;font-size:10px;">
listaexp
</text>
<rect x="590.5" y="217.0" width="56.0" height="14.0" style="fill:orange; stroke:rgb(0,0,0);" rx="1"/>
<text x="592" y="226" style="font-family:sans-serif;font-size:10px;">
comando
</text>
<rect x="745.0" y="93.0" width="41.0" height="14.0" style="fill:orange; stroke:rgb(0,0,0);" rx="1"/>
<text x="747" y="102" style="font-family:sans-serif;font-size:10px;">
tiporet
</text>
</svg>