<svg width="1376.1000000000001" height="697.4000000000001" xmlns="http://www.w3.org/2000/svg" xmlns:xlink="http://www.w3.org/1999/xlink"><line x1="461.59375" y1="7.0" x2="181.9375" y2="31.0" style="stroke:black; stroke-width:1px;" />
<line x1="181.9375" y1="38.0" x2="44.75" y2="62.0" style="stroke:black; stroke-width:1px;" />
<line x1="44.75" y1="69.0" x2="20.5" y2="93.0" style="stroke:black; stroke-width:1px;" />
<line x1="20.5" y1="100.0" x2="20.5" y2="124.0" style="stroke:black; stroke-width:1px;" />
<line x1="44.75" y1="69.0" x2="69.0" y2="93.0" style="stroke:black; stroke-width:1px;" />
<line x1="181.9375" y1="38.0" x2="319.125" y2="62.0" style="stroke:black; stroke-width:1px;" />
<line x1="319.125" y1="69.0" x2="127.0" y2="93.0" style="stroke:black; stroke-width:1px;" />
<line x1="319.125" y1="69.0" x2="161.5" y2="93.0" style="stroke:black; stroke-width:1px;" />
<line x1="161.5" y1="100.0" x2="62.5" y2="124.0" style="stroke:black; stroke-width:1px;" />
<line x1="62.5" y1="131.0" x2="62.5" y2="155.0" style="stroke:black; stroke-width:1px;" />
<line x1="161.5" y1="100.0" x2="96.0" y2="124.0" style="stroke:black; stroke-width:1px;" />
<line x1="161.5" y1="100.0" x2="112.0" y2="124.0" style="stroke:black; stroke-width:1px;" />
<line x1="161.5" y1="100.0" x2="144.5" y2="124.0" style="stroke:black; stroke-width:1px;" />
<line x1="144.5" y1="131.0" x2="144.5" y2="155.0" style="stroke:black; stroke-width:1px;" />
<line x1="161.5" y1="100.0" x2="178.0" y2="124.0" style="stroke:black; stroke-width:1px;" />
<line x1="161.5" y1="100.0" x2="194.0" y2="124.0" style="stroke:black; stroke-width:1px;" />
<line x1="161.5" y1="100.0" x2="226.5" y2="124.0" style="stroke:black; stroke-width:1px;" />
<line x1="226.5" y1="131.0" x2="226.5" y2="155.0" style="stroke:black; stroke-width:1px;" />
<line x1="161.5" y1="100.0" x2="260.5" y2="124.0" style="stroke:black; stroke-width:1px;" />
<line x1="319.125" y1="69.0" x2="272.58333333333337" y2="93.0" style="stroke:black; stroke-width:1px;" />
<line x1="319.125" y1="69.0" x2="364.1666666666667" y2="93.0" style="stroke:black; stroke-width:1px;" />
<line x1="319.125" y1="69.0" x2="471.75" y2="93.0" style="stroke:black; stroke-width:1px;" />
<line x1="471.75" y1="100.0" x2="322.0" y2="124.0" style="stroke:black; stroke-width:1px;" />
<line x1="322.0" y1="131.0" x2="295.0" y2="155.0" style="stroke:black; stroke-width:1px;" />
<line x1="295.0" y1="162.0" x2="295.0" y2="186.0" style="stroke:black; stroke-width:1px;" />
<line x1="295.0" y1="193.0" x2="295.0" y2="217.0" style="stroke:black; stroke-width:1px;" />
<line x1="295.0" y1="224.0" x2="295.0" y2="248.0" style="stroke:black; stroke-width:1px;" />
<line x1="295.0" y1="255.0" x2="295.0" y2="279.0" style="stroke:black; stroke-width:1px;" />
<line x1="295.0" y1="286.0" x2="247.0" y2="310.0" style="stroke:black; stroke-width:1px;" />
<line x1="295.0" y1="286.0" x2="273.0" y2="310.0" style="stroke:black; stroke-width:1px;" />
<line x1="295.0" y1="286.0" x2="308.0" y2="310.0" style="stroke:black; stroke-width:1px;" />
<line x1="308.0" y1="317.0" x2="308.0" y2="341.0" style="stroke:black; stroke-width:1px;" />
<line x1="308.0" y1="348.0" x2="308.0" y2="372.0" style="stroke:black; stroke-width:1px;" />
<line x1="308.0" y1="379.0" x2="308.0" y2="403.0" style="stroke:black; stroke-width:1px;" />
<line x1="295.0" y1="286.0" x2="343.0" y2="310.0" style="stroke:black; stroke-width:1px;" />
<line x1="322.0" y1="131.0" x2="349.0" y2="155.0" style="stroke:black; stroke-width:1px;" />
<line x1="471.75" y1="100.0" x2="430.0" y2="124.0" style="stroke:black; stroke-width:1px;" />
<line x1="430.0" y1="131.0" x2="403.0" y2="155.0" style="stroke:black; stroke-width:1px;" />
<line x1="403.0" y1="162.0" x2="403.0" y2="186.0" style="stroke:black; stroke-width:1px;" />
<line x1="403.0" y1="193.0" x2="349.0" y2="217.0" style="stroke:black; stroke-width:1px;" />
<line x1="403.0" y1="193.0" x2="381.5" y2="217.0" style="stroke:black; stroke-width:1px;" />
<line x1="381.5" y1="224.0" x2="381.5" y2="248.0" style="stroke:black; stroke-width:1px;" />
<line x1="403.0" y1="193.0" x2="418.75" y2="217.0" style="stroke:black; stroke-width:1px;" />
<line x1="403.0" y1="193.0" x2="457.0" y2="217.0" style="stroke:black; stroke-width:1px;" />
<line x1="457.0" y1="224.0" x2="412.0" y2="248.0" style="stroke:black; stroke-width:1px;" />
<line x1="412.0" y1="255.0" x2="412.0" y2="279.0" style="stroke:black; stroke-width:1px;" />
<line x1="412.0" y1="286.0" x2="412.0" y2="310.0" style="stroke:black; stroke-width:1px;" />
<line x1="412.0" y1="317.0" x2="412.0" y2="341.0" style="stroke:black; stroke-width:1px;" />
<line x1="457.0" y1="224.0" x2="457.0" y2="248.0" style="stroke:black; stroke-width:1px;" />
<line x1="457.0" y1="255.0" x2="457.0" y2="279.0" style="stroke:black; stroke-width:1px;" />
<line x1="457.0" y1="224.0" x2="502.0" y2="248.0" style="stroke:black; stroke-width:1px;" />
<line x1="502.0" y1="255.0" x2="502.0" y2="279.0" style="stroke:black; stroke-width:1px;" />
<line x1="502.0" y1="286.0" x2="502.0" y2="310.0" style="stroke:black; stroke-width:1px;" />
<line x1="502.0" y1="317.0" x2="502.0" y2="341.0" style="stroke:black; stroke-width:1px;" />
<line x1="430.0" y1="131.0" x2="457.0" y2="155.0" style="stroke:black; stroke-width:1px;" />
<line x1="471.75" y1="100.0" x2="621.5" y2="124.0" style="stroke:black; stroke-width:1px;" />
<line x1="621.5" y1="131.0" x2="594.5" y2="155.0" style="stroke:black; stroke-width:1px;" />
<line x1="594.5" y1="162.0" x2="594.5" y2="186.0" style="stroke:black; stroke-width:1px;" />
<line x1="594.5" y1="193.0" x2="594.5" y2="217.0" style="stroke:black; stroke-width:1px;" />
<line x1="594.5" y1="224.0" x2="594.5" y2="248.0" style="stroke:black; stroke-width:1px;" />
<line x1="594.5" y1="255.0" x2="594.5" y2="279.0" style="stroke:black; stroke-width:1px;" />
<line x1="594.5" y1="286.0" x2="546.5" y2="310.0" style="stroke:black; stroke-width:1px;" />
<line x1="594.5" y1="286.0" x2="572.5" y2="310.0" style="stroke:black; stroke-width:1px;" />
<line x1="594.5" y1="286.0" x2="607.5" y2="310.0" style="stroke:black; stroke-width:1px;" />
<line x1="607.5" y1="317.0" x2="607.5" y2="341.0" style="stroke:black; stroke-width:1px;" />
<line x1="607.5" y1="348.0" x2="607.5" y2="372.0" style="stroke:black; stroke-width:1px;" />
<line x1="607.5" y1="379.0" x2="607.5" y2="403.0" style="stroke:black; stroke-width:1px;" />
<line x1="594.5" y1="286.0" x2="642.5" y2="310.0" style="stroke:black; stroke-width:1px;" />
<line x1="621.5" y1="131.0" x2="648.5" y2="155.0" style="stroke:black; stroke-width:1px;" />
<line x1="319.125" y1="69.0" x2="511.25" y2="93.0" style="stroke:black; stroke-width:1px;" />
<line x1="461.59375" y1="7.0" x2="741.25" y2="31.0" style="stroke:black; stroke-width:1px;" />
<line x1="741.25" y1="38.0" x2="691.75" y2="62.0" style="stroke:black; stroke-width:1px;" />
<line x1="691.75" y1="69.0" x2="670.0" y2="93.0" style="stroke:black; stroke-width:1px;" />
<line x1="670.0" y1="100.0" x2="670.0" y2="124.0" style="stroke:black; stroke-width:1px;" />
<line x1="691.75" y1="69.0" x2="713.5" y2="93.0" style="stroke:black; stroke-width:1px;" />
<line x1="741.25" y1="38.0" x2="790.75" y2="62.0" style="stroke:black; stroke-width:1px;" />
<line x1="790.75" y1="69.0" x2="740.5" y2="93.0" style="stroke:black; stroke-width:1px;" />
<line x1="790.75" y1="69.0" x2="755.5" y2="93.0" style="stroke:black; stroke-width:1px;" />
<line x1="790.75" y1="69.0" x2="770.5" y2="93.0" style="stroke:black; stroke-width:1px;" />
<line x1="790.75" y1="69.0" x2="801.5" y2="93.0" style="stroke:black; stroke-width:1px;" />
<line x1="801.5" y1="100.0" x2="801.5" y2="124.0" style="stroke:black; stroke-width:1px;" />
<line x1="801.5" y1="131.0" x2="774.5" y2="155.0" style="stroke:black; stroke-width:1px;" />
<line x1="774.5" y1="162.0" x2="774.5" y2="186.0" style="stroke:black; stroke-width:1px;" />
<line x1="774.5" y1="193.0" x2="733.25" y2="217.0" style="stroke:black; stroke-width:1px;" />
<line x1="774.5" y1="193.0" x2="765.75" y2="217.0" style="stroke:black; stroke-width:1px;" />
<line x1="765.75" y1="224.0" x2="765.75" y2="248.0" style="stroke:black; stroke-width:1px;" />
<line x1="774.5" y1="193.0" x2="790.25" y2="217.0" style="stroke:black; stroke-width:1px;" />
<line x1="774.5" y1="193.0" x2="815.75" y2="217.0" style="stroke:black; stroke-width:1px;" />
<line x1="815.75" y1="224.0" x2="815.75" y2="248.0" style="stroke:black; stroke-width:1px;" />
<line x1="815.75" y1="255.0" x2="815.75" y2="279.0" style="stroke:black; stroke-width:1px;" />
<line x1="815.75" y1="286.0" x2="764.75" y2="310.0" style="stroke:black; stroke-width:1px;" />
<line x1="815.75" y1="286.0" x2="796.75" y2="310.0" style="stroke:black; stroke-width:1px;" />
<line x1="815.75" y1="286.0" x2="831.75" y2="310.0" style="stroke:black; stroke-width:1px;" />
<line x1="831.75" y1="317.0" x2="778.75" y2="341.0" style="stroke:black; stroke-width:1px;" />
<line x1="778.75" y1="348.0" x2="778.75" y2="372.0" style="stroke:black; stroke-width:1px;" />
<line x1="778.75" y1="379.0" x2="778.75" y2="403.0" style="stroke:black; stroke-width:1px;" />
<line x1="831.75" y1="317.0" x2="805.25" y2="341.0" style="stroke:black; stroke-width:1px;" />
<line x1="831.75" y1="317.0" x2="831.75" y2="341.0" style="stroke:black; stroke-width:1px;" />
<line x1="831.75" y1="348.0" x2="831.75" y2="372.0" style="stroke:black; stroke-width:1px;" />
<line x1="831.75" y1="379.0" x2="831.75" y2="403.0" style="stroke:black; stroke-width:1px;" />
<line x1="831.75" y1="317.0" x2="858.25" y2="341.0" style="stroke:black; stroke-width:1px;" />
<line x1="831.75" y1="317.0" x2="884.75" y2="341.0" style="stroke:black; stroke-width:1px;" />
<line x1="884.75" y1="348.0" x2="884.75" y2="372.0" style="stroke:black; stroke-width:1px;" />
<line x1="884.75" y1="379.0" x2="884.75" y2="403.0" style="stroke:black; stroke-width:1px;" />
<line x1="815.75" y1="286.0" x2="866.75" y2="310.0" style="stroke:black; stroke-width:1px;" />
<line x1="801.5" y1="131.0" x2="828.5" y2="155.0" style="stroke:black; stroke-width:1px;" />
<line x1="790.75" y1="69.0" x2="841.0" y2="93.0" style="stroke:black; stroke-width:1px;" />
<rect x="755.75" y="372.0" width="46.0" height="14.0" style="fill:orange; stroke:rgb(0,0,0);" rx="1"/>
<text x="757" y="381" style="font-family:sans-serif;font-size:10px;">
valores
</text>
<rect x="568.5" y="310.0" width="8.0" height="14.0" style="fill:orange; stroke:rgb(0,0,0);" rx="1"/>
<text x="570" y="319" style="font-family:sans-serif;font-size:10px;">
(
</text>
<rect x="123.0" y="124.0" width="43.0" height="14.0" style="fill:orange; stroke:rgb(0,0,0);" rx="1"/>
<text x="125" y="133" style="font-family:sans-serif;font-size:10px;">
tipovar
</text>
<rect x="339.0" y="310.0" width="8.0" height="14.0" style="fill:orange; stroke:rgb(0,0,0);" rx="1"/>
<text x="341" y="319" style="font-family:sans-serif;font-size:10px;">
)
</text>
<rect x="781.5" y="93.0" width="40.0" height="14.0" style="fill:orange; stroke:rgb(0,0,0);" rx="1"/>
<text x="783" y="102" style="font-family:sans-serif;font-size:10px;">
trecho
</text>
<rect x="241.0" y="279.0" width="108.0" height="14.0" style="fill:orange; stroke:rgb(0,0,0);" rx="1"/>
<text x="243" y="288" style="font-family:sans-serif;font-size:10px;">
chamadadefuncao
</text>
<rect x="7.0" y="124.0" width="27.0" height="14.0" style="fill:orange; stroke:rgb(0,0,0);" rx="1"/>
<text x="9" y="133" style="font-family:sans-serif;font-size:10px;">
void
</text>
<rect x="283.0" y="217.0" width="24.0" height="14.0" style="fill:orange; stroke:rgb(0,0,0);" rx="1"/>
<text x="285" y="226" style="font-family:sans-serif;font-size:10px;">
exp
</text>
<rect x="380.5" y="279.0" width="63.0" height="14.0" style="fill:orange; stroke:rgb(0,0,0);" rx="1"/>
<text x="382" y="288" style="font-family:sans-serif;font-size:10px;">
expprefixo
</text>
<rect x="491.0" y="310.0" width="22.0" height="14.0" style="fill:orange; stroke:rgb(0,0,0);" rx="1"/>
<text x="493" y="319" style="font-family:sans-serif;font-size:10px;">
var
</text>
<rect x="593.5" y="124.0" width="56.0" height="14.0" style="fill:orange; stroke:rgb(0,0,0);" rx="1"/>
<text x="595" y="133" style="font-family:sans-serif;font-size:10px;">
comando
</text>
<rect x="570.5" y="186.0" width="48.0" height="14.0" style="fill:orange; stroke:rgb(0,0,0);" rx="1"/>
<text x="572" y="195" style="font-family:sans-serif;font-size:10px;">
listaexp
</text>
<rect x="724.25" y="31.0" width="34.0" height="14.0" style="fill:orange; stroke:rgb(0,0,0);" rx="1"/>
<text x="726" y="40" style="font-family:sans-serif;font-size:10px;">
bloco
</text>
<rect x="402.0" y="124.0" width="56.0" height="14.0" style="fill:orange; stroke:rgb(0,0,0);" rx="1"/>
<text x="404" y="133" style="font-family:sans-serif;font-size:10px;">
comando
</text>
<rect x="872.75" y="341.0" width="24.0" height="14.0" style="fill:orange; stroke:rgb(0,0,0);" rx="1"/>
<text x="874" y="350" style="font-family:sans-serif;font-size:10px;">
exp
</text>
<rect x="807.75" y="310.0" width="48.0" height="14.0" style="fill:orange; stroke:rgb(0,0,0);" rx="1"/>
<text x="809" y="319" style="font-family:sans-serif;font-size:10px;">
listaexp
</text>
<rect x="294.0" y="124.0" width="56.0" height="14.0" style="fill:orange; stroke:rgb(0,0,0);" rx="1"/>
<text x="296" y="133" style="font-family:sans-serif;font-size:10px;">
comando
</text>
<rect x="498.75" y="93.0" width="25.0" height="14.0" style="fill:orange; stroke:rgb(0,0,0);" rx="1"/>
<text x="500" y="102" style="font-family:sans-serif;font-size:10px;">
end
</text>
<rect x="551.5" y="155.0" width="86.0" height="14.0" style="fill:orange; stroke:rgb(0,0,0);" rx="1"/>
<text x="553" y="164" style="font-family:sans-serif;font-size:10px;">
comandounico
</text>
<rect x="400.0" y="248.0" width="24.0" height="14.0" style="fill:orange; stroke:rgb(0,0,0);" rx="1"/>
<text x="402" y="257" style="font-family:sans-serif;font-size:10px;">
exp
</text>
<rect x="252.0" y="155.0" width="86.0" height="14.0" style="fill:orange; stroke:rgb(0,0,0);" rx="1"/>
<text x="254" y="164" style="font-family:sans-serif;font-size:10px;">
comandounico
</text>
<rect x="582.5" y="217.0" width="24.0" height="14.0" style="fill:orange; stroke:rgb(0,0,0);" rx="1"/>
<text x="584" y="226" style="font-family:sans-serif;font-size:10px;">
exp
</text>
<rect x="731.5" y="155.0" width="86.0" height="14.0" style="fill:orange; stroke:rgb(0,0,0);" rx="1"/>
<text x="733" y="164" style="font-family:sans-serif;font-size:10px;">
comandounico
</text>
<rect x="808.75" y="372.0" width="46.0" height="14.0" style="fill:orange; stroke:rgb(0,0,0);" rx="1"/>
<text x="810" y="381" style="font-family:sans-serif;font-size:10px;">
valores
</text>
<rect x="190.0" y="124.0" width="8.0" height="14.0" style="fill:orange; stroke:rgb(0,0,0);" rx="1"/>
<text x="192" y="133" style="font-family:sans-serif;font-size:10px;">
,
</text>
<rect x="862.75" y="310.0" width="8.0" height="14.0" style="fill:orange; stroke:rgb(0,0,0);" rx="1"/>
<text x="864" y="319" style="font-family:sans-serif;font-size:10px;">
)
</text>
<rect x="445.09375" y="0.0" width="33.0" height="14.0" style="fill:orange; stroke:rgb(0,0,0);" rx="1"/>
<text x="447" y="9" style="font-family:sans-serif;font-size:10px;">
inicio
</text>
<rect x="540.5" y="279.0" width="108.0" height="14.0" style="fill:orange; stroke:rgb(0,0,0);" rx="1"/>
<text x="542" y="288" style="font-family:sans-serif;font-size:10px;">
chamadadefuncao
</text>
<rect x="783.75" y="217.0" width="13.0" height="14.0" style="fill:orange; stroke:rgb(0,0,0);" rx="1"/>
<text x="785" y="226" style="font-family:sans-serif;font-size:10px;">
=
</text>
<rect x="284.0" y="310.0" width="48.0" height="14.0" style="fill:orange; stroke:rgb(0,0,0);" rx="1"/>
<text x="286" y="319" style="font-family:sans-serif;font-size:10px;">
listaexp
</text>
<rect x="644.5" y="155.0" width="8.0" height="14.0" style="fill:orange; stroke:rgb(0,0,0);" rx="1"/>
<text x="646" y="164" style="font-family:sans-serif;font-size:10px;">
;
</text>
<rect x="48.0" y="93.0" width="42.0" height="14.0" style="fill:orange; stroke:rgb(0,0,0);" rx="1"/>
<text x="50" y="102" style="font-family:sans-serif;font-size:10px;">
funcao
</text>
<rect x="470.5" y="279.0" width="63.0" height="14.0" style="fill:orange; stroke:rgb(0,0,0);" rx="1"/>
<text x="472" y="288" style="font-family:sans-serif;font-size:10px;">
expprefixo
</text>
<rect x="360.0" y="155.0" width="86.0" height="14.0" style="fill:orange; stroke:rgb(0,0,0);" rx="1"/>
<text x="362" y="164" style="font-family:sans-serif;font-size:10px;">
comandounico
</text>
<rect x="296.0" y="341.0" width="24.0" height="14.0" style="fill:orange; stroke:rgb(0,0,0);" rx="1"/>
<text x="298" y="350" style="font-family:sans-serif;font-size:10px;">
exp
</text>
<rect x="164.9375" y="31.0" width="34.0" height="14.0" style="fill:orange; stroke:rgb(0,0,0);" rx="1"/>
<text x="166" y="40" style="font-family:sans-serif;font-size:10px;">
bloco
</text>
<rect x="602.0" y="403.0" width="11.0" height="14.0" style="fill:orange; stroke:rgb(0,0,0);" rx="1"/>
<text x="604" y="412" style="font-family:sans-serif;font-size:10px;">
1
</text>
<rect x="583.5" y="310.0" width="48.0" height="14.0" style="fill:orange; stroke:rgb(0,0,0);" rx="1"/>
<text x="585" y="319" style="font-family:sans-serif;font-size:10px;">
listaexp
</text>
<rect x="135.5" y="155.0" width="18.0" height="14.0" style="fill:orange; stroke:rgb(0,0,0);" rx="1"/>
<text x="137" y="164" style="font-family:sans-serif;font-size:10px;">
int
</text>
<rect x="697.5" y="93.0" width="32.0" height="14.0" style="fill:orange; stroke:rgb(0,0,0);" rx="1"/>
<text x="699" y="102" style="font-family:sans-serif;font-size:10px;">
main
</text>
<rect x="746.75" y="62.0" width="88.0" height="14.0" style="fill:orange; stroke:rgb(0,0,0);" rx="1"/>
<text x="748" y="71" style="font-family:sans-serif;font-size:10px;">
corpodafuncao
</text>
<rect x="828.5" y="93.0" width="25.0" height="14.0" style="fill:orange; stroke:rgb(0,0,0);" rx="1"/>
<text x="830" y="102" style="font-family:sans-serif;font-size:10px;">
end
</text>
<rect x="345.0" y="186.0" width="116.0" height="14.0" style="fill:orange; stroke:rgb(0,0,0);" rx="1"/>
<text x="347" y="195" style="font-family:sans-serif;font-size:10px;">
comandoexpressao
</text>
<rect x="208.0" y="155.0" width="37.0" height="14.0" style="fill:orange; stroke:rgb(0,0,0);" rx="1"/>
<text x="210" y="164" style="font-family:sans-serif;font-size:10px;">
string
</text>
<rect x="595.5" y="341.0" width="24.0" height="14.0" style="fill:orange; stroke:rgb(0,0,0);" rx="1"/>
<text x="597" y="350" style="font-family:sans-serif;font-size:10px;">
exp
</text>
<rect x="345.0" y="155.0" width="8.0" height="14.0" style="fill:orange; stroke:rgb(0,0,0);" rx="1"/>
<text x="347" y="164" style="font-family:sans-serif;font-size:10px;">
;
</text>
<rect x="271.0" y="186.0" width="48.0" height="14.0" style="fill:orange; stroke:rgb(0,0,0);" rx="1"/>
<text x="273" y="195" style="font-family:sans-serif;font-size:10px;">
listaexp
</text>
<rect x="302.5" y="403.0" width="11.0" height="14.0" style="fill:orange; stroke:rgb(0,0,0);" rx="1"/>
<text x="304" y="412" style="font-family:sans-serif;font-size:10px;">
1
</text>
<rect x="563.0" y="248.0" width="63.0" height="14.0" style="fill:orange; stroke:rgb(0,0,0);" rx="1"/>
<text x="565" y="257" style="font-family:sans-serif;font-size:10px;">
expprefixo
</text>
<rect x="718.75" y="217.0" width="29.0" height="14.0" style="fill:orange; stroke:rgb(0,0,0);" rx="1"/>
<text x="720" y="226" style="font-family:sans-serif;font-size:10px;">
auto
</text>
<rect x="407.0" y="341.0" width="10.0" height="14.0" style="fill:orange; stroke:rgb(0,0,0);" rx="1"/>
<text x="409" y="350" style="font-family:sans-serif;font-size:10px;">
x
</text>
<rect x="736.5" y="93.0" width="8.0" height="14.0" style="fill:orange; stroke:rgb(0,0,0);" rx="1"/>
<text x="738" y="102" style="font-family:sans-serif;font-size:10px;">
(
</text>
<rect x="453.0" y="155.0" width="8.0" height="14.0" style="fill:orange; stroke:rgb(0,0,0);" rx="1"/>
<text x="455" y="164" style="font-family:sans-serif;font-size:10px;">
;
</text>
<rect x="41.0" y="124.0" width="43.0" height="14.0" style="fill:orange; stroke:rgb(0,0,0);" rx="1"/>
<text x="43" y="133" style="font-family:sans-serif;font-size:10px;">
tipovar
</text>
<rect x="370.5" y="217.0" width="22.0" height="14.0" style="fill:orange; stroke:rgb(0,0,0);" rx="1"/>
<text x="372" y="226" style="font-family:sans-serif;font-size:10px;">
var
</text>
<rect x="773.5" y="124.0" width="56.0" height="14.0" style="fill:orange; stroke:rgb(0,0,0);" rx="1"/>
<text x="775" y="133" style="font-family:sans-serif;font-size:10px;">
comando
</text>
<rect x="370.0" y="248.0" width="23.0" height="14.0" style="fill:orange; stroke:rgb(0,0,0);" rx="1"/>
<text x="372" y="257" style="font-family:sans-serif;font-size:10px;">
res
</text>
<rect x="716.5" y="186.0" width="116.0" height="14.0" style="fill:orange; stroke:rgb(0,0,0);" rx="1"/>
<text x="718" y="195" style="font-family:sans-serif;font-size:10px;">
comandoexpressao
</text>
<rect x="91.0" y="124.0" width="10.0" height="14.0" style="fill:orange; stroke:rgb(0,0,0);" rx="1"/>
<text x="93" y="133" style="font-family:sans-serif;font-size:10px;">
x
</text>
<rect x="450.5" y="279.0" width="13.0" height="14.0" style="fill:orange; stroke:rgb(0,0,0);" rx="1"/>
<text x="452" y="288" style="font-family:sans-serif;font-size:10px;">
+
</text>
<rect x="490.0" y="248.0" width="24.0" height="14.0" style="fill:orange; stroke:rgb(0,0,0);" rx="1"/>
<text x="492" y="257" style="font-family:sans-serif;font-size:10px;">
exp
</text>
<rect x="861.75" y="372.0" width="46.0" height="14.0" style="fill:orange; stroke:rgb(0,0,0);" rx="1"/>
<text x="863" y="381" style="font-family:sans-serif;font-size:10px;">
valores
</text>
<rect x="751.5" y="93.0" width="8.0" height="14.0" style="fill:orange; stroke:rgb(0,0,0);" rx="1"/>
<text x="753" y="102" style="font-family:sans-serif;font-size:10px;">
)
</text>
<rect x="584.5" y="372.0" width="46.0" height="14.0" style="fill:orange; stroke:rgb(0,0,0);" rx="1"/>
<text x="586" y="381" style="font-family:sans-serif;font-size:10px;">
valores
</text>
<rect x="854.25" y="341.0" width="8.0" height="14.0" style="fill:orange; stroke:rgb(0,0,0);" rx="1"/>
<text x="856" y="350" style="font-family:sans-serif;font-size:10px;">
,
</text>
<rect x="451.75" y="93.0" width="40.0" height="14.0" style="fill:orange; stroke:rgb(0,0,0);" rx="1"/>
<text x="453" y="102" style="font-family:sans-serif;font-size:10px;">
trecho
</text>
<rect x="760.75" y="248.0" width="10.0" height="14.0" style="fill:orange; stroke:rgb(0,0,0);" rx="1"/>
<text x="762" y="257" style="font-family:sans-serif;font-size:10px;">
x
</text>
<rect x="0.0" y="93.0" width="41.0" height="14.0" style="fill:orange; stroke:rgb(0,0,0);" rx="1"/>
<text x="2" y="102" style="font-family:sans-serif;font-size:10px;">
tiporet
</text>
<rect x="108.0" y="124.0" width="8.0" height="14.0" style="fill:orange; stroke:rgb(0,0,0);" rx="1"/>
<text x="110" y="133" style="font-family:sans-serif;font-size:10px;">
,
</text>
<rect x="803.75" y="217.0" width="24.0" height="14.0" style="fill:orange; stroke:rgb(0,0,0);" rx="1"/>
<text x="805" y="226" style="font-family:sans-serif;font-size:10px;">
exp
</text>
<rect x="268.58333333333337" y="93.0" width="8.0" height="14.0" style="fill:orange; stroke:rgb(0,0,0);" rx="1"/>
<text x="270" y="102" style="font-family:sans-serif;font-size:10px;">
)
</text>
<rect x="360.1666666666667" y="93.0" width="8.0" height="14.0" style="fill:orange; stroke:rgb(0,0,0);" rx="1"/>
<text x="362" y="102" style="font-family:sans-serif;font-size:10px;">
:
</text>
<rect x="412.25" y="217.0" width="13.0" height="14.0" style="fill:orange; stroke:rgb(0,0,0);" rx="1"/>
<text x="414" y="226" style="font-family:sans-serif;font-size:10px;">
=
</text>
<rect x="401.0" y="310.0" width="22.0" height="14.0" style="fill:orange; stroke:rgb(0,0,0);" rx="1"/>
<text x="403" y="319" style="font-family:sans-serif;font-size:10px;">
var
</text>
<rect x="439.5" y="248.0" width="35.0" height="14.0" style="fill:orange; stroke:rgb(0,0,0);" rx="1"/>
<text x="441" y="257" style="font-family:sans-serif;font-size:10px;">
opbin
</text>
<rect x="866.75" y="403.0" width="36.0" height="14.0" style="fill:orange; stroke:rgb(0,0,0);" rx="1"/>
<text x="868" y="412" style="font-family:sans-serif;font-size:10px;">
"test"
</text>
<rect x="766.75" y="341.0" width="24.0" height="14.0" style="fill:orange; stroke:rgb(0,0,0);" rx="1"/>
<text x="768" y="350" style="font-family:sans-serif;font-size:10px;">
exp
</text>
<rect x="123.0" y="93.0" width="8.0" height="14.0" style="fill:orange; stroke:rgb(0,0,0);" rx="1"/>
<text x="125" y="102" style="font-family:sans-serif;font-size:10px;">
(
</text>
<rect x="269.0" y="310.0" width="8.0" height="14.0" style="fill:orange; stroke:rgb(0,0,0);" rx="1"/>
<text x="271" y="319" style="font-family:sans-serif;font-size:10px;">
(
</text>
<rect x="784.25" y="248.0" width="63.0" height="14.0" style="fill:orange; stroke:rgb(0,0,0);" rx="1"/>
<text x="786" y="257" style="font-family:sans-serif;font-size:10px;">
expprefixo
</text>
<rect x="819.75" y="341.0" width="24.0" height="14.0" style="fill:orange; stroke:rgb(0,0,0);" rx="1"/>
<text x="821" y="350" style="font-family:sans-serif;font-size:10px;">
exp
</text>
<rect x="53.5" y="155.0" width="18.0" height="14.0" style="fill:orange; stroke:rgb(0,0,0);" rx="1"/>
<text x="55" y="164" style="font-family:sans-serif;font-size:10px;">
int
</text>
<rect x="826.25" y="403.0" width="11.0" height="14.0" style="fill:orange; stroke:rgb(0,0,0);" rx="1"/>
<text x="828" y="412" style="font-family:sans-serif;font-size:10px;">
3
</text>
<rect x="761.75" y="279.0" width="108.0" height="14.0" style="fill:orange; stroke:rgb(0,0,0);" rx="1"/>
<text x="763" y="288" style="font-family:sans-serif;font-size:10px;">
chamadadefuncao
</text>
<rect x="445.0" y="217.0" width="24.0" height="14.0" style="fill:orange; stroke:rgb(0,0,0);" rx="1"/>
<text x="447" y="226" style="font-family:sans-serif;font-size:10px;">
exp
</text>
<rect x="792.75" y="310.0" width="8.0" height="14.0" style="fill:orange; stroke:rgb(0,0,0);" rx="1"/>
<text x="794" y="319" style="font-family:sans-serif;font-size:10px;">
(
</text>
<rect x="743.75" y="310.0" width="42.0" height="14.0" style="fill:orange; stroke:rgb(0,0,0);" rx="1"/>
<text x="745" y="319" style="font-family:sans-serif;font-size:10px;">
funcao
</text>
<rect x="824.5" y="155.0" width="8.0" height="14.0" style="fill:orange; stroke:rgb(0,0,0);" rx="1"/>
<text x="826" y="164" style="font-family:sans-serif;font-size:10px;">
;
</text>
<rect x="638.5" y="310.0" width="8.0" height="14.0" style="fill:orange; stroke:rgb(0,0,0);" rx="1"/>
<text x="640" y="319" style="font-family:sans-serif;font-size:10px;">
)
</text>
<rect x="773.25" y="403.0" width="11.0" height="14.0" style="fill:orange; stroke:rgb(0,0,0);" rx="1"/>
<text x="775" y="412" style="font-family:sans-serif;font-size:10px;">
3
</text>
<rect x="205.0" y="124.0" width="43.0" height="14.0" style="fill:orange; stroke:rgb(0,0,0);" rx="1"/>
<text x="207" y="133" style="font-family:sans-serif;font-size:10px;">
tipovar
</text>
<rect x="531.5" y="310.0" width="30.0" height="14.0" style="fill:orange; stroke:rgb(0,0,0);" rx="1"/>
<text x="533" y="319" style="font-family:sans-serif;font-size:10px;">
print
</text>
<rect x="801.25" y="341.0" width="8.0" height="14.0" style="fill:orange; stroke:rgb(0,0,0);" rx="1"/>
<text x="803" y="350" style="font-family:sans-serif;font-size:10px;">
,
</text>
<rect x="647.75" y="62.0" width="88.0" height="14.0" style="fill:orange; stroke:rgb(0,0,0);" rx="1"/>
<text x="649" y="71" style="font-family:sans-serif;font-size:10px;">
nomedafuncao
</text>
<rect x="497.0" y="341.0" width="10.0" height="14.0" style="fill:orange; stroke:rgb(0,0,0);" rx="1"/>
<text x="499" y="350" style="font-family:sans-serif;font-size:10px;">
y
</text>
<rect x="649.5" y="93.0" width="41.0" height="14.0" style="fill:orange; stroke:rgb(0,0,0);" rx="1"/>
<text x="651" y="102" style="font-family:sans-serif;font-size:10px;">
tiporet
</text>
<rect x="754.75" y="217.0" width="22.0" height="14.0" style="fill:orange; stroke:rgb(0,0,0);" rx="1"/>
<text x="756" y="226" style="font-family:sans-serif;font-size:10px;">
var
</text>
<rect x="285.0" y="372.0" width="46.0" height="14.0" style="fill:orange; stroke:rgb(0,0,0);" rx="1"/>
<text x="287" y="381" style="font-family:sans-serif;font-size:10px;">
valores
</text>
<rect x="656.5" y="124.0" width="27.0" height="14.0" style="fill:orange; stroke:rgb(0,0,0);" rx="1"/>
<text x="658" y="133" style="font-family:sans-serif;font-size:10px;">
void
</text>
<rect x="173.0" y="124.0" width="10.0" height="14.0" style="fill:orange; stroke:rgb(0,0,0);" rx="1"/>
<text x="175" y="133" style="font-family:sans-serif;font-size:10px;">
y
</text>
<rect x="275.125" y="62.0" width="88.0" height="14.0" style="fill:orange; stroke:rgb(0,0,0);" rx="1"/>
<text x="277" y="71" style="font-family:sans-serif;font-size:10px;">
corpodafuncao
</text>
<rect x="138.0" y="93.0" width="47.0" height="14.0" style="fill:orange; stroke:rgb(0,0,0);" rx="1"/>
<text x="140" y="102" style="font-family:sans-serif;font-size:10px;">
listapar
</text>
<rect x="0.75" y="62.0" width="88.0" height="14.0" style="fill:orange; stroke:rgb(0,0,0);" rx="1"/>
<text x="2" y="71" style="font-family:sans-serif;font-size:10px;">
nomedafuncao
</text>
<rect x="255.0" y="124.0" width="11.0" height="14.0" style="fill:orange; stroke:rgb(0,0,0);" rx="1"/>
<text x="257" y="133" style="font-family:sans-serif;font-size:10px;">
s
</text>
<rect x="263.5" y="248.0" width="63.0" height="14.0" style="fill:orange; stroke:rgb(0,0,0);" rx="1"/>
<text x="265" y="257" style="font-family:sans-serif;font-size:10px;">
expprefixo
</text>
<rect x="334.5" y="217.0" width="29.0" height="14.0" style="fill:orange; stroke:rgb(0,0,0);" rx="1"/>
<text x="336" y="226" style="font-family:sans-serif;font-size:10px;">
auto
</text>
<rect x="766.5" y="93.0" width="8.0" height="14.0" style="fill:orange; stroke:rgb(0,0,0);" rx="1"/>
<text x="768" y="102" style="font-family:sans-serif;font-size:10px;">
:
</text>
<rect x="232.0" y="310.0" width="30.0" height="14.0" style="fill:orange; stroke:rgb(0,0,0);" rx="1"/>
<text x="234" y="319" style="font-family:sans-serif;font-size:10px;">
print
</text>
</svg>