<svg width="1212.2" height="711.7" xmlns="http://www.w3.org/2000/svg" xmlns:xlink="http://www.w3.org/1999/xlink"><line x1="168.84375" y1="7.0" x2="168.84375" y2="31.0" style="stroke:black; stroke-width:1px;" />
<line x1="168.84375" y1="38.0" x2="67.75" y2="62.0" style="stroke:black; stroke-width:1px;" />
<line x1="67.75" y1="69.0" x2="22.5" y2="93.0" style="stroke:black; stroke-width:1px;" />
<line x1="67.75" y1="69.0" x2="72.5" y2="93.0" style="stroke:black; stroke-width:1px;" />
<line x1="72.5" y1="100.0" x2="72.5" y2="124.0" style="stroke:black; stroke-width:1px;" />
<line x1="72.5" y1="131.0" x2="72.5" y2="155.0" style="stroke:black; stroke-width:1px;" />
<line x1="67.75" y1="69.0" x2="113.0" y2="93.0" style="stroke:black; stroke-width:1px;" />
<line x1="168.84375" y1="38.0" x2="269.9375" y2="62.0" style="stroke:black; stroke-width:1px;" />
<line x1="269.9375" y1="69.0" x2="146.5" y2="93.0" style="stroke:black; stroke-width:1px;" />
<line x1="269.9375" y1="69.0" x2="181.0" y2="93.0" style="stroke:black; stroke-width:1px;" />
<line x1="181.0" y1="100.0" x2="122.5" y2="124.0" style="stroke:black; stroke-width:1px;" />
<line x1="122.5" y1="131.0" x2="122.5" y2="155.0" style="stroke:black; stroke-width:1px;" />
<line x1="181.0" y1="100.0" x2="156.5" y2="124.0" style="stroke:black; stroke-width:1px;" />
<line x1="181.0" y1="100.0" x2="173.0" y2="124.0" style="stroke:black; stroke-width:1px;" />
<line x1="181.0" y1="100.0" x2="205.5" y2="124.0" style="stroke:black; stroke-width:1px;" />
<line x1="205.5" y1="131.0" x2="205.5" y2="155.0" style="stroke:black; stroke-width:1px;" />
<line x1="181.0" y1="100.0" x2="239.5" y2="124.0" style="stroke:black; stroke-width:1px;" />
<line x1="269.9375" y1="69.0" x2="246.29166666666669" y2="93.0" style="stroke:black; stroke-width:1px;" />
<line x1="269.9375" y1="69.0" x2="292.08333333333337" y2="93.0" style="stroke:black; stroke-width:1px;" />
<line x1="269.9375" y1="69.0" x2="353.875" y2="93.0" style="stroke:black; stroke-width:1px;" />
<line x1="353.875" y1="100.0" x2="291.5" y2="124.0" style="stroke:black; stroke-width:1px;" />
<line x1="291.5" y1="131.0" x2="264.5" y2="155.0" style="stroke:black; stroke-width:1px;" />
<line x1="264.5" y1="162.0" x2="264.5" y2="186.0" style="stroke:black; stroke-width:1px;" />
<line x1="264.5" y1="193.0" x2="207.0" y2="217.0" style="stroke:black; stroke-width:1px;" />
<line x1="264.5" y1="193.0" x2="239.5" y2="217.0" style="stroke:black; stroke-width:1px;" />
<line x1="239.5" y1="224.0" x2="239.5" y2="248.0" style="stroke:black; stroke-width:1px;" />
<line x1="264.5" y1="193.0" x2="280.25" y2="217.0" style="stroke:black; stroke-width:1px;" />
<line x1="264.5" y1="193.0" x2="322.0" y2="217.0" style="stroke:black; stroke-width:1px;" />
<line x1="322.0" y1="224.0" x2="277.0" y2="248.0" style="stroke:black; stroke-width:1px;" />
<line x1="277.0" y1="255.0" x2="277.0" y2="279.0" style="stroke:black; stroke-width:1px;" />
<line x1="277.0" y1="286.0" x2="277.0" y2="310.0" style="stroke:black; stroke-width:1px;" />
<line x1="277.0" y1="317.0" x2="277.0" y2="341.0" style="stroke:black; stroke-width:1px;" />
<line x1="322.0" y1="224.0" x2="322.0" y2="248.0" style="stroke:black; stroke-width:1px;" />
<line x1="322.0" y1="255.0" x2="322.0" y2="279.0" style="stroke:black; stroke-width:1px;" />
<line x1="322.0" y1="224.0" x2="367.0" y2="248.0" style="stroke:black; stroke-width:1px;" />
<line x1="367.0" y1="255.0" x2="367.0" y2="279.0" style="stroke:black; stroke-width:1px;" />
<line x1="367.0" y1="286.0" x2="367.0" y2="310.0" style="stroke:black; stroke-width:1px;" />
<line x1="367.0" y1="317.0" x2="367.0" y2="341.0" style="stroke:black; stroke-width:1px;" />
<line x1="291.5" y1="131.0" x2="318.5" y2="155.0" style="stroke:black; stroke-width:1px;" />
<line x1="353.875" y1="100.0" x2="416.25" y2="124.0" style="stroke:black; stroke-width:1px;" />
<line x1="416.25" y1="131.0" x2="373.5" y2="155.0" style="stroke:black; stroke-width:1px;" />
<line x1="416.25" y1="131.0" x2="424.0" y2="155.0" style="stroke:black; stroke-width:1px;" />
<line x1="424.0" y1="162.0" x2="424.0" y2="186.0" style="stroke:black; stroke-width:1px;" />
<line x1="424.0" y1="193.0" x2="424.0" y2="217.0" style="stroke:black; stroke-width:1px;" />
<line x1="424.0" y1="224.0" x2="424.0" y2="248.0" style="stroke:black; stroke-width:1px;" />
<line x1="424.0" y1="255.0" x2="424.0" y2="279.0" style="stroke:black; stroke-width:1px;" />
<line x1="416.25" y1="131.0" x2="459.0" y2="155.0" style="stroke:black; stroke-width:1px;" />
<line x1="269.9375" y1="69.0" x2="393.375" y2="93.0" style="stroke:black; stroke-width:1px;" />
<rect x="333.875" y="93.0" width="40.0" height="14.0" style="fill:orange; stroke:rgb(0,0,0);" rx="1"/>
<text x="335" y="102" style="font-family:sans-serif;font-size:10px;">
trecho
</text>
<rect x="455.0" y="155.0" width="8.0" height="14.0" style="fill:orange; stroke:rgb(0,0,0);" rx="1"/>
<text x="457" y="164" style="font-family:sans-serif;font-size:10px;">
;
</text>
<rect x="263.5" y="124.0" width="56.0" height="14.0" style="fill:orange; stroke:rgb(0,0,0);" rx="1"/>
<text x="265" y="133" style="font-family:sans-serif;font-size:10px;">
comando
</text>
<rect x="23.75" y="62.0" width="88.0" height="14.0" style="fill:orange; stroke:rgb(0,0,0);" rx="1"/>
<text x="25" y="71" style="font-family:sans-serif;font-size:10px;">
nomedafuncao
</text>
<rect x="314.5" y="155.0" width="8.0" height="14.0" style="fill:orange; stroke:rgb(0,0,0);" rx="1"/>
<text x="316" y="164" style="font-family:sans-serif;font-size:10px;">
;
</text>
<rect x="412.0" y="186.0" width="24.0" height="14.0" style="fill:orange; stroke:rgb(0,0,0);" rx="1"/>
<text x="414" y="195" style="font-family:sans-serif;font-size:10px;">
exp
</text>
<rect x="228.5" y="217.0" width="22.0" height="14.0" style="fill:orange; stroke:rgb(0,0,0);" rx="1"/>
<text x="230" y="226" style="font-family:sans-serif;font-size:10px;">
var
</text>
<rect x="169.0" y="124.0" width="8.0" height="14.0" style="fill:orange; stroke:rgb(0,0,0);" rx="1"/>
<text x="171" y="133" style="font-family:sans-serif;font-size:10px;">
,
</text>
<rect x="354.0" y="155.0" width="39.0" height="14.0" style="fill:orange; stroke:rgb(0,0,0);" rx="1"/>
<text x="356" y="164" style="font-family:sans-serif;font-size:10px;">
return
</text>
<rect x="392.5" y="217.0" width="63.0" height="14.0" style="fill:orange; stroke:rgb(0,0,0);" rx="1"/>
<text x="394" y="226" style="font-family:sans-serif;font-size:10px;">
expprefixo
</text>
<rect x="63.5" y="155.0" width="18.0" height="14.0" style="fill:orange; stroke:rgb(0,0,0);" rx="1"/>
<text x="65" y="164" style="font-family:sans-serif;font-size:10px;">
int
</text>
<rect x="184.0" y="124.0" width="43.0" height="14.0" style="fill:orange; stroke:rgb(0,0,0);" rx="1"/>
<text x="186" y="133" style="font-family:sans-serif;font-size:10px;">
tipovar
</text>
<rect x="52.0" y="93.0" width="41.0" height="14.0" style="fill:orange; stroke:rgb(0,0,0);" rx="1"/>
<text x="54" y="102" style="font-family:sans-serif;font-size:10px;">
tiporet
</text>
<rect x="304.5" y="248.0" width="35.0" height="14.0" style="fill:orange; stroke:rgb(0,0,0);" rx="1"/>
<text x="306" y="257" style="font-family:sans-serif;font-size:10px;">
opbin
</text>
<rect x="242.29166666666669" y="93.0" width="8.0" height="14.0" style="fill:orange; stroke:rgb(0,0,0);" rx="1"/>
<text x="244" y="102" style="font-family:sans-serif;font-size:10px;">
)
</text>
<rect x="405.5" y="279.0" width="37.0" height="14.0" style="fill:orange; stroke:rgb(0,0,0);" rx="1"/>
<text x="407" y="288" style="font-family:sans-serif;font-size:10px;">
result
</text>
<rect x="225.9375" y="62.0" width="88.0" height="14.0" style="fill:orange; stroke:rgb(0,0,0);" rx="1"/>
<text x="227" y="71" style="font-family:sans-serif;font-size:10px;">
corpodafuncao
</text>
<rect x="100.0" y="93.0" width="26.0" height="14.0" style="fill:orange; stroke:rgb(0,0,0);" rx="1"/>
<text x="102" y="102" style="font-family:sans-serif;font-size:10px;">
calc
</text>
<rect x="196.5" y="155.0" width="18.0" height="14.0" style="fill:orange; stroke:rgb(0,0,0);" rx="1"/>
<text x="198" y="164" style="font-family:sans-serif;font-size:10px;">
int
</text>
<rect x="310.0" y="217.0" width="24.0" height="14.0" style="fill:orange; stroke:rgb(0,0,0);" rx="1"/>
<text x="312" y="226" style="font-family:sans-serif;font-size:10px;">
exp
</text>
<rect x="221.5" y="155.0" width="86.0" height="14.0" style="fill:orange; stroke:rgb(0,0,0);" rx="1"/>
<text x="223" y="164" style="font-family:sans-serif;font-size:10px;">
comandounico
</text>
<rect x="356.0" y="310.0" width="22.0" height="14.0" style="fill:orange; stroke:rgb(0,0,0);" rx="1"/>
<text x="358" y="319" style="font-family:sans-serif;font-size:10px;">
var
</text>
<rect x="157.5" y="93.0" width="47.0" height="14.0" style="fill:orange; stroke:rgb(0,0,0);" rx="1"/>
<text x="159" y="102" style="font-family:sans-serif;font-size:10px;">
listapar
</text>
<rect x="245.5" y="279.0" width="63.0" height="14.0" style="fill:orange; stroke:rgb(0,0,0);" rx="1"/>
<text x="247" y="288" style="font-family:sans-serif;font-size:10px;">
expprefixo
</text>
<rect x="142.5" y="93.0" width="8.0" height="14.0" style="fill:orange; stroke:rgb(0,0,0);" rx="1"/>
<text x="144" y="102" style="font-family:sans-serif;font-size:10px;">
(
</text>
<rect x="288.08333333333337" y="93.0" width="8.0" height="14.0" style="fill:orange; stroke:rgb(0,0,0);" rx="1"/>
<text x="290" y="102" style="font-family:sans-serif;font-size:10px;">
:
</text>
<rect x="265.0" y="248.0" width="24.0" height="14.0" style="fill:orange; stroke:rgb(0,0,0);" rx="1"/>
<text x="267" y="257" style="font-family:sans-serif;font-size:10px;">
exp
</text>
<rect x="206.5" y="186.0" width="116.0" height="14.0" style="fill:orange; stroke:rgb(0,0,0);" rx="1"/>
<text x="208" y="195" style="font-family:sans-serif;font-size:10px;">
comandoexpressao
</text>
<rect x="361.5" y="341.0" width="11.0" height="14.0" style="fill:orange; stroke:rgb(0,0,0);" rx="1"/>
<text x="363" y="350" style="font-family:sans-serif;font-size:10px;">
b
</text>
<rect x="380.875" y="93.0" width="25.0" height="14.0" style="fill:orange; stroke:rgb(0,0,0);" rx="1"/>
<text x="382" y="102" style="font-family:sans-serif;font-size:10px;">
end
</text>
<rect x="113.5" y="155.0" width="18.0" height="14.0" style="fill:orange; stroke:rgb(0,0,0);" rx="1"/>
<text x="115" y="164" style="font-family:sans-serif;font-size:10px;">
int
</text>
<rect x="273.75" y="217.0" width="13.0" height="14.0" style="fill:orange; stroke:rgb(0,0,0);" rx="1"/>
<text x="275" y="226" style="font-family:sans-serif;font-size:10px;">
=
</text>
<rect x="413.0" y="248.0" width="22.0" height="14.0" style="fill:orange; stroke:rgb(0,0,0);" rx="1"/>
<text x="415" y="257" style="font-family:sans-serif;font-size:10px;">
var
</text>
<rect x="51.0" y="124.0" width="43.0" height="14.0" style="fill:orange; stroke:rgb(0,0,0);" rx="1"/>
<text x="53" y="133" style="font-family:sans-serif;font-size:10px;">
tipovar
</text>
<rect x="152.34375" y="0.0" width="33.0" height="14.0" style="fill:orange; stroke:rgb(0,0,0);" rx="1"/>
<text x="154" y="9" style="font-family:sans-serif;font-size:10px;">
inicio
</text>
<rect x="151.0" y="124.0" width="11.0" height="14.0" style="fill:orange; stroke:rgb(0,0,0);" rx="1"/>
<text x="153" y="133" style="font-family:sans-serif;font-size:10px;">
a
</text>
<rect x="400.0" y="155.0" width="48.0" height="14.0" style="fill:orange; stroke:rgb(0,0,0);" rx="1"/>
<text x="402" y="164" style="font-family:sans-serif;font-size:10px;">
listaexp
</text>
<rect x="0.0" y="93.0" width="45.0" height="14.0" style="fill:orange; stroke:rgb(0,0,0);" rx="1"/>
<text x="2" y="102" style="font-family:sans-serif;font-size:10px;">
fastcall
</text>
<rect x="335.5" y="279.0" width="63.0" height="14.0" style="fill:orange; stroke:rgb(0,0,0);" rx="1"/>
<text x="337" y="288" style="font-family:sans-serif;font-size:10px;">
expprefixo
</text>
<rect x="271.5" y="341.0" width="11.0" height="14.0" style="fill:orange; stroke:rgb(0,0,0);" rx="1"/>
<text x="273" y="350" style="font-family:sans-serif;font-size:10px;">
a
</text>
<rect x="370.75" y="124.0" width="91.0" height="14.0" style="fill:orange; stroke:rgb(0,0,0);" rx="1"/>
<text x="372" y="133" style="font-family:sans-serif;font-size:10px;">
ultimocomando
</text>
<rect x="355.0" y="248.0" width="24.0" height="14.0" style="fill:orange; stroke:rgb(0,0,0);" rx="1"/>
<text x="357" y="257" style="font-family:sans-serif;font-size:10px;">
exp
</text>
<rect x="315.5" y="279.0" width="13.0" height="14.0" style="fill:orange; stroke:rgb(0,0,0);" rx="1"/>
<text x="317" y="288" style="font-family:sans-serif;font-size:10px;">
+
</text>
<rect x="221.0" y="248.0" width="37.0" height="14.0" style="fill:orange; stroke:rgb(0,0,0);" rx="1"/>
<text x="223" y="257" style="font-family:sans-serif;font-size:10px;">
result
</text>
<rect x="101.0" y="124.0" width="43.0" height="14.0" style="fill:orange; stroke:rgb(0,0,0);" rx="1"/>
<text x="103" y="133" style="font-family:sans-serif;font-size:10px;">
tipovar
</text>
<rect x="151.84375" y="31.0" width="34.0" height="14.0" style="fill:orange; stroke:rgb(0,0,0);" rx="1"/>
<text x="153" y="40" style="font-family:sans-serif;font-size:10px;">
bloco
</text>
<rect x="234.0" y="124.0" width="11.0" height="14.0" style="fill:orange; stroke:rgb(0,0,0);" rx="1"/>
<text x="236" y="133" style="font-family:sans-serif;font-size:10px;">
b
</text>
<rect x="192.5" y="217.0" width="29.0" height="14.0" style="fill:orange; stroke:rgb(0,0,0);" rx="1"/>
<text x="194" y="226" style="font-family:sans-serif;font-size:10px;">
auto
</text>
<rect x="266.0" y="310.0" width="22.0" height="14.0" style="fill:orange; stroke:rgb(0,0,0);" rx="1"/>
<text x="268" y="319" style="font-family:sans-serif;font-size:10px;">
var
</text>
</svg>