<svg width="1201.2" height="709.5000000000001" xmlns="http://www.w3.org/2000/svg" xmlns:xlink="http://www.w3.org/1999/xlink"><line x1="152.1875" y1="7.0" x2="152.1875" y2="31.0" style="stroke:black; stroke-width:1px;" />
<line x1="152.1875" y1="38.0" x2="66.5" y2="62.0" style="stroke:black; stroke-width:1px;" />
<line x1="66.5" y1="69.0" x2="44.75" y2="93.0" style="stroke:black; stroke-width:1px;" />
<line x1="44.75" y1="100.0" x2="44.75" y2="124.0" style="stroke:black; stroke-width:1px;" />
<line x1="66.5" y1="69.0" x2="88.25" y2="93.0" style="stroke:black; stroke-width:1px;" />
<line x1="152.1875" y1="38.0" x2="237.875" y2="62.0" style="stroke:black; stroke-width:1px;" />
<line x1="237.875" y1="69.0" x2="187.625" y2="93.0" style="stroke:black; stroke-width:1px;" />
<line x1="237.875" y1="69.0" x2="202.625" y2="93.0" style="stroke:black; stroke-width:1px;" />
<line x1="237.875" y1="69.0" x2="217.625" y2="93.0" style="stroke:black; stroke-width:1px;" />
<line x1="237.875" y1="69.0" x2="248.625" y2="93.0" style="stroke:black; stroke-width:1px;" />
<line x1="248.625" y1="100.0" x2="93.25" y2="124.0" style="stroke:black; stroke-width:1px;" />
<line x1="93.25" y1="131.0" x2="66.25" y2="155.0" style="stroke:black; stroke-width:1px;" />
<line x1="66.25" y1="162.0" x2="66.25" y2="186.0" style="stroke:black; stroke-width:1px;" />
<line x1="66.25" y1="193.0" x2="21.5" y2="217.0" style="stroke:black; stroke-width:1px;" />
<line x1="21.5" y1="224.0" x2="21.5" y2="248.0" style="stroke:black; stroke-width:1px;" />
<line x1="66.25" y1="193.0" x2="61.0" y2="217.0" style="stroke:black; stroke-width:1px;" />
<line x1="61.0" y1="224.0" x2="61.0" y2="248.0" style="stroke:black; stroke-width:1px;" />
<line x1="66.25" y1="193.0" x2="85.5" y2="217.0" style="stroke:black; stroke-width:1px;" />
<line x1="66.25" y1="193.0" x2="111.0" y2="217.0" style="stroke:black; stroke-width:1px;" />
<line x1="111.0" y1="224.0" x2="111.0" y2="248.0" style="stroke:black; stroke-width:1px;" />
<line x1="111.0" y1="255.0" x2="111.0" y2="279.0" style="stroke:black; stroke-width:1px;" />
<line x1="93.25" y1="131.0" x2="120.25" y2="155.0" style="stroke:black; stroke-width:1px;" />
<line x1="248.625" y1="100.0" x2="223.25" y2="124.0" style="stroke:black; stroke-width:1px;" />
<line x1="223.25" y1="131.0" x2="196.25" y2="155.0" style="stroke:black; stroke-width:1px;" />
<line x1="196.25" y1="162.0" x2="196.25" y2="186.0" style="stroke:black; stroke-width:1px;" />
<line x1="196.25" y1="193.0" x2="151.5" y2="217.0" style="stroke:black; stroke-width:1px;" />
<line x1="151.5" y1="224.0" x2="151.5" y2="248.0" style="stroke:black; stroke-width:1px;" />
<line x1="196.25" y1="193.0" x2="191.0" y2="217.0" style="stroke:black; stroke-width:1px;" />
<line x1="191.0" y1="224.0" x2="191.0" y2="248.0" style="stroke:black; stroke-width:1px;" />
<line x1="196.25" y1="193.0" x2="215.5" y2="217.0" style="stroke:black; stroke-width:1px;" />
<line x1="196.25" y1="193.0" x2="241.0" y2="217.0" style="stroke:black; stroke-width:1px;" />
<line x1="241.0" y1="224.0" x2="241.0" y2="248.0" style="stroke:black; stroke-width:1px;" />
<line x1="241.0" y1="255.0" x2="241.0" y2="279.0" style="stroke:black; stroke-width:1px;" />
<line x1="223.25" y1="131.0" x2="250.25" y2="155.0" style="stroke:black; stroke-width:1px;" />
<line x1="248.625" y1="100.0" x2="404.0" y2="124.0" style="stroke:black; stroke-width:1px;" />
<line x1="404.0" y1="131.0" x2="377.0" y2="155.0" style="stroke:black; stroke-width:1px;" />
<line x1="377.0" y1="162.0" x2="377.0" y2="186.0" style="stroke:black; stroke-width:1px;" />
<line x1="377.0" y1="193.0" x2="280.0" y2="217.0" style="stroke:black; stroke-width:1px;" />
<line x1="280.0" y1="224.0" x2="280.0" y2="248.0" style="stroke:black; stroke-width:1px;" />
<line x1="377.0" y1="193.0" x2="365.75" y2="217.0" style="stroke:black; stroke-width:1px;" />
<line x1="365.75" y1="224.0" x2="300.0" y2="248.0" style="stroke:black; stroke-width:1px;" />
<line x1="365.75" y1="224.0" x2="322.0" y2="248.0" style="stroke:black; stroke-width:1px;" />
<line x1="322.0" y1="255.0" x2="322.0" y2="279.0" style="stroke:black; stroke-width:1px;" />
<line x1="365.75" y1="224.0" x2="363.5" y2="248.0" style="stroke:black; stroke-width:1px;" />
<line x1="363.5" y1="255.0" x2="363.5" y2="279.0" style="stroke:black; stroke-width:1px;" />
<line x1="365.75" y1="224.0" x2="408.5" y2="248.0" style="stroke:black; stroke-width:1px;" />
<line x1="408.5" y1="255.0" x2="408.5" y2="279.0" style="stroke:black; stroke-width:1px;" />
<line x1="408.5" y1="286.0" x2="408.5" y2="310.0" style="stroke:black; stroke-width:1px;" />
<line x1="408.5" y1="317.0" x2="408.5" y2="341.0" style="stroke:black; stroke-width:1px;" />
<line x1="365.75" y1="224.0" x2="431.5" y2="248.0" style="stroke:black; stroke-width:1px;" />
<line x1="377.0" y1="193.0" x2="474.0" y2="217.0" style="stroke:black; stroke-width:1px;" />
<line x1="474.0" y1="224.0" x2="474.0" y2="248.0" style="stroke:black; stroke-width:1px;" />
<line x1="474.0" y1="255.0" x2="474.0" y2="279.0" style="stroke:black; stroke-width:1px;" />
<line x1="474.0" y1="286.0" x2="474.0" y2="310.0" style="stroke:black; stroke-width:1px;" />
<line x1="404.0" y1="131.0" x2="431.0" y2="155.0" style="stroke:black; stroke-width:1px;" />
<line x1="237.875" y1="69.0" x2="288.125" y2="93.0" style="stroke:black; stroke-width:1px;" />
<rect x="232.0" y="279.0" width="18.0" height="14.0" style="fill:orange; stroke:rgb(0,0,0);" rx="1"/>
<text x="234" y="288" style="font-family:sans-serif;font-size:10px;">
10
</text>
<rect x="357.0" y="279.0" width="13.0" height="14.0" style="fill:orange; stroke:rgb(0,0,0);" rx="1"/>
<text x="359" y="288" style="font-family:sans-serif;font-size:10px;">
=
</text>
<rect x="463.0" y="279.0" width="22.0" height="14.0" style="fill:orange; stroke:rgb(0,0,0);" rx="1"/>
<text x="465" y="288" style="font-family:sans-serif;font-size:10px;">
var
</text>
<rect x="135.6875" y="0.0" width="33.0" height="14.0" style="fill:orange; stroke:rgb(0,0,0);" rx="1"/>
<text x="137" y="9" style="font-family:sans-serif;font-size:10px;">
inicio
</text>
<rect x="334.0" y="155.0" width="86.0" height="14.0" style="fill:orange; stroke:rgb(0,0,0);" rx="1"/>
<text x="336" y="164" style="font-family:sans-serif;font-size:10px;">
comandounico
</text>
<rect x="296.0" y="248.0" width="8.0" height="14.0" style="fill:orange; stroke:rgb(0,0,0);" rx="1"/>
<text x="298" y="257" style="font-family:sans-serif;font-size:10px;">
,
</text>
<rect x="462.0" y="217.0" width="24.0" height="14.0" style="fill:orange; stroke:rgb(0,0,0);" rx="1"/>
<text x="464" y="226" style="font-family:sans-serif;font-size:10px;">
exp
</text>
<rect x="22.5" y="62.0" width="88.0" height="14.0" style="fill:orange; stroke:rgb(0,0,0);" rx="1"/>
<text x="24" y="71" style="font-family:sans-serif;font-size:10px;">
nomedafuncao
</text>
<rect x="427.0" y="155.0" width="8.0" height="14.0" style="fill:orange; stroke:rgb(0,0,0);" rx="1"/>
<text x="429" y="164" style="font-family:sans-serif;font-size:10px;">
;
</text>
<rect x="193.875" y="62.0" width="88.0" height="14.0" style="fill:orange; stroke:rgb(0,0,0);" rx="1"/>
<text x="195" y="71" style="font-family:sans-serif;font-size:10px;">
corpodafuncao
</text>
<rect x="0.0" y="217.0" width="43.0" height="14.0" style="fill:orange; stroke:rgb(0,0,0);" rx="1"/>
<text x="2" y="226" style="font-family:sans-serif;font-size:10px;">
tipovar
</text>
<rect x="269.0" y="217.0" width="22.0" height="14.0" style="fill:orange; stroke:rgb(0,0,0);" rx="1"/>
<text x="271" y="226" style="font-family:sans-serif;font-size:10px;">
var
</text>
<rect x="8.25" y="186.0" width="116.0" height="14.0" style="fill:orange; stroke:rgb(0,0,0);" rx="1"/>
<text x="10" y="195" style="font-family:sans-serif;font-size:10px;">
comandoexpressao
</text>
<rect x="135.1875" y="31.0" width="34.0" height="14.0" style="fill:orange; stroke:rgb(0,0,0);" rx="1"/>
<text x="137" y="40" style="font-family:sans-serif;font-size:10px;">
bloco
</text>
<rect x="138.25" y="186.0" width="116.0" height="14.0" style="fill:orange; stroke:rgb(0,0,0);" rx="1"/>
<text x="140" y="195" style="font-family:sans-serif;font-size:10px;">
comandoexpressao
</text>
<rect x="185.5" y="248.0" width="11.0" height="14.0" style="fill:orange; stroke:rgb(0,0,0);" rx="1"/>
<text x="187" y="257" style="font-family:sans-serif;font-size:10px;">
b
</text>
<rect x="105.5" y="279.0" width="11.0" height="14.0" style="fill:orange; stroke:rgb(0,0,0);" rx="1"/>
<text x="107" y="288" style="font-family:sans-serif;font-size:10px;">
5
</text>
<rect x="180.0" y="217.0" width="22.0" height="14.0" style="fill:orange; stroke:rgb(0,0,0);" rx="1"/>
<text x="182" y="226" style="font-family:sans-serif;font-size:10px;">
var
</text>
<rect x="340.0" y="248.0" width="47.0" height="14.0" style="fill:orange; stroke:rgb(0,0,0);" rx="1"/>
<text x="342" y="257" style="font-family:sans-serif;font-size:10px;">
listaatri
</text>
<rect x="213.625" y="93.0" width="8.0" height="14.0" style="fill:orange; stroke:rgb(0,0,0);" rx="1"/>
<text x="215" y="102" style="font-family:sans-serif;font-size:10px;">
:
</text>
<rect x="153.25" y="155.0" width="86.0" height="14.0" style="fill:orange; stroke:rgb(0,0,0);" rx="1"/>
<text x="155" y="164" style="font-family:sans-serif;font-size:10px;">
comandounico
</text>
<rect x="12.5" y="248.0" width="18.0" height="14.0" style="fill:orange; stroke:rgb(0,0,0);" rx="1"/>
<text x="14" y="257" style="font-family:sans-serif;font-size:10px;">
int
</text>
<rect x="130.0" y="217.0" width="43.0" height="14.0" style="fill:orange; stroke:rgb(0,0,0);" rx="1"/>
<text x="132" y="226" style="font-family:sans-serif;font-size:10px;">
tipovar
</text>
<rect x="376.0" y="124.0" width="56.0" height="14.0" style="fill:orange; stroke:rgb(0,0,0);" rx="1"/>
<text x="378" y="133" style="font-family:sans-serif;font-size:10px;">
comando
</text>
<rect x="397.5" y="310.0" width="22.0" height="14.0" style="fill:orange; stroke:rgb(0,0,0);" rx="1"/>
<text x="399" y="319" style="font-family:sans-serif;font-size:10px;">
var
</text>
<rect x="403.0" y="341.0" width="11.0" height="14.0" style="fill:orange; stroke:rgb(0,0,0);" rx="1"/>
<text x="405" y="350" style="font-family:sans-serif;font-size:10px;">
b
</text>
<rect x="218.0" y="248.0" width="46.0" height="14.0" style="fill:orange; stroke:rgb(0,0,0);" rx="1"/>
<text x="220" y="257" style="font-family:sans-serif;font-size:10px;">
valores
</text>
<rect x="24.25" y="93.0" width="41.0" height="14.0" style="fill:orange; stroke:rgb(0,0,0);" rx="1"/>
<text x="26" y="102" style="font-family:sans-serif;font-size:10px;">
tiporet
</text>
<rect x="31.25" y="124.0" width="27.0" height="14.0" style="fill:orange; stroke:rgb(0,0,0);" rx="1"/>
<text x="33" y="133" style="font-family:sans-serif;font-size:10px;">
void
</text>
<rect x="209.0" y="217.0" width="13.0" height="14.0" style="fill:orange; stroke:rgb(0,0,0);" rx="1"/>
<text x="211" y="226" style="font-family:sans-serif;font-size:10px;">
=
</text>
<rect x="79.0" y="217.0" width="13.0" height="14.0" style="fill:orange; stroke:rgb(0,0,0);" rx="1"/>
<text x="81" y="226" style="font-family:sans-serif;font-size:10px;">
=
</text>
<rect x="183.625" y="93.0" width="8.0" height="14.0" style="fill:orange; stroke:rgb(0,0,0);" rx="1"/>
<text x="185" y="102" style="font-family:sans-serif;font-size:10px;">
(
</text>
<rect x="195.25" y="124.0" width="56.0" height="14.0" style="fill:orange; stroke:rgb(0,0,0);" rx="1"/>
<text x="197" y="133" style="font-family:sans-serif;font-size:10px;">
comando
</text>
<rect x="228.625" y="93.0" width="40.0" height="14.0" style="fill:orange; stroke:rgb(0,0,0);" rx="1"/>
<text x="230" y="102" style="font-family:sans-serif;font-size:10px;">
trecho
</text>
<rect x="50.0" y="217.0" width="22.0" height="14.0" style="fill:orange; stroke:rgb(0,0,0);" rx="1"/>
<text x="52" y="226" style="font-family:sans-serif;font-size:10px;">
var
</text>
<rect x="88.0" y="248.0" width="46.0" height="14.0" style="fill:orange; stroke:rgb(0,0,0);" rx="1"/>
<text x="90" y="257" style="font-family:sans-serif;font-size:10px;">
valores
</text>
<rect x="377.0" y="279.0" width="63.0" height="14.0" style="fill:orange; stroke:rgb(0,0,0);" rx="1"/>
<text x="379" y="288" style="font-family:sans-serif;font-size:10px;">
expprefixo
</text>
<rect x="342.25" y="217.0" width="47.0" height="14.0" style="fill:orange; stroke:rgb(0,0,0);" rx="1"/>
<text x="344" y="226" style="font-family:sans-serif;font-size:10px;">
listaatri
</text>
<rect x="99.0" y="217.0" width="24.0" height="14.0" style="fill:orange; stroke:rgb(0,0,0);" rx="1"/>
<text x="101" y="226" style="font-family:sans-serif;font-size:10px;">
exp
</text>
<rect x="316.5" y="279.0" width="11.0" height="14.0" style="fill:orange; stroke:rgb(0,0,0);" rx="1"/>
<text x="318" y="288" style="font-family:sans-serif;font-size:10px;">
b
</text>
<rect x="275.625" y="93.0" width="25.0" height="14.0" style="fill:orange; stroke:rgb(0,0,0);" rx="1"/>
<text x="277" y="102" style="font-family:sans-serif;font-size:10px;">
end
</text>
<rect x="229.0" y="217.0" width="24.0" height="14.0" style="fill:orange; stroke:rgb(0,0,0);" rx="1"/>
<text x="231" y="226" style="font-family:sans-serif;font-size:10px;">
exp
</text>
<rect x="72.25" y="93.0" width="32.0" height="14.0" style="fill:orange; stroke:rgb(0,0,0);" rx="1"/>
<text x="74" y="102" style="font-family:sans-serif;font-size:10px;">
main
</text>
<rect x="52.0" y="248.0" width="18.0" height="14.0" style="fill:orange; stroke:rgb(0,0,0);" rx="1"/>
<text x="54" y="257" style="font-family:sans-serif;font-size:10px;">
aa
</text>
<rect x="396.5" y="248.0" width="24.0" height="14.0" style="fill:orange; stroke:rgb(0,0,0);" rx="1"/>
<text x="398" y="257" style="font-family:sans-serif;font-size:10px;">
exp
</text>
<rect x="319.0" y="186.0" width="116.0" height="14.0" style="fill:orange; stroke:rgb(0,0,0);" rx="1"/>
<text x="321" y="195" style="font-family:sans-serif;font-size:10px;">
comandoexpressao
</text>
<rect x="198.625" y="93.0" width="8.0" height="14.0" style="fill:orange; stroke:rgb(0,0,0);" rx="1"/>
<text x="200" y="102" style="font-family:sans-serif;font-size:10px;">
)
</text>
<rect x="142.5" y="248.0" width="18.0" height="14.0" style="fill:orange; stroke:rgb(0,0,0);" rx="1"/>
<text x="144" y="257" style="font-family:sans-serif;font-size:10px;">
int
</text>
<rect x="65.25" y="124.0" width="56.0" height="14.0" style="fill:orange; stroke:rgb(0,0,0);" rx="1"/>
<text x="67" y="133" style="font-family:sans-serif;font-size:10px;">
comando
</text>
<rect x="442.5" y="248.0" width="63.0" height="14.0" style="fill:orange; stroke:rgb(0,0,0);" rx="1"/>
<text x="444" y="257" style="font-family:sans-serif;font-size:10px;">
expprefixo
</text>
<rect x="271.0" y="248.0" width="18.0" height="14.0" style="fill:orange; stroke:rgb(0,0,0);" rx="1"/>
<text x="273" y="257" style="font-family:sans-serif;font-size:10px;">
aa
</text>
<rect x="23.25" y="155.0" width="86.0" height="14.0" style="fill:orange; stroke:rgb(0,0,0);" rx="1"/>
<text x="25" y="164" style="font-family:sans-serif;font-size:10px;">
comandounico
</text>
<rect x="311.0" y="248.0" width="22.0" height="14.0" style="fill:orange; stroke:rgb(0,0,0);" rx="1"/>
<text x="313" y="257" style="font-family:sans-serif;font-size:10px;">
var
</text>
<rect x="246.25" y="155.0" width="8.0" height="14.0" style="fill:orange; stroke:rgb(0,0,0);" rx="1"/>
<text x="248" y="164" style="font-family:sans-serif;font-size:10px;">
;
</text>
<rect x="465.0" y="310.0" width="18.0" height="14.0" style="fill:orange; stroke:rgb(0,0,0);" rx="1"/>
<text x="467" y="319" style="font-family:sans-serif;font-size:10px;">
aa
</text>
<rect x="427.5" y="248.0" width="8.0" height="14.0" style="fill:orange; stroke:rgb(0,0,0);" rx="1"/>
<text x="429" y="257" style="font-family:sans-serif;font-size:10px;">
,
</text>
<rect x="116.25" y="155.0" width="8.0" height="14.0" style="fill:orange; stroke:rgb(0,0,0);" rx="1"/>
<text x="118" y="164" style="font-family:sans-serif;font-size:10px;">
;
</text>
</svg>