<svg width="2007.5000000000002" height="686.4000000000001" xmlns="http://www.w3.org/2000/svg" xmlns:xlink="http://www.w3.org/1999/xlink"><line x1="573.21875" y1="7.0" x2="333.25" y2="31.0" style="stroke:black; stroke-width:1px;" />
<line x1="333.25" y1="38.0" x2="18.5" y2="62.0" style="stroke:black; stroke-width:1px;" />
<line x1="333.25" y1="38.0" x2="67.0" y2="62.0" style="stroke:black; stroke-width:1px;" />
<line x1="333.25" y1="38.0" x2="102.5" y2="62.0" style="stroke:black; stroke-width:1px;" />
<line x1="333.25" y1="38.0" x2="136.5" y2="62.0" style="stroke:black; stroke-width:1px;" />
<line x1="136.5" y1="69.0" x2="136.5" y2="93.0" style="stroke:black; stroke-width:1px;" />
<line x1="333.25" y1="38.0" x2="183.0" y2="62.0" style="stroke:black; stroke-width:1px;" />
<line x1="333.25" y1="38.0" x2="212.0" y2="62.0" style="stroke:black; stroke-width:1px;" />
<line x1="333.25" y1="38.0" x2="244.5" y2="62.0" style="stroke:black; stroke-width:1px;" />
<line x1="244.5" y1="69.0" x2="244.5" y2="93.0" style="stroke:black; stroke-width:1px;" />
<line x1="333.25" y1="38.0" x2="290.5" y2="62.0" style="stroke:black; stroke-width:1px;" />
<line x1="333.25" y1="38.0" x2="319.0" y2="62.0" style="stroke:black; stroke-width:1px;" />
<line x1="333.25" y1="38.0" x2="351.5" y2="62.0" style="stroke:black; stroke-width:1px;" />
<line x1="351.5" y1="69.0" x2="351.5" y2="93.0" style="stroke:black; stroke-width:1px;" />
<line x1="333.25" y1="38.0" x2="396.0" y2="62.0" style="stroke:black; stroke-width:1px;" />
<line x1="333.25" y1="38.0" x2="423.0" y2="62.0" style="stroke:black; stroke-width:1px;" />
<line x1="333.25" y1="38.0" x2="451.0" y2="62.0" style="stroke:black; stroke-width:1px;" />
<line x1="333.25" y1="38.0" x2="496.5" y2="62.0" style="stroke:black; stroke-width:1px;" />
<line x1="496.5" y1="69.0" x2="496.5" y2="93.0" style="stroke:black; stroke-width:1px;" />
<line x1="333.25" y1="38.0" x2="548.0" y2="62.0" style="stroke:black; stroke-width:1px;" />
<line x1="333.25" y1="38.0" x2="582.0" y2="62.0" style="stroke:black; stroke-width:1px;" />
<line x1="333.25" y1="38.0" x2="598.5" y2="62.0" style="stroke:black; stroke-width:1px;" />
<line x1="333.25" y1="38.0" x2="615.0" y2="62.0" style="stroke:black; stroke-width:1px;" />
<line x1="333.25" y1="38.0" x2="631.5" y2="62.0" style="stroke:black; stroke-width:1px;" />
<line x1="333.25" y1="38.0" x2="648.0" y2="62.0" style="stroke:black; stroke-width:1px;" />
<line x1="573.21875" y1="7.0" x2="813.1875" y2="31.0" style="stroke:black; stroke-width:1px;" />
<line x1="813.1875" y1="38.0" x2="703.0" y2="62.0" style="stroke:black; stroke-width:1px;" />
<line x1="703.0" y1="69.0" x2="681.25" y2="93.0" style="stroke:black; stroke-width:1px;" />
<line x1="681.25" y1="100.0" x2="681.25" y2="124.0" style="stroke:black; stroke-width:1px;" />
<line x1="703.0" y1="69.0" x2="724.75" y2="93.0" style="stroke:black; stroke-width:1px;" />
<line x1="813.1875" y1="38.0" x2="923.375" y2="62.0" style="stroke:black; stroke-width:1px;" />
<line x1="923.375" y1="69.0" x2="873.125" y2="93.0" style="stroke:black; stroke-width:1px;" />
<line x1="923.375" y1="69.0" x2="888.125" y2="93.0" style="stroke:black; stroke-width:1px;" />
<line x1="923.375" y1="69.0" x2="903.125" y2="93.0" style="stroke:black; stroke-width:1px;" />
<line x1="923.375" y1="69.0" x2="934.125" y2="93.0" style="stroke:black; stroke-width:1px;" />
<line x1="934.125" y1="100.0" x2="729.75" y2="124.0" style="stroke:black; stroke-width:1px;" />
<line x1="729.75" y1="131.0" x2="702.75" y2="155.0" style="stroke:black; stroke-width:1px;" />
<line x1="702.75" y1="162.0" x2="702.75" y2="186.0" style="stroke:black; stroke-width:1px;" />
<line x1="702.75" y1="193.0" x2="642.0" y2="217.0" style="stroke:black; stroke-width:1px;" />
<line x1="642.0" y1="224.0" x2="642.0" y2="248.0" style="stroke:black; stroke-width:1px;" />
<line x1="702.75" y1="193.0" x2="691.5" y2="217.0" style="stroke:black; stroke-width:1px;" />
<line x1="691.5" y1="224.0" x2="691.5" y2="248.0" style="stroke:black; stroke-width:1px;" />
<line x1="702.75" y1="193.0" x2="727.0" y2="217.0" style="stroke:black; stroke-width:1px;" />
<line x1="702.75" y1="193.0" x2="763.5" y2="217.0" style="stroke:black; stroke-width:1px;" />
<line x1="763.5" y1="224.0" x2="727.0" y2="248.0" style="stroke:black; stroke-width:1px;" />
<line x1="763.5" y1="224.0" x2="763.5" y2="248.0" style="stroke:black; stroke-width:1px;" />
<line x1="763.5" y1="255.0" x2="687.5" y2="279.0" style="stroke:black; stroke-width:1px;" />
<line x1="687.5" y1="286.0" x2="687.5" y2="310.0" style="stroke:black; stroke-width:1px;" />
<line x1="687.5" y1="317.0" x2="687.5" y2="341.0" style="stroke:black; stroke-width:1px;" />
<line x1="763.5" y1="255.0" x2="714.0" y2="279.0" style="stroke:black; stroke-width:1px;" />
<line x1="763.5" y1="255.0" x2="740.5" y2="279.0" style="stroke:black; stroke-width:1px;" />
<line x1="740.5" y1="286.0" x2="740.5" y2="310.0" style="stroke:black; stroke-width:1px;" />
<line x1="740.5" y1="317.0" x2="740.5" y2="341.0" style="stroke:black; stroke-width:1px;" />
<line x1="763.5" y1="255.0" x2="767.0" y2="279.0" style="stroke:black; stroke-width:1px;" />
<line x1="763.5" y1="255.0" x2="793.5" y2="279.0" style="stroke:black; stroke-width:1px;" />
<line x1="793.5" y1="286.0" x2="793.5" y2="310.0" style="stroke:black; stroke-width:1px;" />
<line x1="793.5" y1="317.0" x2="793.5" y2="341.0" style="stroke:black; stroke-width:1px;" />
<line x1="763.5" y1="255.0" x2="816.5" y2="279.0" style="stroke:black; stroke-width:1px;" />
<line x1="763.5" y1="255.0" x2="839.5" y2="279.0" style="stroke:black; stroke-width:1px;" />
<line x1="839.5" y1="286.0" x2="830.5" y2="310.0" style="stroke:black; stroke-width:1px;" />
<line x1="839.5" y1="286.0" x2="848.5" y2="310.0" style="stroke:black; stroke-width:1px;" />
<line x1="763.5" y1="224.0" x2="800.0" y2="248.0" style="stroke:black; stroke-width:1px;" />
<line x1="729.75" y1="131.0" x2="756.75" y2="155.0" style="stroke:black; stroke-width:1px;" />
<line x1="934.125" y1="100.0" x2="926.25" y2="124.0" style="stroke:black; stroke-width:1px;" />
<line x1="926.25" y1="131.0" x2="899.25" y2="155.0" style="stroke:black; stroke-width:1px;" />
<line x1="899.25" y1="162.0" x2="899.25" y2="186.0" style="stroke:black; stroke-width:1px;" />
<line x1="899.25" y1="193.0" x2="838.5" y2="217.0" style="stroke:black; stroke-width:1px;" />
<line x1="838.5" y1="224.0" x2="838.5" y2="248.0" style="stroke:black; stroke-width:1px;" />
<line x1="899.25" y1="193.0" x2="888.0" y2="217.0" style="stroke:black; stroke-width:1px;" />
<line x1="888.0" y1="224.0" x2="888.0" y2="248.0" style="stroke:black; stroke-width:1px;" />
<line x1="899.25" y1="193.0" x2="923.5" y2="217.0" style="stroke:black; stroke-width:1px;" />
<line x1="899.25" y1="193.0" x2="960.0" y2="217.0" style="stroke:black; stroke-width:1px;" />
<line x1="960.0" y1="224.0" x2="923.5" y2="248.0" style="stroke:black; stroke-width:1px;" />
<line x1="960.0" y1="224.0" x2="960.0" y2="248.0" style="stroke:black; stroke-width:1px;" />
<line x1="960.0" y1="255.0" x2="884.0" y2="279.0" style="stroke:black; stroke-width:1px;" />
<line x1="884.0" y1="286.0" x2="884.0" y2="310.0" style="stroke:black; stroke-width:1px;" />
<line x1="884.0" y1="317.0" x2="884.0" y2="341.0" style="stroke:black; stroke-width:1px;" />
<line x1="960.0" y1="255.0" x2="910.5" y2="279.0" style="stroke:black; stroke-width:1px;" />
<line x1="960.0" y1="255.0" x2="937.0" y2="279.0" style="stroke:black; stroke-width:1px;" />
<line x1="937.0" y1="286.0" x2="937.0" y2="310.0" style="stroke:black; stroke-width:1px;" />
<line x1="937.0" y1="317.0" x2="937.0" y2="341.0" style="stroke:black; stroke-width:1px;" />
<line x1="960.0" y1="255.0" x2="963.5" y2="279.0" style="stroke:black; stroke-width:1px;" />
<line x1="960.0" y1="255.0" x2="990.0" y2="279.0" style="stroke:black; stroke-width:1px;" />
<line x1="990.0" y1="286.0" x2="990.0" y2="310.0" style="stroke:black; stroke-width:1px;" />
<line x1="990.0" y1="317.0" x2="990.0" y2="341.0" style="stroke:black; stroke-width:1px;" />
<line x1="960.0" y1="255.0" x2="1013.0" y2="279.0" style="stroke:black; stroke-width:1px;" />
<line x1="960.0" y1="255.0" x2="1036.0" y2="279.0" style="stroke:black; stroke-width:1px;" />
<line x1="1036.0" y1="286.0" x2="1027.0" y2="310.0" style="stroke:black; stroke-width:1px;" />
<line x1="1036.0" y1="286.0" x2="1045.0" y2="310.0" style="stroke:black; stroke-width:1px;" />
<line x1="960.0" y1="224.0" x2="996.5" y2="248.0" style="stroke:black; stroke-width:1px;" />
<line x1="926.25" y1="131.0" x2="953.25" y2="155.0" style="stroke:black; stroke-width:1px;" />
<line x1="934.125" y1="100.0" x2="1138.5" y2="124.0" style="stroke:black; stroke-width:1px;" />
<line x1="1138.5" y1="131.0" x2="1111.5" y2="155.0" style="stroke:black; stroke-width:1px;" />
<line x1="1111.5" y1="162.0" x2="1111.5" y2="186.0" style="stroke:black; stroke-width:1px;" />
<line x1="1111.5" y1="193.0" x2="1053.5" y2="217.0" style="stroke:black; stroke-width:1px;" />
<line x1="1053.5" y1="224.0" x2="1053.5" y2="248.0" style="stroke:black; stroke-width:1px;" />
<line x1="1111.5" y1="193.0" x2="1102.0" y2="217.0" style="stroke:black; stroke-width:1px;" />
<line x1="1102.0" y1="224.0" x2="1102.0" y2="248.0" style="stroke:black; stroke-width:1px;" />
<line x1="1111.5" y1="193.0" x2="1135.25" y2="217.0" style="stroke:black; stroke-width:1px;" />
<line x1="1111.5" y1="193.0" x2="1169.5" y2="217.0" style="stroke:black; stroke-width:1px;" />
<line x1="1169.5" y1="224.0" x2="1133.0" y2="248.0" style="stroke:black; stroke-width:1px;" />
<line x1="1169.5" y1="224.0" x2="1169.5" y2="248.0" style="stroke:black; stroke-width:1px;" />
<line x1="1169.5" y1="255.0" x2="1080.5" y2="279.0" style="stroke:black; stroke-width:1px;" />
<line x1="1080.5" y1="286.0" x2="1080.5" y2="310.0" style="stroke:black; stroke-width:1px;" />
<line x1="1080.5" y1="317.0" x2="1080.5" y2="341.0" style="stroke:black; stroke-width:1px;" />
<line x1="1169.5" y1="255.0" x2="1107.0" y2="279.0" style="stroke:black; stroke-width:1px;" />
<line x1="1169.5" y1="255.0" x2="1133.5" y2="279.0" style="stroke:black; stroke-width:1px;" />
<line x1="1133.5" y1="286.0" x2="1133.5" y2="310.0" style="stroke:black; stroke-width:1px;" />
<line x1="1133.5" y1="317.0" x2="1133.5" y2="341.0" style="stroke:black; stroke-width:1px;" />
<line x1="1169.5" y1="255.0" x2="1160.0" y2="279.0" style="stroke:black; stroke-width:1px;" />
<line x1="1169.5" y1="255.0" x2="1186.5" y2="279.0" style="stroke:black; stroke-width:1px;" />
<line x1="1186.5" y1="286.0" x2="1186.5" y2="310.0" style="stroke:black; stroke-width:1px;" />
<line x1="1186.5" y1="317.0" x2="1186.5" y2="341.0" style="stroke:black; stroke-width:1px;" />
<line x1="1169.5" y1="255.0" x2="1222.5" y2="279.0" style="stroke:black; stroke-width:1px;" />
<line x1="1169.5" y1="255.0" x2="1258.5" y2="279.0" style="stroke:black; stroke-width:1px;" />
<line x1="1258.5" y1="286.0" x2="1222.0" y2="310.0" style="stroke:black; stroke-width:1px;" />
<line x1="1258.5" y1="286.0" x2="1258.5" y2="310.0" style="stroke:black; stroke-width:1px;" />
<line x1="1258.5" y1="317.0" x2="1223.5" y2="341.0" style="stroke:black; stroke-width:1px;" />
<line x1="1223.5" y1="348.0" x2="1223.5" y2="372.0" style="stroke:black; stroke-width:1px;" />
<line x1="1223.5" y1="379.0" x2="1223.5" y2="403.0" style="stroke:black; stroke-width:1px;" />
<line x1="1223.5" y1="410.0" x2="1223.5" y2="434.0" style="stroke:black; stroke-width:1px;" />
<line x1="1258.5" y1="317.0" x2="1258.5" y2="341.0" style="stroke:black; stroke-width:1px;" />
<line x1="1258.5" y1="317.0" x2="1293.5" y2="341.0" style="stroke:black; stroke-width:1px;" />
<line x1="1293.5" y1="348.0" x2="1293.5" y2="372.0" style="stroke:black; stroke-width:1px;" />
<line x1="1293.5" y1="379.0" x2="1293.5" y2="403.0" style="stroke:black; stroke-width:1px;" />
<line x1="1293.5" y1="410.0" x2="1293.5" y2="434.0" style="stroke:black; stroke-width:1px;" />
<line x1="1258.5" y1="286.0" x2="1295.0" y2="310.0" style="stroke:black; stroke-width:1px;" />
<line x1="1169.5" y1="224.0" x2="1206.0" y2="248.0" style="stroke:black; stroke-width:1px;" />
<line x1="1138.5" y1="131.0" x2="1165.5" y2="155.0" style="stroke:black; stroke-width:1px;" />
<line x1="923.375" y1="69.0" x2="973.625" y2="93.0" style="stroke:black; stroke-width:1px;" />
<rect x="1161.5" y="155.0" width="8.0" height="14.0" style="fill:orange; stroke:rgb(0,0,0);" rx="1"/>
<text x="1163" y="164" style="font-family:sans-serif;font-size:10px;">
;
</text>
<rect x="675.5" y="279.0" width="24.0" height="14.0" style="fill:orange; stroke:rgb(0,0,0);" rx="1"/>
<text x="677" y="288" style="font-family:sans-serif;font-size:10px;">
exp
</text>
<rect x="1218.5" y="279.0" width="8.0" height="14.0" style="fill:orange; stroke:rgb(0,0,0);" rx="1"/>
<text x="1220" y="288" style="font-family:sans-serif;font-size:10px;">
,
</text>
<rect x="763.0" y="279.0" width="8.0" height="14.0" style="fill:orange; stroke:rgb(0,0,0);" rx="1"/>
<text x="765" y="288" style="font-family:sans-serif;font-size:10px;">
,
</text>
<rect x="899.125" y="93.0" width="8.0" height="14.0" style="fill:orange; stroke:rgb(0,0,0);" rx="1"/>
<text x="901" y="102" style="font-family:sans-serif;font-size:10px;">
:
</text>
<rect x="680.5" y="217.0" width="22.0" height="14.0" style="fill:orange; stroke:rgb(0,0,0);" rx="1"/>
<text x="682" y="226" style="font-family:sans-serif;font-size:10px;">
var
</text>
<rect x="1039.5" y="310.0" width="11.0" height="14.0" style="fill:orange; stroke:rgb(0,0,0);" rx="1"/>
<text x="1041" y="319" style="font-family:sans-serif;font-size:10px;">
}
</text>
<rect x="1211.5" y="341.0" width="24.0" height="14.0" style="fill:orange; stroke:rgb(0,0,0);" rx="1"/>
<text x="1213" y="350" style="font-family:sans-serif;font-size:10px;">
exp
</text>
<rect x="434.0" y="62.0" width="34.0" height="14.0" style="fill:orange; stroke:rgb(0,0,0);" rx="1"/>
<text x="436" y="71" style="font-family:sans-serif;font-size:10px;">
array
</text>
<rect x="668.5" y="248.0" width="46.0" height="14.0" style="fill:orange; stroke:rgb(0,0,0);" rx="1"/>
<text x="670" y="257" style="font-family:sans-serif;font-size:10px;">
amigo1
</text>
<rect x="556.71875" y="0.0" width="33.0" height="14.0" style="fill:orange; stroke:rgb(0,0,0);" rx="1"/>
<text x="558" y="9" style="font-family:sans-serif;font-size:10px;">
inicio
</text>
<rect x="720.5" y="217.0" width="13.0" height="14.0" style="fill:orange; stroke:rgb(0,0,0);" rx="1"/>
<text x="722" y="226" style="font-family:sans-serif;font-size:10px;">
=
</text>
<rect x="644.75" y="186.0" width="116.0" height="14.0" style="fill:orange; stroke:rgb(0,0,0);" rx="1"/>
<text x="646" y="195" style="font-family:sans-serif;font-size:10px;">
comandoexpressao
</text>
<rect x="877.0" y="217.0" width="22.0" height="14.0" style="fill:orange; stroke:rgb(0,0,0);" rx="1"/>
<text x="879" y="226" style="font-family:sans-serif;font-size:10px;">
var
</text>
<rect x="1128.75" y="217.0" width="13.0" height="14.0" style="fill:orange; stroke:rgb(0,0,0);" rx="1"/>
<text x="1130" y="226" style="font-family:sans-serif;font-size:10px;">
=
</text>
<rect x="948.0" y="217.0" width="24.0" height="14.0" style="fill:orange; stroke:rgb(0,0,0);" rx="1"/>
<text x="950" y="226" style="font-family:sans-serif;font-size:10px;">
exp
</text>
<rect x="1262.0" y="372.0" width="63.0" height="14.0" style="fill:orange; stroke:rgb(0,0,0);" rx="1"/>
<text x="1264" y="381" style="font-family:sans-serif;font-size:10px;">
expprefixo
</text>
<rect x="330.5" y="93.0" width="42.0" height="14.0" style="fill:orange; stroke:rgb(0,0,0);" rx="1"/>
<text x="332" y="102" style="font-family:sans-serif;font-size:10px;">
double
</text>
<rect x="1281.5" y="341.0" width="24.0" height="14.0" style="fill:orange; stroke:rgb(0,0,0);" rx="1"/>
<text x="1283" y="350" style="font-family:sans-serif;font-size:10px;">
exp
</text>
<rect x="918.0" y="248.0" width="11.0" height="14.0" style="fill:orange; stroke:rgb(0,0,0);" rx="1"/>
<text x="920" y="257" style="font-family:sans-serif;font-size:10px;">
{
</text>
<rect x="208.0" y="62.0" width="8.0" height="14.0" style="fill:orange; stroke:rgb(0,0,0);" rx="1"/>
<text x="210" y="71" style="font-family:sans-serif;font-size:10px;">
,
</text>
<rect x="701.75" y="124.0" width="56.0" height="14.0" style="fill:orange; stroke:rgb(0,0,0);" rx="1"/>
<text x="703" y="133" style="font-family:sans-serif;font-size:10px;">
comando
</text>
<rect x="708.75" y="93.0" width="32.0" height="14.0" style="fill:orange; stroke:rgb(0,0,0);" rx="1"/>
<text x="710" y="102" style="font-family:sans-serif;font-size:10px;">
main
</text>
<rect x="914.125" y="93.0" width="40.0" height="14.0" style="fill:orange; stroke:rgb(0,0,0);" rx="1"/>
<text x="916" y="102" style="font-family:sans-serif;font-size:10px;">
trecho
</text>
<rect x="1156.0" y="279.0" width="8.0" height="14.0" style="fill:orange; stroke:rgb(0,0,0);" rx="1"/>
<text x="1158" y="288" style="font-family:sans-serif;font-size:10px;">
,
</text>
<rect x="812.5" y="279.0" width="8.0" height="14.0" style="fill:orange; stroke:rgb(0,0,0);" rx="1"/>
<text x="814" y="288" style="font-family:sans-serif;font-size:10px;">
,
</text>
<rect x="1024.0" y="279.0" width="24.0" height="14.0" style="fill:orange; stroke:rgb(0,0,0);" rx="1"/>
<text x="1026" y="288" style="font-family:sans-serif;font-size:10px;">
exp
</text>
<rect x="1057.0" y="341.0" width="47.0" height="14.0" style="fill:orange; stroke:rgb(0,0,0);" rx="1"/>
<text x="1059" y="350" style="font-family:sans-serif;font-size:10px;">
"Pedro"
</text>
<rect x="1121.5" y="279.0" width="24.0" height="14.0" style="fill:orange; stroke:rgb(0,0,0);" rx="1"/>
<text x="1123" y="288" style="font-family:sans-serif;font-size:10px;">
exp
</text>
<rect x="578.0" y="62.0" width="8.0" height="14.0" style="fill:orange; stroke:rgb(0,0,0);" rx="1"/>
<text x="580" y="71" style="font-family:sans-serif;font-size:10px;">
[
</text>
<rect x="843.0" y="310.0" width="11.0" height="14.0" style="fill:orange; stroke:rgb(0,0,0);" rx="1"/>
<text x="845" y="319" style="font-family:sans-serif;font-size:10px;">
}
</text>
<rect x="593.0" y="62.0" width="11.0" height="14.0" style="fill:orange; stroke:rgb(0,0,0);" rx="1"/>
<text x="595" y="71" style="font-family:sans-serif;font-size:10px;">
2
</text>
<rect x="710.0" y="279.0" width="8.0" height="14.0" style="fill:orange; stroke:rgb(0,0,0);" rx="1"/>
<text x="712" y="288" style="font-family:sans-serif;font-size:10px;">
,
</text>
<rect x="856.25" y="155.0" width="86.0" height="14.0" style="fill:orange; stroke:rgb(0,0,0);" rx="1"/>
<text x="858" y="164" style="font-family:sans-serif;font-size:10px;">
comandounico
</text>
<rect x="739.5" y="248.0" width="48.0" height="14.0" style="fill:orange; stroke:rgb(0,0,0);" rx="1"/>
<text x="741" y="257" style="font-family:sans-serif;font-size:10px;">
listaexp
</text>
<rect x="949.25" y="155.0" width="8.0" height="14.0" style="fill:orange; stroke:rgb(0,0,0);" rx="1"/>
<text x="951" y="164" style="font-family:sans-serif;font-size:10px;">
;
</text>
<rect x="1145.5" y="248.0" width="48.0" height="14.0" style="fill:orange; stroke:rgb(0,0,0);" rx="1"/>
<text x="1147" y="257" style="font-family:sans-serif;font-size:10px;">
listaexp
</text>
<rect x="1021.5" y="310.0" width="11.0" height="14.0" style="fill:orange; stroke:rgb(0,0,0);" rx="1"/>
<text x="1023" y="319" style="font-family:sans-serif;font-size:10px;">
{
</text>
<rect x="620.5" y="217.0" width="43.0" height="14.0" style="fill:orange; stroke:rgb(0,0,0);" rx="1"/>
<text x="622" y="226" style="font-family:sans-serif;font-size:10px;">
tipovar
</text>
<rect x="1163.5" y="310.0" width="46.0" height="14.0" style="fill:orange; stroke:rgb(0,0,0);" rx="1"/>
<text x="1165" y="319" style="font-family:sans-serif;font-size:10px;">
valores
</text>
<rect x="1216.5" y="310.0" width="11.0" height="14.0" style="fill:orange; stroke:rgb(0,0,0);" rx="1"/>
<text x="1218" y="319" style="font-family:sans-serif;font-size:10px;">
{
</text>
<rect x="115.0" y="62.0" width="43.0" height="14.0" style="fill:orange; stroke:rgb(0,0,0);" rx="1"/>
<text x="117" y="71" style="font-family:sans-serif;font-size:10px;">
tipovar
</text>
<rect x="728.5" y="279.0" width="24.0" height="14.0" style="fill:orange; stroke:rgb(0,0,0);" rx="1"/>
<text x="730" y="288" style="font-family:sans-serif;font-size:10px;">
exp
</text>
<rect x="906.5" y="279.0" width="8.0" height="14.0" style="fill:orange; stroke:rgb(0,0,0);" rx="1"/>
<text x="908" y="288" style="font-family:sans-serif;font-size:10px;">
,
</text>
<rect x="961.125" y="93.0" width="25.0" height="14.0" style="fill:orange; stroke:rgb(0,0,0);" rx="1"/>
<text x="963" y="102" style="font-family:sans-serif;font-size:10px;">
end
</text>
<rect x="936.0" y="248.0" width="48.0" height="14.0" style="fill:orange; stroke:rgb(0,0,0);" rx="1"/>
<text x="938" y="257" style="font-family:sans-serif;font-size:10px;">
listaexp
</text>
<rect x="660.75" y="93.0" width="41.0" height="14.0" style="fill:orange; stroke:rgb(0,0,0);" rx="1"/>
<text x="662" y="102" style="font-family:sans-serif;font-size:10px;">
tiporet
</text>
<rect x="967.0" y="310.0" width="46.0" height="14.0" style="fill:orange; stroke:rgb(0,0,0);" rx="1"/>
<text x="969" y="319" style="font-family:sans-serif;font-size:10px;">
valores
</text>
<rect x="1200.5" y="248.0" width="11.0" height="14.0" style="fill:orange; stroke:rgb(0,0,0);" rx="1"/>
<text x="1202" y="257" style="font-family:sans-serif;font-size:10px;">
}
</text>
<rect x="644.0" y="62.0" width="8.0" height="14.0" style="fill:orange; stroke:rgb(0,0,0);" rx="1"/>
<text x="646" y="71" style="font-family:sans-serif;font-size:10px;">
;
</text>
<rect x="1068.5" y="155.0" width="86.0" height="14.0" style="fill:orange; stroke:rgb(0,0,0);" rx="1"/>
<text x="1070" y="164" style="font-family:sans-serif;font-size:10px;">
comandounico
</text>
<rect x="1057.5" y="310.0" width="46.0" height="14.0" style="fill:orange; stroke:rgb(0,0,0);" rx="1"/>
<text x="1059" y="319" style="font-family:sans-serif;font-size:10px;">
valores
</text>
<rect x="817.0" y="217.0" width="43.0" height="14.0" style="fill:orange; stroke:rgb(0,0,0);" rx="1"/>
<text x="819" y="226" style="font-family:sans-serif;font-size:10px;">
tipovar
</text>
<rect x="611.0" y="62.0" width="8.0" height="14.0" style="fill:orange; stroke:rgb(0,0,0);" rx="1"/>
<text x="613" y="71" style="font-family:sans-serif;font-size:10px;">
]
</text>
<rect x="781.5" y="279.0" width="24.0" height="14.0" style="fill:orange; stroke:rgb(0,0,0);" rx="1"/>
<text x="783" y="288" style="font-family:sans-serif;font-size:10px;">
exp
</text>
<rect x="118.0" y="93.0" width="37.0" height="14.0" style="fill:orange; stroke:rgb(0,0,0);" rx="1"/>
<text x="120" y="102" style="font-family:sans-serif;font-size:10px;">
string
</text>
<rect x="1103.0" y="279.0" width="8.0" height="14.0" style="fill:orange; stroke:rgb(0,0,0);" rx="1"/>
<text x="1105" y="288" style="font-family:sans-serif;font-size:10px;">
,
</text>
<rect x="717.5" y="310.0" width="46.0" height="14.0" style="fill:orange; stroke:rgb(0,0,0);" rx="1"/>
<text x="719" y="319" style="font-family:sans-serif;font-size:10px;">
valores
</text>
<rect x="1030.5" y="248.0" width="46.0" height="14.0" style="fill:orange; stroke:rgb(0,0,0);" rx="1"/>
<text x="1032" y="257" style="font-family:sans-serif;font-size:10px;">
Pessoa
</text>
<rect x="223.0" y="62.0" width="43.0" height="14.0" style="fill:orange; stroke:rgb(0,0,0);" rx="1"/>
<text x="225" y="71" style="font-family:sans-serif;font-size:10px;">
tipovar
</text>
<rect x="854.0" y="341.0" width="60.0" height="14.0" style="fill:orange; stroke:rgb(0,0,0);" rx="1"/>
<text x="856" y="350" style="font-family:sans-serif;font-size:10px;">
"Amigo·1"
</text>
<rect x="925.0" y="279.0" width="24.0" height="14.0" style="fill:orange; stroke:rgb(0,0,0);" rx="1"/>
<text x="927" y="288" style="font-family:sans-serif;font-size:10px;">
exp
</text>
<rect x="419.0" y="62.0" width="8.0" height="14.0" style="fill:orange; stroke:rgb(0,0,0);" rx="1"/>
<text x="421" y="71" style="font-family:sans-serif;font-size:10px;">
,
</text>
<rect x="1127.5" y="248.0" width="11.0" height="14.0" style="fill:orange; stroke:rgb(0,0,0);" rx="1"/>
<text x="1129" y="257" style="font-family:sans-serif;font-size:10px;">
{
</text>
<rect x="659.75" y="155.0" width="86.0" height="14.0" style="fill:orange; stroke:rgb(0,0,0);" rx="1"/>
<text x="661" y="164" style="font-family:sans-serif;font-size:10px;">
comandounico
</text>
<rect x="721.5" y="248.0" width="11.0" height="14.0" style="fill:orange; stroke:rgb(0,0,0);" rx="1"/>
<text x="723" y="257" style="font-family:sans-serif;font-size:10px;">
{
</text>
<rect x="1174.5" y="279.0" width="24.0" height="14.0" style="fill:orange; stroke:rgb(0,0,0);" rx="1"/>
<text x="1176" y="288" style="font-family:sans-serif;font-size:10px;">
exp
</text>
<rect x="657.5" y="341.0" width="60.0" height="14.0" style="fill:orange; stroke:rgb(0,0,0);" rx="1"/>
<text x="659" y="350" style="font-family:sans-serif;font-size:10px;">
"Amigo·1"
</text>
<rect x="1212.5" y="403.0" width="22.0" height="14.0" style="fill:orange; stroke:rgb(0,0,0);" rx="1"/>
<text x="1214" y="412" style="font-family:sans-serif;font-size:10px;">
var
</text>
<rect x="884.125" y="93.0" width="8.0" height="14.0" style="fill:orange; stroke:rgb(0,0,0);" rx="1"/>
<text x="886" y="102" style="font-family:sans-serif;font-size:10px;">
)
</text>
<rect x="1110.5" y="124.0" width="56.0" height="14.0" style="fill:orange; stroke:rgb(0,0,0);" rx="1"/>
<text x="1112" y="133" style="font-family:sans-serif;font-size:10px;">
comando
</text>
<rect x="165.0" y="62.0" width="36.0" height="14.0" style="fill:orange; stroke:rgb(0,0,0);" rx="1"/>
<text x="167" y="71" style="font-family:sans-serif;font-size:10px;">
nome
</text>
<rect x="917.0" y="217.0" width="13.0" height="14.0" style="fill:orange; stroke:rgb(0,0,0);" rx="1"/>
<text x="919" y="226" style="font-family:sans-serif;font-size:10px;">
=
</text>
<rect x="861.0" y="310.0" width="46.0" height="14.0" style="fill:orange; stroke:rgb(0,0,0);" rx="1"/>
<text x="863" y="319" style="font-family:sans-serif;font-size:10px;">
valores
</text>
<rect x="0.0" y="62.0" width="37.0" height="14.0" style="fill:orange; stroke:rgb(0,0,0);" rx="1"/>
<text x="2" y="71" style="font-family:sans-serif;font-size:10px;">
struct
</text>
<rect x="865.0" y="248.0" width="46.0" height="14.0" style="fill:orange; stroke:rgb(0,0,0);" rx="1"/>
<text x="867" y="257" style="font-family:sans-serif;font-size:10px;">
amigo2
</text>
<rect x="235.5" y="93.0" width="18.0" height="14.0" style="fill:orange; stroke:rgb(0,0,0);" rx="1"/>
<text x="237" y="102" style="font-family:sans-serif;font-size:10px;">
int
</text>
<rect x="978.0" y="279.0" width="24.0" height="14.0" style="fill:orange; stroke:rgb(0,0,0);" rx="1"/>
<text x="980" y="288" style="font-family:sans-serif;font-size:10px;">
exp
</text>
<rect x="752.75" y="155.0" width="8.0" height="14.0" style="fill:orange; stroke:rgb(0,0,0);" rx="1"/>
<text x="754" y="164" style="font-family:sans-serif;font-size:10px;">
;
</text>
<rect x="1282.5" y="403.0" width="22.0" height="14.0" style="fill:orange; stroke:rgb(0,0,0);" rx="1"/>
<text x="1284" y="412" style="font-family:sans-serif;font-size:10px;">
var
</text>
<rect x="626.0" y="62.0" width="11.0" height="14.0" style="fill:orange; stroke:rgb(0,0,0);" rx="1"/>
<text x="628" y="71" style="font-family:sans-serif;font-size:10px;">
}
</text>
<rect x="898.25" y="124.0" width="56.0" height="14.0" style="fill:orange; stroke:rgb(0,0,0);" rx="1"/>
<text x="900" y="133" style="font-family:sans-serif;font-size:10px;">
comando
</text>
<rect x="622.5" y="248.0" width="39.0" height="14.0" style="fill:orange; stroke:rgb(0,0,0);" rx="1"/>
<text x="624" y="257" style="font-family:sans-serif;font-size:10px;">
Pessa
</text>
<rect x="731.5" y="341.0" width="18.0" height="14.0" style="fill:orange; stroke:rgb(0,0,0);" rx="1"/>
<text x="733" y="350" style="font-family:sans-serif;font-size:10px;">
23
</text>
<rect x="796.1875" y="31.0" width="34.0" height="14.0" style="fill:orange; stroke:rgb(0,0,0);" rx="1"/>
<text x="798" y="40" style="font-family:sans-serif;font-size:10px;">
bloco
</text>
<rect x="1192.0" y="372.0" width="63.0" height="14.0" style="fill:orange; stroke:rgb(0,0,0);" rx="1"/>
<text x="1194" y="381" style="font-family:sans-serif;font-size:10px;">
expprefixo
</text>
<rect x="667.75" y="124.0" width="27.0" height="14.0" style="fill:orange; stroke:rgb(0,0,0);" rx="1"/>
<text x="669" y="133" style="font-family:sans-serif;font-size:10px;">
void
</text>
<rect x="869.125" y="93.0" width="8.0" height="14.0" style="fill:orange; stroke:rgb(0,0,0);" rx="1"/>
<text x="871" y="102" style="font-family:sans-serif;font-size:10px;">
(
</text>
<rect x="879.375" y="62.0" width="88.0" height="14.0" style="fill:orange; stroke:rgb(0,0,0);" rx="1"/>
<text x="881" y="71" style="font-family:sans-serif;font-size:10px;">
corpodafuncao
</text>
<rect x="928.0" y="341.0" width="18.0" height="14.0" style="fill:orange; stroke:rgb(0,0,0);" rx="1"/>
<text x="930" y="350" style="font-family:sans-serif;font-size:10px;">
23
</text>
<rect x="315.0" y="62.0" width="8.0" height="14.0" style="fill:orange; stroke:rgb(0,0,0);" rx="1"/>
<text x="317" y="71" style="font-family:sans-serif;font-size:10px;">
,
</text>
<rect x="1157.5" y="217.0" width="24.0" height="14.0" style="fill:orange; stroke:rgb(0,0,0);" rx="1"/>
<text x="1159" y="226" style="font-family:sans-serif;font-size:10px;">
exp
</text>
<rect x="975.5" y="341.0" width="29.0" height="14.0" style="fill:orange; stroke:rgb(0,0,0);" rx="1"/>
<text x="977" y="350" style="font-family:sans-serif;font-size:10px;">
32.2
</text>
<rect x="1009.0" y="279.0" width="8.0" height="14.0" style="fill:orange; stroke:rgb(0,0,0);" rx="1"/>
<text x="1011" y="288" style="font-family:sans-serif;font-size:10px;">
,
</text>
<rect x="273.0" y="62.0" width="35.0" height="14.0" style="fill:orange; stroke:rgb(0,0,0);" rx="1"/>
<text x="275" y="71" style="font-family:sans-serif;font-size:10px;">
idade
</text>
<rect x="959.5" y="279.0" width="8.0" height="14.0" style="fill:orange; stroke:rgb(0,0,0);" rx="1"/>
<text x="961" y="288" style="font-family:sans-serif;font-size:10px;">
,
</text>
<rect x="330.0" y="62.0" width="43.0" height="14.0" style="fill:orange; stroke:rgb(0,0,0);" rx="1"/>
<text x="332" y="71" style="font-family:sans-serif;font-size:10px;">
tipovar
</text>
<rect x="1032.0" y="217.0" width="43.0" height="14.0" style="fill:orange; stroke:rgb(0,0,0);" rx="1"/>
<text x="1034" y="226" style="font-family:sans-serif;font-size:10px;">
tipovar
</text>
<rect x="1083.5" y="248.0" width="37.0" height="14.0" style="fill:orange; stroke:rgb(0,0,0);" rx="1"/>
<text x="1085" y="257" style="font-family:sans-serif;font-size:10px;">
pedro
</text>
<rect x="1091.0" y="217.0" width="22.0" height="14.0" style="fill:orange; stroke:rgb(0,0,0);" rx="1"/>
<text x="1093" y="226" style="font-family:sans-serif;font-size:10px;">
var
</text>
<rect x="44.0" y="62.0" width="46.0" height="14.0" style="fill:orange; stroke:rgb(0,0,0);" rx="1"/>
<text x="46" y="71" style="font-family:sans-serif;font-size:10px;">
Pessoa
</text>
<rect x="659.0" y="62.0" width="88.0" height="14.0" style="fill:orange; stroke:rgb(0,0,0);" rx="1"/>
<text x="661" y="71" style="font-family:sans-serif;font-size:10px;">
nomedafuncao
</text>
<rect x="316.25" y="31.0" width="34.0" height="14.0" style="fill:orange; stroke:rgb(0,0,0);" rx="1"/>
<text x="318" y="40" style="font-family:sans-serif;font-size:10px;">
bloco
</text>
<rect x="1068.5" y="279.0" width="24.0" height="14.0" style="fill:orange; stroke:rgb(0,0,0);" rx="1"/>
<text x="1070" y="288" style="font-family:sans-serif;font-size:10px;">
exp
</text>
<rect x="1200.5" y="434.0" width="46.0" height="14.0" style="fill:orange; stroke:rgb(0,0,0);" rx="1"/>
<text x="1202" y="443" style="font-family:sans-serif;font-size:10px;">
amigo1
</text>
<rect x="1124.5" y="341.0" width="18.0" height="14.0" style="fill:orange; stroke:rgb(0,0,0);" rx="1"/>
<text x="1126" y="350" style="font-family:sans-serif;font-size:10px;">
25
</text>
<rect x="473.5" y="93.0" width="46.0" height="14.0" style="fill:orange; stroke:rgb(0,0,0);" rx="1"/>
<text x="475" y="102" style="font-family:sans-serif;font-size:10px;">
Pessoa
</text>
<rect x="841.25" y="186.0" width="116.0" height="14.0" style="fill:orange; stroke:rgb(0,0,0);" rx="1"/>
<text x="843" y="195" style="font-family:sans-serif;font-size:10px;">
comandoexpressao
</text>
<rect x="827.5" y="279.0" width="24.0" height="14.0" style="fill:orange; stroke:rgb(0,0,0);" rx="1"/>
<text x="829" y="288" style="font-family:sans-serif;font-size:10px;">
exp
</text>
<rect x="819.0" y="248.0" width="39.0" height="14.0" style="fill:orange; stroke:rgb(0,0,0);" rx="1"/>
<text x="821" y="257" style="font-family:sans-serif;font-size:10px;">
Pessa
</text>
<rect x="1289.5" y="310.0" width="11.0" height="14.0" style="fill:orange; stroke:rgb(0,0,0);" rx="1"/>
<text x="1291" y="319" style="font-family:sans-serif;font-size:10px;">
}
</text>
<rect x="1234.5" y="310.0" width="48.0" height="14.0" style="fill:orange; stroke:rgb(0,0,0);" rx="1"/>
<text x="1236" y="319" style="font-family:sans-serif;font-size:10px;">
listaexp
</text>
<rect x="779.0" y="341.0" width="29.0" height="14.0" style="fill:orange; stroke:rgb(0,0,0);" rx="1"/>
<text x="781" y="350" style="font-family:sans-serif;font-size:10px;">
32.2
</text>
<rect x="825.0" y="310.0" width="11.0" height="14.0" style="fill:orange; stroke:rgb(0,0,0);" rx="1"/>
<text x="827" y="319" style="font-family:sans-serif;font-size:10px;">
{
</text>
<rect x="751.5" y="217.0" width="24.0" height="14.0" style="fill:orange; stroke:rgb(0,0,0);" rx="1"/>
<text x="753" y="226" style="font-family:sans-serif;font-size:10px;">
exp
</text>
<rect x="97.0" y="62.0" width="11.0" height="14.0" style="fill:orange; stroke:rgb(0,0,0);" rx="1"/>
<text x="99" y="71" style="font-family:sans-serif;font-size:10px;">
{
</text>
<rect x="475.0" y="62.0" width="43.0" height="14.0" style="fill:orange; stroke:rgb(0,0,0);" rx="1"/>
<text x="477" y="71" style="font-family:sans-serif;font-size:10px;">
tipovar
</text>
<rect x="1110.5" y="310.0" width="46.0" height="14.0" style="fill:orange; stroke:rgb(0,0,0);" rx="1"/>
<text x="1112" y="319" style="font-family:sans-serif;font-size:10px;">
valores
</text>
<rect x="664.5" y="310.0" width="46.0" height="14.0" style="fill:orange; stroke:rgb(0,0,0);" rx="1"/>
<text x="666" y="319" style="font-family:sans-serif;font-size:10px;">
valores
</text>
<rect x="770.5" y="310.0" width="46.0" height="14.0" style="fill:orange; stroke:rgb(0,0,0);" rx="1"/>
<text x="772" y="319" style="font-family:sans-serif;font-size:10px;">
valores
</text>
<rect x="794.5" y="248.0" width="11.0" height="14.0" style="fill:orange; stroke:rgb(0,0,0);" rx="1"/>
<text x="796" y="257" style="font-family:sans-serif;font-size:10px;">
}
</text>
<rect x="1254.5" y="341.0" width="8.0" height="14.0" style="fill:orange; stroke:rgb(0,0,0);" rx="1"/>
<text x="1256" y="350" style="font-family:sans-serif;font-size:10px;">
,
</text>
<rect x="1172.0" y="341.0" width="29.0" height="14.0" style="fill:orange; stroke:rgb(0,0,0);" rx="1"/>
<text x="1174" y="350" style="font-family:sans-serif;font-size:10px;">
90.2
</text>
<rect x="1246.5" y="279.0" width="24.0" height="14.0" style="fill:orange; stroke:rgb(0,0,0);" rx="1"/>
<text x="1248" y="288" style="font-family:sans-serif;font-size:10px;">
exp
</text>
<rect x="380.0" y="62.0" width="32.0" height="14.0" style="fill:orange; stroke:rgb(0,0,0);" rx="1"/>
<text x="382" y="71" style="font-family:sans-serif;font-size:10px;">
peso
</text>
<rect x="872.0" y="279.0" width="24.0" height="14.0" style="fill:orange; stroke:rgb(0,0,0);" rx="1"/>
<text x="874" y="288" style="font-family:sans-serif;font-size:10px;">
exp
</text>
<rect x="914.0" y="310.0" width="46.0" height="14.0" style="fill:orange; stroke:rgb(0,0,0);" rx="1"/>
<text x="916" y="319" style="font-family:sans-serif;font-size:10px;">
valores
</text>
<rect x="1270.5" y="434.0" width="46.0" height="14.0" style="fill:orange; stroke:rgb(0,0,0);" rx="1"/>
<text x="1272" y="443" style="font-family:sans-serif;font-size:10px;">
amigo2
</text>
<rect x="991.0" y="248.0" width="11.0" height="14.0" style="fill:orange; stroke:rgb(0,0,0);" rx="1"/>
<text x="993" y="257" style="font-family:sans-serif;font-size:10px;">
}
</text>
<rect x="1053.5" y="186.0" width="116.0" height="14.0" style="fill:orange; stroke:rgb(0,0,0);" rx="1"/>
<text x="1055" y="195" style="font-family:sans-serif;font-size:10px;">
comandoexpressao
</text>
<rect x="525.0" y="62.0" width="46.0" height="14.0" style="fill:orange; stroke:rgb(0,0,0);" rx="1"/>
<text x="527" y="71" style="font-family:sans-serif;font-size:10px;">
amigos
</text>
</svg>