<svg width="1256.2" height="720.5000000000001" xmlns="http://www.w3.org/2000/svg" xmlns:xlink="http://www.w3.org/1999/xlink"><line x1="93.5" y1="7.0" x2="93.5" y2="31.0" style="stroke:black; stroke-width:1px;" />
<line x1="93.5" y1="38.0" x2="44.0" y2="62.0" style="stroke:black; stroke-width:1px;" />
<line x1="44.0" y1="69.0" x2="22.25" y2="93.0" style="stroke:black; stroke-width:1px;" />
<line x1="22.25" y1="100.0" x2="22.25" y2="124.0" style="stroke:black; stroke-width:1px;" />
<line x1="44.0" y1="69.0" x2="65.75" y2="93.0" style="stroke:black; stroke-width:1px;" />
<line x1="93.5" y1="38.0" x2="143.0" y2="62.0" style="stroke:black; stroke-width:1px;" />
<line x1="143.0" y1="69.0" x2="92.75" y2="93.0" style="stroke:black; stroke-width:1px;" />
<line x1="143.0" y1="69.0" x2="107.75" y2="93.0" style="stroke:black; stroke-width:1px;" />
<line x1="143.0" y1="69.0" x2="122.75" y2="93.0" style="stroke:black; stroke-width:1px;" />
<line x1="143.0" y1="69.0" x2="153.75" y2="93.0" style="stroke:black; stroke-width:1px;" />
<line x1="153.75" y1="100.0" x2="153.75" y2="124.0" style="stroke:black; stroke-width:1px;" />
<line x1="153.75" y1="131.0" x2="126.75" y2="155.0" style="stroke:black; stroke-width:1px;" />
<line x1="126.75" y1="162.0" x2="126.75" y2="186.0" style="stroke:black; stroke-width:1px;" />
<line x1="126.75" y1="193.0" x2="17.625" y2="217.0" style="stroke:black; stroke-width:1px;" />
<line x1="126.75" y1="193.0" x2="63.125" y2="217.0" style="stroke:black; stroke-width:1px;" />
<line x1="63.125" y1="224.0" x2="63.125" y2="248.0" style="stroke:black; stroke-width:1px;" />
<line x1="126.75" y1="193.0" x2="137.875" y2="217.0" style="stroke:black; stroke-width:1px;" />
<line x1="137.875" y1="224.0" x2="107.625" y2="248.0" style="stroke:black; stroke-width:1px;" />
<line x1="137.875" y1="224.0" x2="135.125" y2="248.0" style="stroke:black; stroke-width:1px;" />
<line x1="137.875" y1="224.0" x2="151.625" y2="248.0" style="stroke:black; stroke-width:1px;" />
<line x1="137.875" y1="224.0" x2="168.125" y2="248.0" style="stroke:black; stroke-width:1px;" />
<line x1="126.75" y1="193.0" x2="159.875" y2="217.0" style="stroke:black; stroke-width:1px;" />
<line x1="126.75" y1="193.0" x2="176.375" y2="217.0" style="stroke:black; stroke-width:1px;" />
<line x1="126.75" y1="193.0" x2="192.875" y2="217.0" style="stroke:black; stroke-width:1px;" />
<line x1="126.75" y1="193.0" x2="210.375" y2="217.0" style="stroke:black; stroke-width:1px;" />
<line x1="126.75" y1="193.0" x2="235.875" y2="217.0" style="stroke:black; stroke-width:1px;" />
<line x1="235.875" y1="224.0" x2="199.375" y2="248.0" style="stroke:black; stroke-width:1px;" />
<line x1="235.875" y1="224.0" x2="235.875" y2="248.0" style="stroke:black; stroke-width:1px;" />
<line x1="235.875" y1="255.0" x2="182.875" y2="279.0" style="stroke:black; stroke-width:1px;" />
<line x1="182.875" y1="286.0" x2="146.375" y2="310.0" style="stroke:black; stroke-width:1px;" />
<line x1="182.875" y1="286.0" x2="182.875" y2="310.0" style="stroke:black; stroke-width:1px;" />
<line x1="182.875" y1="317.0" x2="156.375" y2="341.0" style="stroke:black; stroke-width:1px;" />
<line x1="156.375" y1="348.0" x2="156.375" y2="372.0" style="stroke:black; stroke-width:1px;" />
<line x1="156.375" y1="379.0" x2="156.375" y2="403.0" style="stroke:black; stroke-width:1px;" />
<line x1="182.875" y1="317.0" x2="182.875" y2="341.0" style="stroke:black; stroke-width:1px;" />
<line x1="182.875" y1="317.0" x2="209.375" y2="341.0" style="stroke:black; stroke-width:1px;" />
<line x1="209.375" y1="348.0" x2="209.375" y2="372.0" style="stroke:black; stroke-width:1px;" />
<line x1="209.375" y1="379.0" x2="209.375" y2="403.0" style="stroke:black; stroke-width:1px;" />
<line x1="182.875" y1="286.0" x2="219.375" y2="310.0" style="stroke:black; stroke-width:1px;" />
<line x1="235.875" y1="255.0" x2="235.875" y2="279.0" style="stroke:black; stroke-width:1px;" />
<line x1="235.875" y1="255.0" x2="288.875" y2="279.0" style="stroke:black; stroke-width:1px;" />
<line x1="288.875" y1="286.0" x2="252.375" y2="310.0" style="stroke:black; stroke-width:1px;" />
<line x1="288.875" y1="286.0" x2="288.875" y2="310.0" style="stroke:black; stroke-width:1px;" />
<line x1="288.875" y1="317.0" x2="262.375" y2="341.0" style="stroke:black; stroke-width:1px;" />
<line x1="262.375" y1="348.0" x2="262.375" y2="372.0" style="stroke:black; stroke-width:1px;" />
<line x1="262.375" y1="379.0" x2="262.375" y2="403.0" style="stroke:black; stroke-width:1px;" />
<line x1="288.875" y1="317.0" x2="288.875" y2="341.0" style="stroke:black; stroke-width:1px;" />
<line x1="288.875" y1="317.0" x2="315.375" y2="341.0" style="stroke:black; stroke-width:1px;" />
<line x1="315.375" y1="348.0" x2="315.375" y2="372.0" style="stroke:black; stroke-width:1px;" />
<line x1="315.375" y1="379.0" x2="315.375" y2="403.0" style="stroke:black; stroke-width:1px;" />
<line x1="288.875" y1="286.0" x2="325.375" y2="310.0" style="stroke:black; stroke-width:1px;" />
<line x1="235.875" y1="224.0" x2="272.375" y2="248.0" style="stroke:black; stroke-width:1px;" />
<line x1="153.75" y1="131.0" x2="180.75" y2="155.0" style="stroke:black; stroke-width:1px;" />
<line x1="143.0" y1="69.0" x2="193.25" y2="93.0" style="stroke:black; stroke-width:1px;" />
<rect x="118.75" y="93.0" width="8.0" height="14.0" style="fill:orange; stroke:rgb(0,0,0);" rx="1"/>
<text x="120" y="102" style="font-family:sans-serif;font-size:10px;">
:
</text>
<rect x="0.625" y="217.0" width="34.0" height="14.0" style="fill:orange; stroke:rgb(0,0,0);" rx="1"/>
<text x="2" y="226" style="font-family:sans-serif;font-size:10px;">
array
</text>
<rect x="164.125" y="248.0" width="8.0" height="14.0" style="fill:orange; stroke:rgb(0,0,0);" rx="1"/>
<text x="166" y="257" style="font-family:sans-serif;font-size:10px;">
]
</text>
<rect x="0.0" y="62.0" width="88.0" height="14.0" style="fill:orange; stroke:rgb(0,0,0);" rx="1"/>
<text x="2" y="71" style="font-family:sans-serif;font-size:10px;">
nomedafuncao
</text>
<rect x="176.75" y="155.0" width="8.0" height="14.0" style="fill:orange; stroke:rgb(0,0,0);" rx="1"/>
<text x="178" y="164" style="font-family:sans-serif;font-size:10px;">
;
</text>
<rect x="49.75" y="93.0" width="32.0" height="14.0" style="fill:orange; stroke:rgb(0,0,0);" rx="1"/>
<text x="51" y="102" style="font-family:sans-serif;font-size:10px;">
main
</text>
<rect x="231.875" y="279.0" width="8.0" height="14.0" style="fill:orange; stroke:rgb(0,0,0);" rx="1"/>
<text x="233" y="288" style="font-family:sans-serif;font-size:10px;">
,
</text>
<rect x="88.75" y="93.0" width="8.0" height="14.0" style="fill:orange; stroke:rgb(0,0,0);" rx="1"/>
<text x="90" y="102" style="font-family:sans-serif;font-size:10px;">
(
</text>
<rect x="251.375" y="403.0" width="22.0" height="14.0" style="fill:orange; stroke:rgb(0,0,0);" rx="1"/>
<text x="253" y="412" style="font-family:sans-serif;font-size:10px;">
4.8
</text>
<rect x="198.375" y="403.0" width="22.0" height="14.0" style="fill:orange; stroke:rgb(0,0,0);" rx="1"/>
<text x="200" y="412" style="font-family:sans-serif;font-size:10px;">
2.2
</text>
<rect x="284.875" y="341.0" width="8.0" height="14.0" style="fill:orange; stroke:rgb(0,0,0);" rx="1"/>
<text x="286" y="350" style="font-family:sans-serif;font-size:10px;">
,
</text>
<rect x="170.875" y="279.0" width="24.0" height="14.0" style="fill:orange; stroke:rgb(0,0,0);" rx="1"/>
<text x="172" y="288" style="font-family:sans-serif;font-size:10px;">
exp
</text>
<rect x="276.875" y="279.0" width="24.0" height="14.0" style="fill:orange; stroke:rgb(0,0,0);" rx="1"/>
<text x="278" y="288" style="font-family:sans-serif;font-size:10px;">
exp
</text>
<rect x="197.375" y="341.0" width="24.0" height="14.0" style="fill:orange; stroke:rgb(0,0,0);" rx="1"/>
<text x="199" y="350" style="font-family:sans-serif;font-size:10px;">
exp
</text>
<rect x="239.375" y="372.0" width="46.0" height="14.0" style="fill:orange; stroke:rgb(0,0,0);" rx="1"/>
<text x="241" y="381" style="font-family:sans-serif;font-size:10px;">
valores
</text>
<rect x="91.125" y="248.0" width="33.0" height="14.0" style="fill:orange; stroke:rgb(0,0,0);" rx="1"/>
<text x="93" y="257" style="font-family:sans-serif;font-size:10px;">
reais
</text>
<rect x="125.75" y="124.0" width="56.0" height="14.0" style="fill:orange; stroke:rgb(0,0,0);" rx="1"/>
<text x="127" y="133" style="font-family:sans-serif;font-size:10px;">
comando
</text>
<rect x="140.875" y="310.0" width="11.0" height="14.0" style="fill:orange; stroke:rgb(0,0,0);" rx="1"/>
<text x="142" y="319" style="font-family:sans-serif;font-size:10px;">
{
</text>
<rect x="8.75" y="124.0" width="27.0" height="14.0" style="fill:orange; stroke:rgb(0,0,0);" rx="1"/>
<text x="10" y="133" style="font-family:sans-serif;font-size:10px;">
void
</text>
<rect x="155.875" y="217.0" width="8.0" height="14.0" style="fill:orange; stroke:rgb(0,0,0);" rx="1"/>
<text x="157" y="226" style="font-family:sans-serif;font-size:10px;">
[
</text>
<rect x="211.875" y="248.0" width="48.0" height="14.0" style="fill:orange; stroke:rgb(0,0,0);" rx="1"/>
<text x="213" y="257" style="font-family:sans-serif;font-size:10px;">
listaexp
</text>
<rect x="303.375" y="341.0" width="24.0" height="14.0" style="fill:orange; stroke:rgb(0,0,0);" rx="1"/>
<text x="305" y="350" style="font-family:sans-serif;font-size:10px;">
exp
</text>
<rect x="266.875" y="248.0" width="11.0" height="14.0" style="fill:orange; stroke:rgb(0,0,0);" rx="1"/>
<text x="268" y="257" style="font-family:sans-serif;font-size:10px;">
}
</text>
<rect x="193.875" y="248.0" width="11.0" height="14.0" style="fill:orange; stroke:rgb(0,0,0);" rx="1"/>
<text x="195" y="257" style="font-family:sans-serif;font-size:10px;">
{
</text>
<rect x="319.875" y="310.0" width="11.0" height="14.0" style="fill:orange; stroke:rgb(0,0,0);" rx="1"/>
<text x="321" y="319" style="font-family:sans-serif;font-size:10px;">
}
</text>
<rect x="145.375" y="403.0" width="22.0" height="14.0" style="fill:orange; stroke:rgb(0,0,0);" rx="1"/>
<text x="147" y="412" style="font-family:sans-serif;font-size:10px;">
0.0
</text>
<rect x="41.625" y="217.0" width="43.0" height="14.0" style="fill:orange; stroke:rgb(0,0,0);" rx="1"/>
<text x="43" y="226" style="font-family:sans-serif;font-size:10px;">
tipovar
</text>
<rect x="76.5" y="31.0" width="34.0" height="14.0" style="fill:orange; stroke:rgb(0,0,0);" rx="1"/>
<text x="78" y="40" style="font-family:sans-serif;font-size:10px;">
bloco
</text>
<rect x="77.0" y="0.0" width="33.0" height="14.0" style="fill:orange; stroke:rgb(0,0,0);" rx="1"/>
<text x="79" y="9" style="font-family:sans-serif;font-size:10px;">
inicio
</text>
<rect x="144.375" y="341.0" width="24.0" height="14.0" style="fill:orange; stroke:rgb(0,0,0);" rx="1"/>
<text x="146" y="350" style="font-family:sans-serif;font-size:10px;">
exp
</text>
<rect x="99.0" y="62.0" width="88.0" height="14.0" style="fill:orange; stroke:rgb(0,0,0);" rx="1"/>
<text x="101" y="71" style="font-family:sans-serif;font-size:10px;">
corpodafuncao
</text>
<rect x="83.75" y="155.0" width="86.0" height="14.0" style="fill:orange; stroke:rgb(0,0,0);" rx="1"/>
<text x="85" y="164" style="font-family:sans-serif;font-size:10px;">
comandounico
</text>
<rect x="170.875" y="217.0" width="11.0" height="14.0" style="fill:orange; stroke:rgb(0,0,0);" rx="1"/>
<text x="172" y="226" style="font-family:sans-serif;font-size:10px;">
2
</text>
<rect x="158.875" y="310.0" width="48.0" height="14.0" style="fill:orange; stroke:rgb(0,0,0);" rx="1"/>
<text x="160" y="319" style="font-family:sans-serif;font-size:10px;">
listaexp
</text>
<rect x="146.125" y="248.0" width="11.0" height="14.0" style="fill:orange; stroke:rgb(0,0,0);" rx="1"/>
<text x="148" y="257" style="font-family:sans-serif;font-size:10px;">
2
</text>
<rect x="188.875" y="217.0" width="8.0" height="14.0" style="fill:orange; stroke:rgb(0,0,0);" rx="1"/>
<text x="190" y="226" style="font-family:sans-serif;font-size:10px;">
]
</text>
<rect x="223.875" y="217.0" width="24.0" height="14.0" style="fill:orange; stroke:rgb(0,0,0);" rx="1"/>
<text x="225" y="226" style="font-family:sans-serif;font-size:10px;">
exp
</text>
<rect x="292.375" y="372.0" width="46.0" height="14.0" style="fill:orange; stroke:rgb(0,0,0);" rx="1"/>
<text x="294" y="381" style="font-family:sans-serif;font-size:10px;">
valores
</text>
<rect x="103.75" y="93.0" width="8.0" height="14.0" style="fill:orange; stroke:rgb(0,0,0);" rx="1"/>
<text x="105" y="102" style="font-family:sans-serif;font-size:10px;">
)
</text>
<rect x="133.75" y="93.0" width="40.0" height="14.0" style="fill:orange; stroke:rgb(0,0,0);" rx="1"/>
<text x="135" y="102" style="font-family:sans-serif;font-size:10px;">
trecho
</text>
<rect x="68.75" y="186.0" width="116.0" height="14.0" style="fill:orange; stroke:rgb(0,0,0);" rx="1"/>
<text x="70" y="195" style="font-family:sans-serif;font-size:10px;">
comandoexpressao
</text>
<rect x="42.125" y="248.0" width="42.0" height="14.0" style="fill:orange; stroke:rgb(0,0,0);" rx="1"/>
<text x="44" y="257" style="font-family:sans-serif;font-size:10px;">
double
</text>
<rect x="203.875" y="217.0" width="13.0" height="14.0" style="fill:orange; stroke:rgb(0,0,0);" rx="1"/>
<text x="205" y="226" style="font-family:sans-serif;font-size:10px;">
=
</text>
<rect x="178.875" y="341.0" width="8.0" height="14.0" style="fill:orange; stroke:rgb(0,0,0);" rx="1"/>
<text x="180" y="350" style="font-family:sans-serif;font-size:10px;">
,
</text>
<rect x="1.75" y="93.0" width="41.0" height="14.0" style="fill:orange; stroke:rgb(0,0,0);" rx="1"/>
<text x="3" y="102" style="font-family:sans-serif;font-size:10px;">
tiporet
</text>
<rect x="213.875" y="310.0" width="11.0" height="14.0" style="fill:orange; stroke:rgb(0,0,0);" rx="1"/>
<text x="215" y="319" style="font-family:sans-serif;font-size:10px;">
}
</text>
<rect x="126.875" y="217.0" width="22.0" height="14.0" style="fill:orange; stroke:rgb(0,0,0);" rx="1"/>
<text x="128" y="226" style="font-family:sans-serif;font-size:10px;">
var
</text>
<rect x="131.125" y="248.0" width="8.0" height="14.0" style="fill:orange; stroke:rgb(0,0,0);" rx="1"/>
<text x="133" y="257" style="font-family:sans-serif;font-size:10px;">
[
</text>
<rect x="300.875" y="403.0" width="29.0" height="14.0" style="fill:orange; stroke:rgb(0,0,0);" rx="1"/>
<text x="302" y="412" style="font-family:sans-serif;font-size:10px;">
10.2
</text>
<rect x="246.875" y="310.0" width="11.0" height="14.0" style="fill:orange; stroke:rgb(0,0,0);" rx="1"/>
<text x="248" y="319" style="font-family:sans-serif;font-size:10px;">
{
</text>
<rect x="250.375" y="341.0" width="24.0" height="14.0" style="fill:orange; stroke:rgb(0,0,0);" rx="1"/>
<text x="252" y="350" style="font-family:sans-serif;font-size:10px;">
exp
</text>
<rect x="264.875" y="310.0" width="48.0" height="14.0" style="fill:orange; stroke:rgb(0,0,0);" rx="1"/>
<text x="266" y="319" style="font-family:sans-serif;font-size:10px;">
listaexp
</text>
<rect x="180.75" y="93.0" width="25.0" height="14.0" style="fill:orange; stroke:rgb(0,0,0);" rx="1"/>
<text x="182" y="102" style="font-family:sans-serif;font-size:10px;">
end
</text>
<rect x="186.375" y="372.0" width="46.0" height="14.0" style="fill:orange; stroke:rgb(0,0,0);" rx="1"/>
<text x="188" y="381" style="font-family:sans-serif;font-size:10px;">
valores
</text>
<rect x="133.375" y="372.0" width="46.0" height="14.0" style="fill:orange; stroke:rgb(0,0,0);" rx="1"/>
<text x="135" y="381" style="font-family:sans-serif;font-size:10px;">
valores
</text>
</svg>